  0
SECTION
  2
BLOCKS
  0
ENDSEC
  0
SECTION
  2
ENTITIES
  0
LINE
  8
0
 10
30
 20
5
 11
45
 21
5
  0
LINE
  8
0
 10
45
 20
5
 11
45
 21
0
  0
LINE
  8
0
 10
45
 20
0
 11
60
 21
0
  0
LINE
  8
0
 10
60
 20
0
 11
60
 21
5
  0
LINE
  8
0
 10
60
 20
5
 11
75
 21
5
  0
LINE
  8
0
 10
75
 20
5
 11
75
 21
0
  0
LINE
  8
0
 10
75
 20
0
 11
90
 21
0
  0
LINE
  8
0
 10
90
 20
0
 11
90
 21
5
  0
LINE
  8
0
 10
90
 20
5
 11
105
 21
5
  0
LINE
  8
0
 10
105
 20
5
 11
105
 21
0
  0
LINE
  8
0
 10
105
 20
0
 11
120
 21
0
  0
LINE
  8
0
 10
120
 20
0
 11
120
 21
5
  0
LINE
  8
0
 10
120
 20
5
 11
135
 21
5
  0
LINE
  8
0
 10
135
 20
5
 11
135
 21
0
  0
LINE
  8
0
 10
135
 20
0
 11
150
 21
0
  0
LINE
  8
0
 10
150
 20
0
 11
150
 21
5
  0
LINE
  8
0
 10
150
 20
5
 11
165
 21
5
  0
LINE
  8
0
 10
165
 20
5
 11
165
 21
0
  0
LINE
  8
0
 10
165
 20
0
 11
170
 21
0
  0
LINE
  8
0
 10
170
 20
0
 11
170
 21
443
  0
LINE
  8
0
 10
170
 20
443
 11
165
 21
443
  0
LINE
  8
0
 10
165
 20
443
 11
165
 21
438
  0
LINE
  8
0
 10
165
 20
438
 11
150
 21
438
  0
LINE
  8
0
 10
150
 20
438
 11
150
 21
443
  0
LINE
  8
0
 10
150
 20
443
 11
135
 21
443
  0
LINE
  8
0
 10
135
 20
443
 11
135
 21
438
  0
LINE
  8
0
 10
135
 20
438
 11
120
 21
438
  0
LINE
  8
0
 10
120
 20
438
 11
120
 21
443
  0
LINE
  8
0
 10
120
 20
443
 11
105
 21
443
  0
LINE
  8
0
 10
105
 20
443
 11
105
 21
438
  0
LINE
  8
0
 10
105
 20
438
 11
90
 21
438
  0
LINE
  8
0
 10
90
 20
438
 11
90
 21
443
  0
LINE
  8
0
 10
90
 20
443
 11
75
 21
443
  0
LINE
  8
0
 10
75
 20
443
 11
75
 21
438
  0
LINE
  8
0
 10
75
 20
438
 11
60
 21
438
  0
LINE
  8
0
 10
60
 20
438
 11
60
 21
443
  0
LINE
  8
0
 10
60
 20
443
 11
45
 21
443
  0
LINE
  8
0
 10
45
 20
443
 11
45
 21
438
  0
LINE
  8
0
 10
45
 20
438
 11
30
 21
438
  0
LINE
  8
0
 10
30
 20
438
 11
30
 21
443
  0
LINE
  8
0
 10
30
 20
443
 11
15
 21
443
  0
LINE
  8
0
 10
15
 20
443
 11
15
 21
438
  0
LINE
  8
0
 10
15
 20
438
 11
5
 21
438
  0
LINE
  8
0
 10
5
 20
438
 11
5
 21
424
  0
LINE
  8
0
 10
5
 20
424
 11
0
 21
424
  0
LINE
  8
0
 10
0
 20
424
 11
0
 21
409
  0
LINE
  8
0
 10
0
 20
409
 11
5
 21
409
  0
LINE
  8
0
 10
5
 20
409
 11
5
 21
394
  0
LINE
  8
0
 10
5
 20
394
 11
0
 21
394
  0
LINE
  8
0
 10
0
 20
394
 11
0
 21
379
  0
LINE
  8
0
 10
0
 20
379
 11
5
 21
379
  0
LINE
  8
0
 10
5
 20
379
 11
5
 21
364
  0
LINE
  8
0
 10
5
 20
364
 11
0
 21
364
  0
LINE
  8
0
 10
0
 20
364
 11
0
 21
349
  0
LINE
  8
0
 10
0
 20
349
 11
5
 21
349
  0
LINE
  8
0
 10
5
 20
349
 11
5
 21
334
  0
LINE
  8
0
 10
5
 20
334
 11
0
 21
334
  0
LINE
  8
0
 10
0
 20
334
 11
0
 21
319
  0
LINE
  8
0
 10
0
 20
319
 11
5
 21
319
  0
LINE
  8
0
 10
5
 20
319
 11
5
 21
304
  0
LINE
  8
0
 10
5
 20
304
 11
0
 21
304
  0
LINE
  8
0
 10
0
 20
304
 11
0
 21
289
  0
LINE
  8
0
 10
0
 20
289
 11
5
 21
289
  0
LINE
  8
0
 10
5
 20
289
 11
5
 21
274
  0
LINE
  8
0
 10
5
 20
274
 11
0
 21
274
  0
LINE
  8
0
 10
0
 20
274
 11
0
 21
259
  0
LINE
  8
0
 10
0
 20
259
 11
5
 21
259
  0
LINE
  8
0
 10
5
 20
259
 11
5
 21
244
  0
LINE
  8
0
 10
5
 20
244
 11
0
 21
244
  0
LINE
  8
0
 10
0
 20
244
 11
0
 21
229
  0
LINE
  8
0
 10
0
 20
229
 11
5
 21
229
  0
LINE
  8
0
 10
5
 20
229
 11
5
 21
214
  0
LINE
  8
0
 10
5
 20
214
 11
0
 21
214
  0
LINE
  8
0
 10
0
 20
214
 11
0
 21
199
  0
LINE
  8
0
 10
0
 20
199
 11
5
 21
199
  0
LINE
  8
0
 10
5
 20
199
 11
5
 21
184
  0
LINE
  8
0
 10
5
 20
184
 11
0
 21
184
  0
LINE
  8
0
 10
0
 20
184
 11
0
 21
169
  0
LINE
  8
0
 10
0
 20
169
 11
5
 21
169
  0
LINE
  8
0
 10
5
 20
169
 11
5
 21
154
  0
LINE
  8
0
 10
5
 20
154
 11
0
 21
154
  0
LINE
  8
0
 10
0
 20
154
 11
0
 21
139
  0
LINE
  8
0
 10
0
 20
139
 11
5
 21
139
  0
LINE
  8
0
 10
5
 20
139
 11
5
 21
124
  0
LINE
  8
0
 10
5
 20
124
 11
0
 21
124
  0
LINE
  8
0
 10
0
 20
124
 11
0
 21
109
  0
LINE
  8
0
 10
0
 20
109
 11
5
 21
109
  0
LINE
  8
0
 10
5
 20
109
 11
5
 21
94
  0
LINE
  8
0
 10
5
 20
94
 11
0
 21
94
  0
LINE
  8
0
 10
0
 20
94
 11
0
 21
79
  0
LINE
  8
0
 10
0
 20
79
 11
5
 21
79
  0
LINE
  8
0
 10
5
 20
79
 11
5
 21
64
  0
LINE
  8
0
 10
5
 20
64
 11
0
 21
64
  0
LINE
  8
0
 10
0
 20
64
 11
0
 21
49
  0
LINE
  8
0
 10
0
 20
49
 11
5
 21
49
  0
LINE
  8
0
 10
5
 20
49
 11
5
 21
34
  0
LINE
  8
0
 10
5
 20
34
 11
0
 21
34
  0
LINE
  8
0
 10
0
 20
34
 11
0
 21
19
  0
LINE
  8
0
 10
0
 20
19
 11
5
 21
19
  0
LINE
  8
0
 10
5
 20
19
 11
5
 21
5
  0
LINE
  8
0
 10
5
 20
5
 11
15
 21
5
  0
LINE
  8
0
 10
15
 20
5
 11
15
 21
0
  0
LINE
  8
0
 10
15
 20
0
 11
30
 21
0
  0
LINE
  8
0
 10
30
 20
0
 11
30
 21
5
  0
LINE
  8
0
 10
84.5811
 20
20.0044
 11
83.7442
 21
20.0395
  0
LINE
  8
0
 10
83.7442
 20
20.0395
 11
82.9094
 21
20.1096
  0
LINE
  8
0
 10
82.9094
 20
20.1096
 11
82.0783
 21
20.2146
  0
LINE
  8
0
 10
82.0783
 20
20.2146
 11
81.2524
 21
20.3542
  0
LINE
  8
0
 10
81.2524
 20
20.3542
 11
80.433
 21
20.5284
  0
LINE
  8
0
 10
80.433
 20
20.5284
 11
79.6216
 21
20.7367
  0
LINE
  8
0
 10
79.6216
 20
20.7367
 11
78.8197
 21
20.9789
  0
LINE
  8
0
 10
78.8197
 20
20.9789
 11
78.0285
 21
21.2543
  0
LINE
  8
0
 10
78.0285
 20
21.2543
 11
77.2497
 21
21.5627
  0
LINE
  8
0
 10
77.2497
 20
21.5627
 11
76.4844
 21
21.9035
  0
LINE
  8
0
 10
76.4844
 20
21.9035
 11
75.7341
 21
22.2759
  0
LINE
  8
0
 10
75.7341
 20
22.2759
 11
75
 21
22.6795
  0
LINE
  8
0
 10
75
 20
22.6795
 11
74.2835
 21
23.1134
  0
LINE
  8
0
 10
74.2835
 20
23.1134
 11
73.5857
 21
23.577
  0
LINE
  8
0
 10
73.5857
 20
23.577
 11
72.908
 21
24.0694
  0
LINE
  8
0
 10
72.908
 20
24.0694
 11
72.2515
 21
24.5897
  0
LINE
  8
0
 10
72.2515
 20
24.5897
 11
71.6174
 21
25.1371
  0
LINE
  8
0
 10
71.6174
 20
25.1371
 11
71.0067
 21
25.7105
  0
LINE
  8
0
 10
71.0067
 20
25.7105
 11
70.4206
 21
26.3091
  0
LINE
  8
0
 10
70.4206
 20
26.3091
 11
69.8601
 21
26.9316
  0
LINE
  8
0
 10
69.8601
 20
26.9316
 11
69.3261
 21
27.577
  0
LINE
  8
0
 10
69.3261
 20
27.577
 11
68.8197
 21
28.2443
  0
LINE
  8
0
 10
68.8197
 20
28.2443
 11
68.3416
 21
28.9322
  0
LINE
  8
0
 10
68.3416
 20
28.9322
 11
67.8927
 21
29.6395
  0
LINE
  8
0
 10
67.8927
 20
29.6395
 11
67.4739
 21
30.3649
  0
LINE
  8
0
 10
67.4739
 20
30.3649
 11
67.0858
 21
31.1073
  0
LINE
  8
0
 10
67.0858
 20
31.1073
 11
66.7291
 21
31.8653
  0
LINE
  8
0
 10
66.7291
 20
31.8653
 11
66.4045
 21
32.6375
  0
LINE
  8
0
 10
66.4045
 20
32.6375
 11
66.1125
 21
33.4227
  0
LINE
  8
0
 10
66.1125
 20
33.4227
 11
65.8536
 21
34.2194
  0
LINE
  8
0
 10
65.8536
 20
34.2194
 11
65.6283
 21
35.0262
  0
LINE
  8
0
 10
65.6283
 20
35.0262
 11
65.437
 21
35.8418
  0
LINE
  8
0
 10
65.437
 20
35.8418
 11
65.2801
 21
36.6646
  0
LINE
  8
0
 10
65.2801
 20
36.6646
 11
65.1577
 21
37.4933
  0
LINE
  8
0
 10
65.1577
 20
37.4933
 11
65.0701
 21
38.3264
  0
LINE
  8
0
 10
65.0701
 20
38.3264
 11
65.0175
 21
39.1625
  0
LINE
  8
0
 10
65.0175
 20
39.1625
 11
65
 21
40
  0
LINE
  8
0
 10
65
 20
40
 11
65.0175
 21
40.8375
  0
LINE
  8
0
 10
65.0175
 20
40.8375
 11
65.0701
 21
41.6736
  0
LINE
  8
0
 10
65.0701
 20
41.6736
 11
65.1577
 21
42.5067
  0
LINE
  8
0
 10
65.1577
 20
42.5067
 11
65.2801
 21
43.3354
  0
LINE
  8
0
 10
65.2801
 20
43.3354
 11
65.437
 21
44.1582
  0
LINE
  8
0
 10
65.437
 20
44.1582
 11
65.6283
 21
44.9738
  0
LINE
  8
0
 10
65.6283
 20
44.9738
 11
65.8536
 21
45.7806
  0
LINE
  8
0
 10
65.8536
 20
45.7806
 11
66.1125
 21
46.5773
  0
LINE
  8
0
 10
66.1125
 20
46.5773
 11
66.4045
 21
47.3625
  0
LINE
  8
0
 10
66.4045
 20
47.3625
 11
66.7291
 21
48.1347
  0
LINE
  8
0
 10
66.7291
 20
48.1347
 11
67.0858
 21
48.8927
  0
LINE
  8
0
 10
67.0858
 20
48.8927
 11
67.4739
 21
49.6351
  0
LINE
  8
0
 10
67.4739
 20
49.6351
 11
67.8927
 21
50.3605
  0
LINE
  8
0
 10
67.8927
 20
50.3605
 11
68.3416
 21
51.0678
  0
LINE
  8
0
 10
68.3416
 20
51.0678
 11
68.8197
 21
51.7557
  0
LINE
  8
0
 10
68.8197
 20
51.7557
 11
69.3261
 21
52.4229
  0
LINE
  8
0
 10
69.3261
 20
52.4229
 11
69.8601
 21
53.0684
  0
LINE
  8
0
 10
69.8601
 20
53.0684
 11
70.4206
 21
53.6909
  0
LINE
  8
0
 10
70.4206
 20
53.6909
 11
71.0067
 21
54.2894
  0
LINE
  8
0
 10
71.0067
 20
54.2894
 11
71.6174
 21
54.8629
  0
LINE
  8
0
 10
71.6174
 20
54.8629
 11
72.2515
 21
55.4103
  0
LINE
  8
0
 10
72.2515
 20
55.4103
 11
72.908
 21
55.9306
  0
LINE
  8
0
 10
72.908
 20
55.9306
 11
73.5857
 21
56.423
  0
LINE
  8
0
 10
73.5857
 20
56.423
 11
74.2835
 21
56.8866
  0
LINE
  8
0
 10
74.2835
 20
56.8866
 11
75
 21
57.3205
  0
LINE
  8
0
 10
75
 20
57.3205
 11
75.7341
 21
57.7241
  0
LINE
  8
0
 10
75.7341
 20
57.7241
 11
76.4844
 21
58.0965
  0
LINE
  8
0
 10
76.4844
 20
58.0965
 11
77.2497
 21
58.4373
  0
LINE
  8
0
 10
77.2497
 20
58.4373
 11
78.0285
 21
58.7456
  0
LINE
  8
0
 10
78.0285
 20
58.7456
 11
78.8197
 21
59.0211
  0
LINE
  8
0
 10
78.8197
 20
59.0211
 11
79.6216
 21
59.2632
  0
LINE
  8
0
 10
79.6216
 20
59.2632
 11
80.433
 21
59.4716
  0
LINE
  8
0
 10
80.433
 20
59.4716
 11
81.2524
 21
59.6457
  0
LINE
  8
0
 10
81.2524
 20
59.6457
 11
82.0783
 21
59.7854
  0
LINE
  8
0
 10
82.0783
 20
59.7854
 11
82.9094
 21
59.8904
  0
LINE
  8
0
 10
82.9094
 20
59.8904
 11
83.7442
 21
59.9605
  0
LINE
  8
0
 10
83.7442
 20
59.9605
 11
84.5811
 21
59.9956
  0
LINE
  8
0
 10
84.5811
 20
59.9956
 11
85.4188
 21
59.9956
  0
LINE
  8
0
 10
85.4188
 20
59.9956
 11
86.2558
 21
59.9605
  0
LINE
  8
0
 10
86.2558
 20
59.9605
 11
87.0906
 21
59.8904
  0
LINE
  8
0
 10
87.0906
 20
59.8904
 11
87.9217
 21
59.7854
  0
LINE
  8
0
 10
87.9217
 20
59.7854
 11
88.7476
 21
59.6457
  0
LINE
  8
0
 10
88.7476
 20
59.6457
 11
89.567
 21
59.4716
  0
LINE
  8
0
 10
89.567
 20
59.4716
 11
90.3784
 21
59.2632
  0
LINE
  8
0
 10
90.3784
 20
59.2632
 11
91.1803
 21
59.0211
  0
LINE
  8
0
 10
91.1803
 20
59.0211
 11
91.9714
 21
58.7456
  0
LINE
  8
0
 10
91.9714
 20
58.7456
 11
92.7503
 21
58.4373
  0
LINE
  8
0
 10
92.7503
 20
58.4373
 11
93.5156
 21
58.0965
  0
LINE
  8
0
 10
93.5156
 20
58.0965
 11
94.2659
 21
57.7241
  0
LINE
  8
0
 10
94.2659
 20
57.7241
 11
95
 21
57.3205
  0
LINE
  8
0
 10
95
 20
57.3205
 11
95.7165
 21
56.8866
  0
LINE
  8
0
 10
95.7165
 20
56.8866
 11
96.4143
 21
56.423
  0
LINE
  8
0
 10
96.4143
 20
56.423
 11
97.092
 21
55.9306
  0
LINE
  8
0
 10
97.092
 20
55.9306
 11
97.7485
 21
55.4103
  0
LINE
  8
0
 10
97.7485
 20
55.4103
 11
98.3826
 21
54.8629
  0
LINE
  8
0
 10
98.3826
 20
54.8629
 11
98.9933
 21
54.2894
  0
LINE
  8
0
 10
98.9933
 20
54.2894
 11
99.5794
 21
53.6909
  0
LINE
  8
0
 10
99.5794
 20
53.6909
 11
100.14
 21
53.0684
  0
LINE
  8
0
 10
100.14
 20
53.0684
 11
100.674
 21
52.4229
  0
LINE
  8
0
 10
100.674
 20
52.4229
 11
101.18
 21
51.7557
  0
LINE
  8
0
 10
101.18
 20
51.7557
 11
101.658
 21
51.0678
  0
LINE
  8
0
 10
101.658
 20
51.0678
 11
102.107
 21
50.3605
  0
LINE
  8
0
 10
102.107
 20
50.3605
 11
102.526
 21
49.6351
  0
LINE
  8
0
 10
102.526
 20
49.6351
 11
102.914
 21
48.8927
  0
LINE
  8
0
 10
102.914
 20
48.8927
 11
103.271
 21
48.1347
  0
LINE
  8
0
 10
103.271
 20
48.1347
 11
103.596
 21
47.3625
  0
LINE
  8
0
 10
103.596
 20
47.3625
 11
103.888
 21
46.5773
  0
LINE
  8
0
 10
103.888
 20
46.5773
 11
104.146
 21
45.7806
  0
LINE
  8
0
 10
104.146
 20
45.7806
 11
104.372
 21
44.9738
  0
LINE
  8
0
 10
104.372
 20
44.9738
 11
104.563
 21
44.1582
  0
LINE
  8
0
 10
104.563
 20
44.1582
 11
104.72
 21
43.3354
  0
LINE
  8
0
 10
104.72
 20
43.3354
 11
104.842
 21
42.5067
  0
LINE
  8
0
 10
104.842
 20
42.5067
 11
104.93
 21
41.6736
  0
LINE
  8
0
 10
104.93
 20
41.6736
 11
104.982
 21
40.8375
  0
LINE
  8
0
 10
104.982
 20
40.8375
 11
105
 21
40
  0
LINE
  8
0
 10
105
 20
40
 11
104.982
 21
39.1625
  0
LINE
  8
0
 10
104.982
 20
39.1625
 11
104.93
 21
38.3264
  0
LINE
  8
0
 10
104.93
 20
38.3264
 11
104.842
 21
37.4933
  0
LINE
  8
0
 10
104.842
 20
37.4933
 11
104.72
 21
36.6646
  0
LINE
  8
0
 10
104.72
 20
36.6646
 11
104.563
 21
35.8418
  0
LINE
  8
0
 10
104.563
 20
35.8418
 11
104.372
 21
35.0262
  0
LINE
  8
0
 10
104.372
 20
35.0262
 11
104.146
 21
34.2194
  0
LINE
  8
0
 10
104.146
 20
34.2194
 11
103.888
 21
33.4227
  0
LINE
  8
0
 10
103.888
 20
33.4227
 11
103.596
 21
32.6375
  0
LINE
  8
0
 10
103.596
 20
32.6375
 11
103.271
 21
31.8653
  0
LINE
  8
0
 10
103.271
 20
31.8653
 11
102.914
 21
31.1073
  0
LINE
  8
0
 10
102.914
 20
31.1073
 11
102.526
 21
30.3649
  0
LINE
  8
0
 10
102.526
 20
30.3649
 11
102.107
 21
29.6395
  0
LINE
  8
0
 10
102.107
 20
29.6395
 11
101.658
 21
28.9322
  0
LINE
  8
0
 10
101.658
 20
28.9322
 11
101.18
 21
28.2443
  0
LINE
  8
0
 10
101.18
 20
28.2443
 11
100.674
 21
27.577
  0
LINE
  8
0
 10
100.674
 20
27.577
 11
100.14
 21
26.9316
  0
LINE
  8
0
 10
100.14
 20
26.9316
 11
99.5794
 21
26.3091
  0
LINE
  8
0
 10
99.5794
 20
26.3091
 11
98.9933
 21
25.7105
  0
LINE
  8
0
 10
98.9933
 20
25.7105
 11
98.3826
 21
25.1371
  0
LINE
  8
0
 10
98.3826
 20
25.1371
 11
97.7485
 21
24.5897
  0
LINE
  8
0
 10
97.7485
 20
24.5897
 11
97.092
 21
24.0694
  0
LINE
  8
0
 10
97.092
 20
24.0694
 11
96.4143
 21
23.577
  0
LINE
  8
0
 10
96.4143
 20
23.577
 11
95.7165
 21
23.1134
  0
LINE
  8
0
 10
95.7165
 20
23.1134
 11
95
 21
22.6795
  0
LINE
  8
0
 10
95
 20
22.6795
 11
94.2659
 21
22.2759
  0
LINE
  8
0
 10
94.2659
 20
22.2759
 11
93.5156
 21
21.9035
  0
LINE
  8
0
 10
93.5156
 20
21.9035
 11
92.7503
 21
21.5627
  0
LINE
  8
0
 10
92.7503
 20
21.5627
 11
91.9714
 21
21.2543
  0
LINE
  8
0
 10
91.9714
 20
21.2543
 11
91.1803
 21
20.9789
  0
LINE
  8
0
 10
91.1803
 20
20.9789
 11
90.3784
 21
20.7367
  0
LINE
  8
0
 10
90.3784
 20
20.7367
 11
89.567
 21
20.5284
  0
LINE
  8
0
 10
89.567
 20
20.5284
 11
88.7476
 21
20.3542
  0
LINE
  8
0
 10
88.7476
 20
20.3542
 11
87.9217
 21
20.2146
  0
LINE
  8
0
 10
87.9217
 20
20.2146
 11
87.0906
 21
20.1096
  0
LINE
  8
0
 10
87.0906
 20
20.1096
 11
86.2558
 21
20.0395
  0
LINE
  8
0
 10
86.2558
 20
20.0395
 11
85.4188
 21
20.0044
  0
LINE
  8
0
 10
85.4188
 20
20.0044
 11
84.5811
 21
20.0044
  0
LINE
  8
0
 10
215
 20
5
 11
230
 21
5
  0
LINE
  8
0
 10
230
 20
5
 11
230
 21
0
  0
LINE
  8
0
 10
230
 20
0
 11
245
 21
0
  0
LINE
  8
0
 10
245
 20
0
 11
245
 21
5
  0
LINE
  8
0
 10
245
 20
5
 11
260
 21
5
  0
LINE
  8
0
 10
260
 20
5
 11
260
 21
0
  0
LINE
  8
0
 10
260
 20
0
 11
275
 21
0
  0
LINE
  8
0
 10
275
 20
0
 11
275
 21
5
  0
LINE
  8
0
 10
275
 20
5
 11
290
 21
5
  0
LINE
  8
0
 10
290
 20
5
 11
290
 21
0
  0
LINE
  8
0
 10
290
 20
0
 11
305
 21
0
  0
LINE
  8
0
 10
305
 20
0
 11
305
 21
5
  0
LINE
  8
0
 10
305
 20
5
 11
320
 21
5
  0
LINE
  8
0
 10
320
 20
5
 11
320
 21
0
  0
LINE
  8
0
 10
320
 20
0
 11
335
 21
0
  0
LINE
  8
0
 10
335
 20
0
 11
335
 21
5
  0
LINE
  8
0
 10
335
 20
5
 11
350
 21
5
  0
LINE
  8
0
 10
350
 20
5
 11
350
 21
0
  0
LINE
  8
0
 10
350
 20
0
 11
365
 21
0
  0
LINE
  8
0
 10
365
 20
0
 11
365
 21
5
  0
LINE
  8
0
 10
365
 20
5
 11
380
 21
5
  0
LINE
  8
0
 10
380
 20
5
 11
380
 21
19
  0
LINE
  8
0
 10
380
 20
19
 11
375
 21
19
  0
LINE
  8
0
 10
375
 20
19
 11
375
 21
34
  0
LINE
  8
0
 10
375
 20
34
 11
380
 21
34
  0
LINE
  8
0
 10
380
 20
34
 11
380
 21
49
  0
LINE
  8
0
 10
380
 20
49
 11
375
 21
49
  0
LINE
  8
0
 10
375
 20
49
 11
375
 21
64
  0
LINE
  8
0
 10
375
 20
64
 11
380
 21
64
  0
LINE
  8
0
 10
380
 20
64
 11
380
 21
79
  0
LINE
  8
0
 10
380
 20
79
 11
375
 21
79
  0
LINE
  8
0
 10
375
 20
79
 11
375
 21
94
  0
LINE
  8
0
 10
375
 20
94
 11
380
 21
94
  0
LINE
  8
0
 10
380
 20
94
 11
380
 21
109
  0
LINE
  8
0
 10
380
 20
109
 11
375
 21
109
  0
LINE
  8
0
 10
375
 20
109
 11
375
 21
124
  0
LINE
  8
0
 10
375
 20
124
 11
380
 21
124
  0
LINE
  8
0
 10
380
 20
124
 11
380
 21
139
  0
LINE
  8
0
 10
380
 20
139
 11
375
 21
139
  0
LINE
  8
0
 10
375
 20
139
 11
375
 21
154
  0
LINE
  8
0
 10
375
 20
154
 11
380
 21
154
  0
LINE
  8
0
 10
380
 20
154
 11
380
 21
169
  0
LINE
  8
0
 10
380
 20
169
 11
375
 21
169
  0
LINE
  8
0
 10
375
 20
169
 11
375
 21
184
  0
LINE
  8
0
 10
375
 20
184
 11
380
 21
184
  0
LINE
  8
0
 10
380
 20
184
 11
380
 21
199
  0
LINE
  8
0
 10
380
 20
199
 11
375
 21
199
  0
LINE
  8
0
 10
375
 20
199
 11
375
 21
214
  0
LINE
  8
0
 10
375
 20
214
 11
380
 21
214
  0
LINE
  8
0
 10
380
 20
214
 11
380
 21
229
  0
LINE
  8
0
 10
380
 20
229
 11
375
 21
229
  0
LINE
  8
0
 10
375
 20
229
 11
375
 21
244
  0
LINE
  8
0
 10
375
 20
244
 11
380
 21
244
  0
LINE
  8
0
 10
380
 20
244
 11
380
 21
259
  0
LINE
  8
0
 10
380
 20
259
 11
375
 21
259
  0
LINE
  8
0
 10
375
 20
259
 11
375
 21
274
  0
LINE
  8
0
 10
375
 20
274
 11
380
 21
274
  0
LINE
  8
0
 10
380
 20
274
 11
380
 21
289
  0
LINE
  8
0
 10
380
 20
289
 11
375
 21
289
  0
LINE
  8
0
 10
375
 20
289
 11
375
 21
304
  0
LINE
  8
0
 10
375
 20
304
 11
380
 21
304
  0
LINE
  8
0
 10
380
 20
304
 11
380
 21
319
  0
LINE
  8
0
 10
380
 20
319
 11
375
 21
319
  0
LINE
  8
0
 10
375
 20
319
 11
375
 21
334
  0
LINE
  8
0
 10
375
 20
334
 11
380
 21
334
  0
LINE
  8
0
 10
380
 20
334
 11
380
 21
349
  0
LINE
  8
0
 10
380
 20
349
 11
375
 21
349
  0
LINE
  8
0
 10
375
 20
349
 11
375
 21
364
  0
LINE
  8
0
 10
375
 20
364
 11
380
 21
364
  0
LINE
  8
0
 10
380
 20
364
 11
380
 21
379
  0
LINE
  8
0
 10
380
 20
379
 11
375
 21
379
  0
LINE
  8
0
 10
375
 20
379
 11
375
 21
394
  0
LINE
  8
0
 10
375
 20
394
 11
380
 21
394
  0
LINE
  8
0
 10
380
 20
394
 11
380
 21
409
  0
LINE
  8
0
 10
380
 20
409
 11
375
 21
409
  0
LINE
  8
0
 10
375
 20
409
 11
375
 21
424
  0
LINE
  8
0
 10
375
 20
424
 11
380
 21
424
  0
LINE
  8
0
 10
380
 20
424
 11
380
 21
438
  0
LINE
  8
0
 10
380
 20
438
 11
365
 21
438
  0
LINE
  8
0
 10
365
 20
438
 11
365
 21
443
  0
LINE
  8
0
 10
365
 20
443
 11
350
 21
443
  0
LINE
  8
0
 10
350
 20
443
 11
350
 21
438
  0
LINE
  8
0
 10
350
 20
438
 11
335
 21
438
  0
LINE
  8
0
 10
335
 20
438
 11
335
 21
443
  0
LINE
  8
0
 10
335
 20
443
 11
320
 21
443
  0
LINE
  8
0
 10
320
 20
443
 11
320
 21
438
  0
LINE
  8
0
 10
320
 20
438
 11
305
 21
438
  0
LINE
  8
0
 10
305
 20
438
 11
305
 21
443
  0
LINE
  8
0
 10
305
 20
443
 11
290
 21
443
  0
LINE
  8
0
 10
290
 20
443
 11
290
 21
438
  0
LINE
  8
0
 10
290
 20
438
 11
275
 21
438
  0
LINE
  8
0
 10
275
 20
438
 11
275
 21
443
  0
LINE
  8
0
 10
275
 20
443
 11
260
 21
443
  0
LINE
  8
0
 10
260
 20
443
 11
260
 21
438
  0
LINE
  8
0
 10
260
 20
438
 11
245
 21
438
  0
LINE
  8
0
 10
245
 20
438
 11
245
 21
443
  0
LINE
  8
0
 10
245
 20
443
 11
230
 21
443
  0
LINE
  8
0
 10
230
 20
443
 11
230
 21
438
  0
LINE
  8
0
 10
230
 20
438
 11
215
 21
438
  0
LINE
  8
0
 10
215
 20
438
 11
215
 21
443
  0
LINE
  8
0
 10
215
 20
443
 11
200
 21
443
  0
LINE
  8
0
 10
200
 20
443
 11
200
 21
438
  0
LINE
  8
0
 10
200
 20
438
 11
175
 21
438
  0
LINE
  8
0
 10
175
 20
438
 11
175
 21
5
  0
LINE
  8
0
 10
175
 20
5
 11
200
 21
5
  0
LINE
  8
0
 10
200
 20
5
 11
200
 21
0
  0
LINE
  8
0
 10
200
 20
0
 11
215
 21
0
  0
LINE
  8
0
 10
215
 20
0
 11
215
 21
5
  0
LINE
  8
0
 10
360.9
 20
90
 11
360.9
 21
98.5
  0
LINE
  8
0
 10
360.9
 20
98.5
 11
368.4
 21
98.5
  0
LINE
  8
0
 10
368.4
 20
98.5
 11
368.4
 21
90
  0
LINE
  8
0
 10
368.4
 20
90
 11
360.9
 21
90
  0
LINE
  8
0
 10
555
 20
415
 11
537.5
 21
415
  0
LINE
  8
0
 10
537.5
 20
415
 11
517.5
 21
430
  0
LINE
  8
0
 10
517.5
 20
430
 11
422.5
 21
430
  0
LINE
  8
0
 10
422.5
 20
430
 11
402.5
 21
415
  0
LINE
  8
0
 10
402.5
 20
415
 11
385
 21
415
  0
LINE
  8
0
 10
385
 20
415
 11
385
 21
405
  0
LINE
  8
0
 10
385
 20
405
 11
390
 21
405
  0
LINE
  8
0
 10
390
 20
405
 11
390
 21
390
  0
LINE
  8
0
 10
390
 20
390
 11
385
 21
390
  0
LINE
  8
0
 10
385
 20
390
 11
385
 21
375
  0
LINE
  8
0
 10
385
 20
375
 11
390
 21
375
  0
LINE
  8
0
 10
390
 20
375
 11
390
 21
360
  0
LINE
  8
0
 10
390
 20
360
 11
385
 21
360
  0
LINE
  8
0
 10
385
 20
360
 11
385
 21
345
  0
LINE
  8
0
 10
385
 20
345
 11
390
 21
345
  0
LINE
  8
0
 10
390
 20
345
 11
390
 21
330
  0
LINE
  8
0
 10
390
 20
330
 11
385
 21
330
  0
LINE
  8
0
 10
385
 20
330
 11
385
 21
315
  0
LINE
  8
0
 10
385
 20
315
 11
390
 21
315
  0
LINE
  8
0
 10
390
 20
315
 11
390
 21
300
  0
LINE
  8
0
 10
390
 20
300
 11
385
 21
300
  0
LINE
  8
0
 10
385
 20
300
 11
385
 21
285
  0
LINE
  8
0
 10
385
 20
285
 11
390
 21
285
  0
LINE
  8
0
 10
390
 20
285
 11
390
 21
270
  0
LINE
  8
0
 10
390
 20
270
 11
385
 21
270
  0
LINE
  8
0
 10
385
 20
270
 11
385
 21
255
  0
LINE
  8
0
 10
385
 20
255
 11
390
 21
255
  0
LINE
  8
0
 10
390
 20
255
 11
390
 21
240
  0
LINE
  8
0
 10
390
 20
240
 11
385
 21
240
  0
LINE
  8
0
 10
385
 20
240
 11
385
 21
210
  0
LINE
  8
0
 10
385
 20
210
 11
402.5
 21
210
  0
LINE
  8
0
 10
402.5
 20
210
 11
422.5
 21
225
  0
LINE
  8
0
 10
422.5
 20
225
 11
430
 21
225
  0
LINE
  8
0
 10
430
 20
225
 11
430
 21
230
  0
LINE
  8
0
 10
430
 20
230
 11
445
 21
230
  0
LINE
  8
0
 10
445
 20
230
 11
445
 21
225
  0
LINE
  8
0
 10
445
 20
225
 11
460
 21
225
  0
LINE
  8
0
 10
460
 20
225
 11
460
 21
230
  0
LINE
  8
0
 10
460
 20
230
 11
475
 21
230
  0
LINE
  8
0
 10
475
 20
230
 11
475
 21
225
  0
LINE
  8
0
 10
475
 20
225
 11
490
 21
225
  0
LINE
  8
0
 10
490
 20
225
 11
490
 21
230
  0
LINE
  8
0
 10
490
 20
230
 11
505
 21
230
  0
LINE
  8
0
 10
505
 20
230
 11
505
 21
225
  0
LINE
  8
0
 10
505
 20
225
 11
517.5
 21
225
  0
LINE
  8
0
 10
517.5
 20
225
 11
537.5
 21
210
  0
LINE
  8
0
 10
537.5
 20
210
 11
555
 21
210
  0
LINE
  8
0
 10
555
 20
210
 11
555
 21
225
  0
LINE
  8
0
 10
555
 20
225
 11
550
 21
225
  0
LINE
  8
0
 10
550
 20
225
 11
550
 21
230
  0
LINE
  8
0
 10
550
 20
230
 11
555
 21
230
  0
LINE
  8
0
 10
555
 20
230
 11
555
 21
415
  0
LINE
  8
0
 10
529.942
 20
400.251
 11
529.827
 21
400.255
  0
LINE
  8
0
 10
529.827
 20
400.255
 11
529.713
 21
400.265
  0
LINE
  8
0
 10
529.713
 20
400.265
 11
529.598
 21
400.28
  0
LINE
  8
0
 10
529.598
 20
400.28
 11
529.485
 21
400.299
  0
LINE
  8
0
 10
529.485
 20
400.299
 11
529.372
 21
400.323
  0
LINE
  8
0
 10
529.372
 20
400.323
 11
529.26
 21
400.351
  0
LINE
  8
0
 10
529.26
 20
400.351
 11
529.15
 21
400.385
  0
LINE
  8
0
 10
529.15
 20
400.385
 11
529.041
 21
400.422
  0
LINE
  8
0
 10
529.041
 20
400.422
 11
528.934
 21
400.465
  0
LINE
  8
0
 10
528.934
 20
400.465
 11
528.829
 21
400.512
  0
LINE
  8
0
 10
528.829
 20
400.512
 11
528.726
 21
400.563
  0
LINE
  8
0
 10
528.726
 20
400.563
 11
528.625
 21
400.618
  0
LINE
  8
0
 10
528.625
 20
400.618
 11
528.526
 21
400.678
  0
LINE
  8
0
 10
528.526
 20
400.678
 11
528.431
 21
400.742
  0
LINE
  8
0
 10
528.431
 20
400.742
 11
528.337
 21
400.81
  0
LINE
  8
0
 10
528.337
 20
400.81
 11
528.247
 21
400.881
  0
LINE
  8
0
 10
528.247
 20
400.881
 11
528.16
 21
400.956
  0
LINE
  8
0
 10
528.16
 20
400.956
 11
528.076
 21
401.035
  0
LINE
  8
0
 10
528.076
 20
401.035
 11
527.995
 21
401.117
  0
LINE
  8
0
 10
527.995
 20
401.117
 11
527.918
 21
401.203
  0
LINE
  8
0
 10
527.918
 20
401.203
 11
527.845
 21
401.292
  0
LINE
  8
0
 10
527.845
 20
401.292
 11
527.775
 21
401.384
  0
LINE
  8
0
 10
527.775
 20
401.384
 11
527.709
 21
401.478
  0
LINE
  8
0
 10
527.709
 20
401.478
 11
527.648
 21
401.575
  0
LINE
  8
0
 10
527.648
 20
401.575
 11
527.59
 21
401.675
  0
LINE
  8
0
 10
527.59
 20
401.675
 11
527.537
 21
401.777
  0
LINE
  8
0
 10
527.537
 20
401.777
 11
527.488
 21
401.881
  0
LINE
  8
0
 10
527.488
 20
401.881
 11
527.443
 21
401.988
  0
LINE
  8
0
 10
527.443
 20
401.988
 11
527.403
 21
402.096
  0
LINE
  8
0
 10
527.403
 20
402.096
 11
527.367
 21
402.205
  0
LINE
  8
0
 10
527.367
 20
402.205
 11
527.336
 21
402.316
  0
LINE
  8
0
 10
527.336
 20
402.316
 11
527.31
 21
402.428
  0
LINE
  8
0
 10
527.31
 20
402.428
 11
527.289
 21
402.541
  0
LINE
  8
0
 10
527.289
 20
402.541
 11
527.272
 21
402.655
  0
LINE
  8
0
 10
527.272
 20
402.655
 11
527.26
 21
402.77
  0
LINE
  8
0
 10
527.26
 20
402.77
 11
527.252
 21
402.885
  0
LINE
  8
0
 10
527.252
 20
402.885
 11
527.25
 21
403
  0
LINE
  8
0
 10
527.25
 20
403
 11
527.252
 21
403.115
  0
LINE
  8
0
 10
527.252
 20
403.115
 11
527.26
 21
403.23
  0
LINE
  8
0
 10
527.26
 20
403.23
 11
527.272
 21
403.345
  0
LINE
  8
0
 10
527.272
 20
403.345
 11
527.289
 21
403.459
  0
LINE
  8
0
 10
527.289
 20
403.459
 11
527.31
 21
403.572
  0
LINE
  8
0
 10
527.31
 20
403.572
 11
527.336
 21
403.684
  0
LINE
  8
0
 10
527.336
 20
403.684
 11
527.367
 21
403.795
  0
LINE
  8
0
 10
527.367
 20
403.795
 11
527.403
 21
403.904
  0
LINE
  8
0
 10
527.403
 20
403.904
 11
527.443
 21
404.012
  0
LINE
  8
0
 10
527.443
 20
404.012
 11
527.488
 21
404.119
  0
LINE
  8
0
 10
527.488
 20
404.119
 11
527.537
 21
404.223
  0
LINE
  8
0
 10
527.537
 20
404.223
 11
527.59
 21
404.325
  0
LINE
  8
0
 10
527.59
 20
404.325
 11
527.648
 21
404.425
  0
LINE
  8
0
 10
527.648
 20
404.425
 11
527.709
 21
404.522
  0
LINE
  8
0
 10
527.709
 20
404.522
 11
527.775
 21
404.616
  0
LINE
  8
0
 10
527.775
 20
404.616
 11
527.845
 21
404.708
  0
LINE
  8
0
 10
527.845
 20
404.708
 11
527.918
 21
404.797
  0
LINE
  8
0
 10
527.918
 20
404.797
 11
527.995
 21
404.883
  0
LINE
  8
0
 10
527.995
 20
404.883
 11
528.076
 21
404.965
  0
LINE
  8
0
 10
528.076
 20
404.965
 11
528.16
 21
405.044
  0
LINE
  8
0
 10
528.16
 20
405.044
 11
528.247
 21
405.119
  0
LINE
  8
0
 10
528.247
 20
405.119
 11
528.337
 21
405.19
  0
LINE
  8
0
 10
528.337
 20
405.19
 11
528.431
 21
405.258
  0
LINE
  8
0
 10
528.431
 20
405.258
 11
528.526
 21
405.322
  0
LINE
  8
0
 10
528.526
 20
405.322
 11
528.625
 21
405.382
  0
LINE
  8
0
 10
528.625
 20
405.382
 11
528.726
 21
405.437
  0
LINE
  8
0
 10
528.726
 20
405.437
 11
528.829
 21
405.488
  0
LINE
  8
0
 10
528.829
 20
405.488
 11
528.934
 21
405.535
  0
LINE
  8
0
 10
528.934
 20
405.535
 11
529.041
 21
405.578
  0
LINE
  8
0
 10
529.041
 20
405.578
 11
529.15
 21
405.615
  0
LINE
  8
0
 10
529.15
 20
405.615
 11
529.26
 21
405.649
  0
LINE
  8
0
 10
529.26
 20
405.649
 11
529.372
 21
405.677
  0
LINE
  8
0
 10
529.372
 20
405.677
 11
529.485
 21
405.701
  0
LINE
  8
0
 10
529.485
 20
405.701
 11
529.598
 21
405.72
  0
LINE
  8
0
 10
529.598
 20
405.72
 11
529.713
 21
405.735
  0
LINE
  8
0
 10
529.713
 20
405.735
 11
529.827
 21
405.745
  0
LINE
  8
0
 10
529.827
 20
405.745
 11
529.942
 21
405.749
  0
LINE
  8
0
 10
529.942
 20
405.749
 11
530.058
 21
405.749
  0
LINE
  8
0
 10
530.058
 20
405.749
 11
530.173
 21
405.745
  0
LINE
  8
0
 10
530.173
 20
405.745
 11
530.287
 21
405.735
  0
LINE
  8
0
 10
530.287
 20
405.735
 11
530.402
 21
405.72
  0
LINE
  8
0
 10
530.402
 20
405.72
 11
530.515
 21
405.701
  0
LINE
  8
0
 10
530.515
 20
405.701
 11
530.628
 21
405.677
  0
LINE
  8
0
 10
530.628
 20
405.677
 11
530.74
 21
405.649
  0
LINE
  8
0
 10
530.74
 20
405.649
 11
530.85
 21
405.615
  0
LINE
  8
0
 10
530.85
 20
405.615
 11
530.959
 21
405.578
  0
LINE
  8
0
 10
530.959
 20
405.578
 11
531.066
 21
405.535
  0
LINE
  8
0
 10
531.066
 20
405.535
 11
531.171
 21
405.488
  0
LINE
  8
0
 10
531.171
 20
405.488
 11
531.274
 21
405.437
  0
LINE
  8
0
 10
531.274
 20
405.437
 11
531.375
 21
405.382
  0
LINE
  8
0
 10
531.375
 20
405.382
 11
531.474
 21
405.322
  0
LINE
  8
0
 10
531.474
 20
405.322
 11
531.569
 21
405.258
  0
LINE
  8
0
 10
531.569
 20
405.258
 11
531.663
 21
405.19
  0
LINE
  8
0
 10
531.663
 20
405.19
 11
531.753
 21
405.119
  0
LINE
  8
0
 10
531.753
 20
405.119
 11
531.84
 21
405.044
  0
LINE
  8
0
 10
531.84
 20
405.044
 11
531.924
 21
404.965
  0
LINE
  8
0
 10
531.924
 20
404.965
 11
532.005
 21
404.883
  0
LINE
  8
0
 10
532.005
 20
404.883
 11
532.082
 21
404.797
  0
LINE
  8
0
 10
532.082
 20
404.797
 11
532.155
 21
404.708
  0
LINE
  8
0
 10
532.155
 20
404.708
 11
532.225
 21
404.616
  0
LINE
  8
0
 10
532.225
 20
404.616
 11
532.291
 21
404.522
  0
LINE
  8
0
 10
532.291
 20
404.522
 11
532.352
 21
404.425
  0
LINE
  8
0
 10
532.352
 20
404.425
 11
532.41
 21
404.325
  0
LINE
  8
0
 10
532.41
 20
404.325
 11
532.463
 21
404.223
  0
LINE
  8
0
 10
532.463
 20
404.223
 11
532.512
 21
404.119
  0
LINE
  8
0
 10
532.512
 20
404.119
 11
532.557
 21
404.012
  0
LINE
  8
0
 10
532.557
 20
404.012
 11
532.597
 21
403.904
  0
LINE
  8
0
 10
532.597
 20
403.904
 11
532.633
 21
403.795
  0
LINE
  8
0
 10
532.633
 20
403.795
 11
532.664
 21
403.684
  0
LINE
  8
0
 10
532.664
 20
403.684
 11
532.69
 21
403.572
  0
LINE
  8
0
 10
532.69
 20
403.572
 11
532.711
 21
403.459
  0
LINE
  8
0
 10
532.711
 20
403.459
 11
532.728
 21
403.345
  0
LINE
  8
0
 10
532.728
 20
403.345
 11
532.74
 21
403.23
  0
LINE
  8
0
 10
532.74
 20
403.23
 11
532.748
 21
403.115
  0
LINE
  8
0
 10
532.748
 20
403.115
 11
532.75
 21
403
  0
LINE
  8
0
 10
532.75
 20
403
 11
532.748
 21
402.885
  0
LINE
  8
0
 10
532.748
 20
402.885
 11
532.74
 21
402.77
  0
LINE
  8
0
 10
532.74
 20
402.77
 11
532.728
 21
402.655
  0
LINE
  8
0
 10
532.728
 20
402.655
 11
532.711
 21
402.541
  0
LINE
  8
0
 10
532.711
 20
402.541
 11
532.69
 21
402.428
  0
LINE
  8
0
 10
532.69
 20
402.428
 11
532.664
 21
402.316
  0
LINE
  8
0
 10
532.664
 20
402.316
 11
532.633
 21
402.205
  0
LINE
  8
0
 10
532.633
 20
402.205
 11
532.597
 21
402.096
  0
LINE
  8
0
 10
532.597
 20
402.096
 11
532.557
 21
401.988
  0
LINE
  8
0
 10
532.557
 20
401.988
 11
532.512
 21
401.881
  0
LINE
  8
0
 10
532.512
 20
401.881
 11
532.463
 21
401.777
  0
LINE
  8
0
 10
532.463
 20
401.777
 11
532.41
 21
401.675
  0
LINE
  8
0
 10
532.41
 20
401.675
 11
532.352
 21
401.575
  0
LINE
  8
0
 10
532.352
 20
401.575
 11
532.291
 21
401.478
  0
LINE
  8
0
 10
532.291
 20
401.478
 11
532.225
 21
401.384
  0
LINE
  8
0
 10
532.225
 20
401.384
 11
532.155
 21
401.292
  0
LINE
  8
0
 10
532.155
 20
401.292
 11
532.082
 21
401.203
  0
LINE
  8
0
 10
532.082
 20
401.203
 11
532.005
 21
401.117
  0
LINE
  8
0
 10
532.005
 20
401.117
 11
531.924
 21
401.035
  0
LINE
  8
0
 10
531.924
 20
401.035
 11
531.84
 21
400.956
  0
LINE
  8
0
 10
531.84
 20
400.956
 11
531.753
 21
400.881
  0
LINE
  8
0
 10
531.753
 20
400.881
 11
531.663
 21
400.81
  0
LINE
  8
0
 10
531.663
 20
400.81
 11
531.569
 21
400.742
  0
LINE
  8
0
 10
531.569
 20
400.742
 11
531.474
 21
400.678
  0
LINE
  8
0
 10
531.474
 20
400.678
 11
531.375
 21
400.618
  0
LINE
  8
0
 10
531.375
 20
400.618
 11
531.274
 21
400.563
  0
LINE
  8
0
 10
531.274
 20
400.563
 11
531.171
 21
400.512
  0
LINE
  8
0
 10
531.171
 20
400.512
 11
531.066
 21
400.465
  0
LINE
  8
0
 10
531.066
 20
400.465
 11
530.959
 21
400.422
  0
LINE
  8
0
 10
530.959
 20
400.422
 11
530.85
 21
400.385
  0
LINE
  8
0
 10
530.85
 20
400.385
 11
530.74
 21
400.351
  0
LINE
  8
0
 10
530.74
 20
400.351
 11
530.628
 21
400.323
  0
LINE
  8
0
 10
530.628
 20
400.323
 11
530.515
 21
400.299
  0
LINE
  8
0
 10
530.515
 20
400.299
 11
530.402
 21
400.28
  0
LINE
  8
0
 10
530.402
 20
400.28
 11
530.287
 21
400.265
  0
LINE
  8
0
 10
530.287
 20
400.265
 11
530.173
 21
400.255
  0
LINE
  8
0
 10
530.173
 20
400.255
 11
530.058
 21
400.251
  0
LINE
  8
0
 10
530.058
 20
400.251
 11
529.942
 21
400.251
  0
LINE
  8
0
 10
529.942
 20
354.751
 11
529.827
 21
354.755
  0
LINE
  8
0
 10
529.827
 20
354.755
 11
529.713
 21
354.765
  0
LINE
  8
0
 10
529.713
 20
354.765
 11
529.598
 21
354.78
  0
LINE
  8
0
 10
529.598
 20
354.78
 11
529.485
 21
354.799
  0
LINE
  8
0
 10
529.485
 20
354.799
 11
529.372
 21
354.823
  0
LINE
  8
0
 10
529.372
 20
354.823
 11
529.26
 21
354.851
  0
LINE
  8
0
 10
529.26
 20
354.851
 11
529.15
 21
354.885
  0
LINE
  8
0
 10
529.15
 20
354.885
 11
529.041
 21
354.922
  0
LINE
  8
0
 10
529.041
 20
354.922
 11
528.934
 21
354.965
  0
LINE
  8
0
 10
528.934
 20
354.965
 11
528.829
 21
355.012
  0
LINE
  8
0
 10
528.829
 20
355.012
 11
528.726
 21
355.063
  0
LINE
  8
0
 10
528.726
 20
355.063
 11
528.625
 21
355.118
  0
LINE
  8
0
 10
528.625
 20
355.118
 11
528.526
 21
355.178
  0
LINE
  8
0
 10
528.526
 20
355.178
 11
528.431
 21
355.242
  0
LINE
  8
0
 10
528.431
 20
355.242
 11
528.337
 21
355.31
  0
LINE
  8
0
 10
528.337
 20
355.31
 11
528.247
 21
355.381
  0
LINE
  8
0
 10
528.247
 20
355.381
 11
528.16
 21
355.456
  0
LINE
  8
0
 10
528.16
 20
355.456
 11
528.076
 21
355.535
  0
LINE
  8
0
 10
528.076
 20
355.535
 11
527.995
 21
355.617
  0
LINE
  8
0
 10
527.995
 20
355.617
 11
527.918
 21
355.703
  0
LINE
  8
0
 10
527.918
 20
355.703
 11
527.845
 21
355.792
  0
LINE
  8
0
 10
527.845
 20
355.792
 11
527.775
 21
355.884
  0
LINE
  8
0
 10
527.775
 20
355.884
 11
527.709
 21
355.978
  0
LINE
  8
0
 10
527.709
 20
355.978
 11
527.648
 21
356.075
  0
LINE
  8
0
 10
527.648
 20
356.075
 11
527.59
 21
356.175
  0
LINE
  8
0
 10
527.59
 20
356.175
 11
527.537
 21
356.277
  0
LINE
  8
0
 10
527.537
 20
356.277
 11
527.488
 21
356.381
  0
LINE
  8
0
 10
527.488
 20
356.381
 11
527.443
 21
356.488
  0
LINE
  8
0
 10
527.443
 20
356.488
 11
527.403
 21
356.596
  0
LINE
  8
0
 10
527.403
 20
356.596
 11
527.367
 21
356.705
  0
LINE
  8
0
 10
527.367
 20
356.705
 11
527.336
 21
356.816
  0
LINE
  8
0
 10
527.336
 20
356.816
 11
527.31
 21
356.928
  0
LINE
  8
0
 10
527.31
 20
356.928
 11
527.289
 21
357.041
  0
LINE
  8
0
 10
527.289
 20
357.041
 11
527.272
 21
357.155
  0
LINE
  8
0
 10
527.272
 20
357.155
 11
527.26
 21
357.27
  0
LINE
  8
0
 10
527.26
 20
357.27
 11
527.252
 21
357.385
  0
LINE
  8
0
 10
527.252
 20
357.385
 11
527.25
 21
357.5
  0
LINE
  8
0
 10
527.25
 20
357.5
 11
527.252
 21
357.615
  0
LINE
  8
0
 10
527.252
 20
357.615
 11
527.26
 21
357.73
  0
LINE
  8
0
 10
527.26
 20
357.73
 11
527.272
 21
357.845
  0
LINE
  8
0
 10
527.272
 20
357.845
 11
527.289
 21
357.959
  0
LINE
  8
0
 10
527.289
 20
357.959
 11
527.31
 21
358.072
  0
LINE
  8
0
 10
527.31
 20
358.072
 11
527.336
 21
358.184
  0
LINE
  8
0
 10
527.336
 20
358.184
 11
527.367
 21
358.295
  0
LINE
  8
0
 10
527.367
 20
358.295
 11
527.403
 21
358.404
  0
LINE
  8
0
 10
527.403
 20
358.404
 11
527.443
 21
358.512
  0
LINE
  8
0
 10
527.443
 20
358.512
 11
527.488
 21
358.619
  0
LINE
  8
0
 10
527.488
 20
358.619
 11
527.537
 21
358.723
  0
LINE
  8
0
 10
527.537
 20
358.723
 11
527.59
 21
358.825
  0
LINE
  8
0
 10
527.59
 20
358.825
 11
527.648
 21
358.925
  0
LINE
  8
0
 10
527.648
 20
358.925
 11
527.709
 21
359.022
  0
LINE
  8
0
 10
527.709
 20
359.022
 11
527.775
 21
359.116
  0
LINE
  8
0
 10
527.775
 20
359.116
 11
527.845
 21
359.208
  0
LINE
  8
0
 10
527.845
 20
359.208
 11
527.918
 21
359.297
  0
LINE
  8
0
 10
527.918
 20
359.297
 11
527.995
 21
359.383
  0
LINE
  8
0
 10
527.995
 20
359.383
 11
528.076
 21
359.465
  0
LINE
  8
0
 10
528.076
 20
359.465
 11
528.16
 21
359.544
  0
LINE
  8
0
 10
528.16
 20
359.544
 11
528.247
 21
359.619
  0
LINE
  8
0
 10
528.247
 20
359.619
 11
528.337
 21
359.69
  0
LINE
  8
0
 10
528.337
 20
359.69
 11
528.431
 21
359.758
  0
LINE
  8
0
 10
528.431
 20
359.758
 11
528.526
 21
359.822
  0
LINE
  8
0
 10
528.526
 20
359.822
 11
528.625
 21
359.882
  0
LINE
  8
0
 10
528.625
 20
359.882
 11
528.726
 21
359.937
  0
LINE
  8
0
 10
528.726
 20
359.937
 11
528.829
 21
359.988
  0
LINE
  8
0
 10
528.829
 20
359.988
 11
528.934
 21
360.035
  0
LINE
  8
0
 10
528.934
 20
360.035
 11
529.041
 21
360.078
  0
LINE
  8
0
 10
529.041
 20
360.078
 11
529.15
 21
360.115
  0
LINE
  8
0
 10
529.15
 20
360.115
 11
529.26
 21
360.149
  0
LINE
  8
0
 10
529.26
 20
360.149
 11
529.372
 21
360.177
  0
LINE
  8
0
 10
529.372
 20
360.177
 11
529.485
 21
360.201
  0
LINE
  8
0
 10
529.485
 20
360.201
 11
529.598
 21
360.22
  0
LINE
  8
0
 10
529.598
 20
360.22
 11
529.713
 21
360.235
  0
LINE
  8
0
 10
529.713
 20
360.235
 11
529.827
 21
360.245
  0
LINE
  8
0
 10
529.827
 20
360.245
 11
529.942
 21
360.249
  0
LINE
  8
0
 10
529.942
 20
360.249
 11
530.058
 21
360.249
  0
LINE
  8
0
 10
530.058
 20
360.249
 11
530.173
 21
360.245
  0
LINE
  8
0
 10
530.173
 20
360.245
 11
530.287
 21
360.235
  0
LINE
  8
0
 10
530.287
 20
360.235
 11
530.402
 21
360.22
  0
LINE
  8
0
 10
530.402
 20
360.22
 11
530.515
 21
360.201
  0
LINE
  8
0
 10
530.515
 20
360.201
 11
530.628
 21
360.177
  0
LINE
  8
0
 10
530.628
 20
360.177
 11
530.74
 21
360.149
  0
LINE
  8
0
 10
530.74
 20
360.149
 11
530.85
 21
360.115
  0
LINE
  8
0
 10
530.85
 20
360.115
 11
530.959
 21
360.078
  0
LINE
  8
0
 10
530.959
 20
360.078
 11
531.066
 21
360.035
  0
LINE
  8
0
 10
531.066
 20
360.035
 11
531.171
 21
359.988
  0
LINE
  8
0
 10
531.171
 20
359.988
 11
531.274
 21
359.937
  0
LINE
  8
0
 10
531.274
 20
359.937
 11
531.375
 21
359.882
  0
LINE
  8
0
 10
531.375
 20
359.882
 11
531.474
 21
359.822
  0
LINE
  8
0
 10
531.474
 20
359.822
 11
531.569
 21
359.758
  0
LINE
  8
0
 10
531.569
 20
359.758
 11
531.663
 21
359.69
  0
LINE
  8
0
 10
531.663
 20
359.69
 11
531.753
 21
359.619
  0
LINE
  8
0
 10
531.753
 20
359.619
 11
531.84
 21
359.544
  0
LINE
  8
0
 10
531.84
 20
359.544
 11
531.924
 21
359.465
  0
LINE
  8
0
 10
531.924
 20
359.465
 11
532.005
 21
359.383
  0
LINE
  8
0
 10
532.005
 20
359.383
 11
532.082
 21
359.297
  0
LINE
  8
0
 10
532.082
 20
359.297
 11
532.155
 21
359.208
  0
LINE
  8
0
 10
532.155
 20
359.208
 11
532.225
 21
359.116
  0
LINE
  8
0
 10
532.225
 20
359.116
 11
532.291
 21
359.022
  0
LINE
  8
0
 10
532.291
 20
359.022
 11
532.352
 21
358.925
  0
LINE
  8
0
 10
532.352
 20
358.925
 11
532.41
 21
358.825
  0
LINE
  8
0
 10
532.41
 20
358.825
 11
532.463
 21
358.723
  0
LINE
  8
0
 10
532.463
 20
358.723
 11
532.512
 21
358.619
  0
LINE
  8
0
 10
532.512
 20
358.619
 11
532.557
 21
358.512
  0
LINE
  8
0
 10
532.557
 20
358.512
 11
532.597
 21
358.404
  0
LINE
  8
0
 10
532.597
 20
358.404
 11
532.633
 21
358.295
  0
LINE
  8
0
 10
532.633
 20
358.295
 11
532.664
 21
358.184
  0
LINE
  8
0
 10
532.664
 20
358.184
 11
532.69
 21
358.072
  0
LINE
  8
0
 10
532.69
 20
358.072
 11
532.711
 21
357.959
  0
LINE
  8
0
 10
532.711
 20
357.959
 11
532.728
 21
357.845
  0
LINE
  8
0
 10
532.728
 20
357.845
 11
532.74
 21
357.73
  0
LINE
  8
0
 10
532.74
 20
357.73
 11
532.748
 21
357.615
  0
LINE
  8
0
 10
532.748
 20
357.615
 11
532.75
 21
357.5
  0
LINE
  8
0
 10
532.75
 20
357.5
 11
532.748
 21
357.385
  0
LINE
  8
0
 10
532.748
 20
357.385
 11
532.74
 21
357.27
  0
LINE
  8
0
 10
532.74
 20
357.27
 11
532.728
 21
357.155
  0
LINE
  8
0
 10
532.728
 20
357.155
 11
532.711
 21
357.041
  0
LINE
  8
0
 10
532.711
 20
357.041
 11
532.69
 21
356.928
  0
LINE
  8
0
 10
532.69
 20
356.928
 11
532.664
 21
356.816
  0
LINE
  8
0
 10
532.664
 20
356.816
 11
532.633
 21
356.705
  0
LINE
  8
0
 10
532.633
 20
356.705
 11
532.597
 21
356.596
  0
LINE
  8
0
 10
532.597
 20
356.596
 11
532.557
 21
356.488
  0
LINE
  8
0
 10
532.557
 20
356.488
 11
532.512
 21
356.381
  0
LINE
  8
0
 10
532.512
 20
356.381
 11
532.463
 21
356.277
  0
LINE
  8
0
 10
532.463
 20
356.277
 11
532.41
 21
356.175
  0
LINE
  8
0
 10
532.41
 20
356.175
 11
532.352
 21
356.075
  0
LINE
  8
0
 10
532.352
 20
356.075
 11
532.291
 21
355.978
  0
LINE
  8
0
 10
532.291
 20
355.978
 11
532.225
 21
355.884
  0
LINE
  8
0
 10
532.225
 20
355.884
 11
532.155
 21
355.792
  0
LINE
  8
0
 10
532.155
 20
355.792
 11
532.082
 21
355.703
  0
LINE
  8
0
 10
532.082
 20
355.703
 11
532.005
 21
355.617
  0
LINE
  8
0
 10
532.005
 20
355.617
 11
531.924
 21
355.535
  0
LINE
  8
0
 10
531.924
 20
355.535
 11
531.84
 21
355.456
  0
LINE
  8
0
 10
531.84
 20
355.456
 11
531.753
 21
355.381
  0
LINE
  8
0
 10
531.753
 20
355.381
 11
531.663
 21
355.31
  0
LINE
  8
0
 10
531.663
 20
355.31
 11
531.569
 21
355.242
  0
LINE
  8
0
 10
531.569
 20
355.242
 11
531.474
 21
355.178
  0
LINE
  8
0
 10
531.474
 20
355.178
 11
531.375
 21
355.118
  0
LINE
  8
0
 10
531.375
 20
355.118
 11
531.274
 21
355.063
  0
LINE
  8
0
 10
531.274
 20
355.063
 11
531.171
 21
355.012
  0
LINE
  8
0
 10
531.171
 20
355.012
 11
531.066
 21
354.965
  0
LINE
  8
0
 10
531.066
 20
354.965
 11
530.959
 21
354.922
  0
LINE
  8
0
 10
530.959
 20
354.922
 11
530.85
 21
354.885
  0
LINE
  8
0
 10
530.85
 20
354.885
 11
530.74
 21
354.851
  0
LINE
  8
0
 10
530.74
 20
354.851
 11
530.628
 21
354.823
  0
LINE
  8
0
 10
530.628
 20
354.823
 11
530.515
 21
354.799
  0
LINE
  8
0
 10
530.515
 20
354.799
 11
530.402
 21
354.78
  0
LINE
  8
0
 10
530.402
 20
354.78
 11
530.287
 21
354.765
  0
LINE
  8
0
 10
530.287
 20
354.765
 11
530.173
 21
354.755
  0
LINE
  8
0
 10
530.173
 20
354.755
 11
530.058
 21
354.751
  0
LINE
  8
0
 10
530.058
 20
354.751
 11
529.942
 21
354.751
  0
LINE
  8
0
 10
529.942
 20
233.251
 11
529.827
 21
233.255
  0
LINE
  8
0
 10
529.827
 20
233.255
 11
529.713
 21
233.265
  0
LINE
  8
0
 10
529.713
 20
233.265
 11
529.598
 21
233.279
  0
LINE
  8
0
 10
529.598
 20
233.279
 11
529.485
 21
233.299
  0
LINE
  8
0
 10
529.485
 20
233.299
 11
529.372
 21
233.323
  0
LINE
  8
0
 10
529.372
 20
233.323
 11
529.26
 21
233.351
  0
LINE
  8
0
 10
529.26
 20
233.351
 11
529.15
 21
233.385
  0
LINE
  8
0
 10
529.15
 20
233.385
 11
529.041
 21
233.422
  0
LINE
  8
0
 10
529.041
 20
233.422
 11
528.934
 21
233.465
  0
LINE
  8
0
 10
528.934
 20
233.465
 11
528.829
 21
233.512
  0
LINE
  8
0
 10
528.829
 20
233.512
 11
528.726
 21
233.563
  0
LINE
  8
0
 10
528.726
 20
233.563
 11
528.625
 21
233.618
  0
LINE
  8
0
 10
528.625
 20
233.618
 11
528.526
 21
233.678
  0
LINE
  8
0
 10
528.526
 20
233.678
 11
528.431
 21
233.742
  0
LINE
  8
0
 10
528.431
 20
233.742
 11
528.337
 21
233.81
  0
LINE
  8
0
 10
528.337
 20
233.81
 11
528.247
 21
233.881
  0
LINE
  8
0
 10
528.247
 20
233.881
 11
528.16
 21
233.956
  0
LINE
  8
0
 10
528.16
 20
233.956
 11
528.076
 21
234.035
  0
LINE
  8
0
 10
528.076
 20
234.035
 11
527.995
 21
234.117
  0
LINE
  8
0
 10
527.995
 20
234.117
 11
527.918
 21
234.203
  0
LINE
  8
0
 10
527.918
 20
234.203
 11
527.845
 21
234.292
  0
LINE
  8
0
 10
527.845
 20
234.292
 11
527.775
 21
234.384
  0
LINE
  8
0
 10
527.775
 20
234.384
 11
527.709
 21
234.478
  0
LINE
  8
0
 10
527.709
 20
234.478
 11
527.648
 21
234.575
  0
LINE
  8
0
 10
527.648
 20
234.575
 11
527.59
 21
234.675
  0
LINE
  8
0
 10
527.59
 20
234.675
 11
527.537
 21
234.777
  0
LINE
  8
0
 10
527.537
 20
234.777
 11
527.488
 21
234.881
  0
LINE
  8
0
 10
527.488
 20
234.881
 11
527.443
 21
234.988
  0
LINE
  8
0
 10
527.443
 20
234.988
 11
527.403
 21
235.096
  0
LINE
  8
0
 10
527.403
 20
235.096
 11
527.367
 21
235.205
  0
LINE
  8
0
 10
527.367
 20
235.205
 11
527.336
 21
235.316
  0
LINE
  8
0
 10
527.336
 20
235.316
 11
527.31
 21
235.428
  0
LINE
  8
0
 10
527.31
 20
235.428
 11
527.289
 21
235.541
  0
LINE
  8
0
 10
527.289
 20
235.541
 11
527.272
 21
235.655
  0
LINE
  8
0
 10
527.272
 20
235.655
 11
527.26
 21
235.77
  0
LINE
  8
0
 10
527.26
 20
235.77
 11
527.252
 21
235.885
  0
LINE
  8
0
 10
527.252
 20
235.885
 11
527.25
 21
236
  0
LINE
  8
0
 10
527.25
 20
236
 11
527.252
 21
236.115
  0
LINE
  8
0
 10
527.252
 20
236.115
 11
527.26
 21
236.23
  0
LINE
  8
0
 10
527.26
 20
236.23
 11
527.272
 21
236.345
  0
LINE
  8
0
 10
527.272
 20
236.345
 11
527.289
 21
236.459
  0
LINE
  8
0
 10
527.289
 20
236.459
 11
527.31
 21
236.572
  0
LINE
  8
0
 10
527.31
 20
236.572
 11
527.336
 21
236.684
  0
LINE
  8
0
 10
527.336
 20
236.684
 11
527.367
 21
236.795
  0
LINE
  8
0
 10
527.367
 20
236.795
 11
527.403
 21
236.904
  0
LINE
  8
0
 10
527.403
 20
236.904
 11
527.443
 21
237.012
  0
LINE
  8
0
 10
527.443
 20
237.012
 11
527.488
 21
237.119
  0
LINE
  8
0
 10
527.488
 20
237.119
 11
527.537
 21
237.223
  0
LINE
  8
0
 10
527.537
 20
237.223
 11
527.59
 21
237.325
  0
LINE
  8
0
 10
527.59
 20
237.325
 11
527.648
 21
237.425
  0
LINE
  8
0
 10
527.648
 20
237.425
 11
527.709
 21
237.522
  0
LINE
  8
0
 10
527.709
 20
237.522
 11
527.775
 21
237.616
  0
LINE
  8
0
 10
527.775
 20
237.616
 11
527.845
 21
237.708
  0
LINE
  8
0
 10
527.845
 20
237.708
 11
527.918
 21
237.797
  0
LINE
  8
0
 10
527.918
 20
237.797
 11
527.995
 21
237.883
  0
LINE
  8
0
 10
527.995
 20
237.883
 11
528.076
 21
237.965
  0
LINE
  8
0
 10
528.076
 20
237.965
 11
528.16
 21
238.044
  0
LINE
  8
0
 10
528.16
 20
238.044
 11
528.247
 21
238.119
  0
LINE
  8
0
 10
528.247
 20
238.119
 11
528.337
 21
238.19
  0
LINE
  8
0
 10
528.337
 20
238.19
 11
528.431
 21
238.258
  0
LINE
  8
0
 10
528.431
 20
238.258
 11
528.526
 21
238.322
  0
LINE
  8
0
 10
528.526
 20
238.322
 11
528.625
 21
238.382
  0
LINE
  8
0
 10
528.625
 20
238.382
 11
528.726
 21
238.437
  0
LINE
  8
0
 10
528.726
 20
238.437
 11
528.829
 21
238.488
  0
LINE
  8
0
 10
528.829
 20
238.488
 11
528.934
 21
238.535
  0
LINE
  8
0
 10
528.934
 20
238.535
 11
529.041
 21
238.578
  0
LINE
  8
0
 10
529.041
 20
238.578
 11
529.15
 21
238.615
  0
LINE
  8
0
 10
529.15
 20
238.615
 11
529.26
 21
238.649
  0
LINE
  8
0
 10
529.26
 20
238.649
 11
529.372
 21
238.677
  0
LINE
  8
0
 10
529.372
 20
238.677
 11
529.485
 21
238.701
  0
LINE
  8
0
 10
529.485
 20
238.701
 11
529.598
 21
238.721
  0
LINE
  8
0
 10
529.598
 20
238.721
 11
529.713
 21
238.735
  0
LINE
  8
0
 10
529.713
 20
238.735
 11
529.827
 21
238.745
  0
LINE
  8
0
 10
529.827
 20
238.745
 11
529.942
 21
238.749
  0
LINE
  8
0
 10
529.942
 20
238.749
 11
530.058
 21
238.749
  0
LINE
  8
0
 10
530.058
 20
238.749
 11
530.173
 21
238.745
  0
LINE
  8
0
 10
530.173
 20
238.745
 11
530.287
 21
238.735
  0
LINE
  8
0
 10
530.287
 20
238.735
 11
530.402
 21
238.721
  0
LINE
  8
0
 10
530.402
 20
238.721
 11
530.515
 21
238.701
  0
LINE
  8
0
 10
530.515
 20
238.701
 11
530.628
 21
238.677
  0
LINE
  8
0
 10
530.628
 20
238.677
 11
530.74
 21
238.649
  0
LINE
  8
0
 10
530.74
 20
238.649
 11
530.85
 21
238.615
  0
LINE
  8
0
 10
530.85
 20
238.615
 11
530.959
 21
238.578
  0
LINE
  8
0
 10
530.959
 20
238.578
 11
531.066
 21
238.535
  0
LINE
  8
0
 10
531.066
 20
238.535
 11
531.171
 21
238.488
  0
LINE
  8
0
 10
531.171
 20
238.488
 11
531.274
 21
238.437
  0
LINE
  8
0
 10
531.274
 20
238.437
 11
531.375
 21
238.382
  0
LINE
  8
0
 10
531.375
 20
238.382
 11
531.474
 21
238.322
  0
LINE
  8
0
 10
531.474
 20
238.322
 11
531.569
 21
238.258
  0
LINE
  8
0
 10
531.569
 20
238.258
 11
531.663
 21
238.19
  0
LINE
  8
0
 10
531.663
 20
238.19
 11
531.753
 21
238.119
  0
LINE
  8
0
 10
531.753
 20
238.119
 11
531.84
 21
238.044
  0
LINE
  8
0
 10
531.84
 20
238.044
 11
531.924
 21
237.965
  0
LINE
  8
0
 10
531.924
 20
237.965
 11
532.005
 21
237.883
  0
LINE
  8
0
 10
532.005
 20
237.883
 11
532.082
 21
237.797
  0
LINE
  8
0
 10
532.082
 20
237.797
 11
532.155
 21
237.708
  0
LINE
  8
0
 10
532.155
 20
237.708
 11
532.225
 21
237.616
  0
LINE
  8
0
 10
532.225
 20
237.616
 11
532.291
 21
237.522
  0
LINE
  8
0
 10
532.291
 20
237.522
 11
532.352
 21
237.425
  0
LINE
  8
0
 10
532.352
 20
237.425
 11
532.41
 21
237.325
  0
LINE
  8
0
 10
532.41
 20
237.325
 11
532.463
 21
237.223
  0
LINE
  8
0
 10
532.463
 20
237.223
 11
532.512
 21
237.119
  0
LINE
  8
0
 10
532.512
 20
237.119
 11
532.557
 21
237.012
  0
LINE
  8
0
 10
532.557
 20
237.012
 11
532.597
 21
236.904
  0
LINE
  8
0
 10
532.597
 20
236.904
 11
532.633
 21
236.795
  0
LINE
  8
0
 10
532.633
 20
236.795
 11
532.664
 21
236.684
  0
LINE
  8
0
 10
532.664
 20
236.684
 11
532.69
 21
236.572
  0
LINE
  8
0
 10
532.69
 20
236.572
 11
532.711
 21
236.459
  0
LINE
  8
0
 10
532.711
 20
236.459
 11
532.728
 21
236.345
  0
LINE
  8
0
 10
532.728
 20
236.345
 11
532.74
 21
236.23
  0
LINE
  8
0
 10
532.74
 20
236.23
 11
532.748
 21
236.115
  0
LINE
  8
0
 10
532.748
 20
236.115
 11
532.75
 21
236
  0
LINE
  8
0
 10
532.75
 20
236
 11
532.748
 21
235.885
  0
LINE
  8
0
 10
532.748
 20
235.885
 11
532.74
 21
235.77
  0
LINE
  8
0
 10
532.74
 20
235.77
 11
532.728
 21
235.655
  0
LINE
  8
0
 10
532.728
 20
235.655
 11
532.711
 21
235.541
  0
LINE
  8
0
 10
532.711
 20
235.541
 11
532.69
 21
235.428
  0
LINE
  8
0
 10
532.69
 20
235.428
 11
532.664
 21
235.316
  0
LINE
  8
0
 10
532.664
 20
235.316
 11
532.633
 21
235.205
  0
LINE
  8
0
 10
532.633
 20
235.205
 11
532.597
 21
235.096
  0
LINE
  8
0
 10
532.597
 20
235.096
 11
532.557
 21
234.988
  0
LINE
  8
0
 10
532.557
 20
234.988
 11
532.512
 21
234.881
  0
LINE
  8
0
 10
532.512
 20
234.881
 11
532.463
 21
234.777
  0
LINE
  8
0
 10
532.463
 20
234.777
 11
532.41
 21
234.675
  0
LINE
  8
0
 10
532.41
 20
234.675
 11
532.352
 21
234.575
  0
LINE
  8
0
 10
532.352
 20
234.575
 11
532.291
 21
234.478
  0
LINE
  8
0
 10
532.291
 20
234.478
 11
532.225
 21
234.384
  0
LINE
  8
0
 10
532.225
 20
234.384
 11
532.155
 21
234.292
  0
LINE
  8
0
 10
532.155
 20
234.292
 11
532.082
 21
234.203
  0
LINE
  8
0
 10
532.082
 20
234.203
 11
532.005
 21
234.117
  0
LINE
  8
0
 10
532.005
 20
234.117
 11
531.924
 21
234.035
  0
LINE
  8
0
 10
531.924
 20
234.035
 11
531.84
 21
233.956
  0
LINE
  8
0
 10
531.84
 20
233.956
 11
531.753
 21
233.881
  0
LINE
  8
0
 10
531.753
 20
233.881
 11
531.663
 21
233.81
  0
LINE
  8
0
 10
531.663
 20
233.81
 11
531.569
 21
233.742
  0
LINE
  8
0
 10
531.569
 20
233.742
 11
531.474
 21
233.678
  0
LINE
  8
0
 10
531.474
 20
233.678
 11
531.375
 21
233.618
  0
LINE
  8
0
 10
531.375
 20
233.618
 11
531.274
 21
233.563
  0
LINE
  8
0
 10
531.274
 20
233.563
 11
531.171
 21
233.512
  0
LINE
  8
0
 10
531.171
 20
233.512
 11
531.066
 21
233.465
  0
LINE
  8
0
 10
531.066
 20
233.465
 11
530.959
 21
233.422
  0
LINE
  8
0
 10
530.959
 20
233.422
 11
530.85
 21
233.385
  0
LINE
  8
0
 10
530.85
 20
233.385
 11
530.74
 21
233.351
  0
LINE
  8
0
 10
530.74
 20
233.351
 11
530.628
 21
233.323
  0
LINE
  8
0
 10
530.628
 20
233.323
 11
530.515
 21
233.299
  0
LINE
  8
0
 10
530.515
 20
233.299
 11
530.402
 21
233.279
  0
LINE
  8
0
 10
530.402
 20
233.279
 11
530.287
 21
233.265
  0
LINE
  8
0
 10
530.287
 20
233.265
 11
530.173
 21
233.255
  0
LINE
  8
0
 10
530.173
 20
233.255
 11
530.058
 21
233.251
  0
LINE
  8
0
 10
530.058
 20
233.251
 11
529.942
 21
233.251
  0
LINE
  8
0
 10
400
 20
225
 11
400
 21
230
  0
LINE
  8
0
 10
400
 20
230
 11
415
 21
230
  0
LINE
  8
0
 10
415
 20
230
 11
415
 21
225
  0
LINE
  8
0
 10
415
 20
225
 11
400
 21
225
  0
LINE
  8
0
 10
520
 20
225
 11
520
 21
230
  0
LINE
  8
0
 10
520
 20
230
 11
535
 21
230
  0
LINE
  8
0
 10
535
 20
230
 11
535
 21
225
  0
LINE
  8
0
 10
535
 20
225
 11
520
 21
225
  0
LINE
  8
0
 10
555
 20
200
 11
537.5
 21
200
  0
LINE
  8
0
 10
537.5
 20
200
 11
517.5
 21
215
  0
LINE
  8
0
 10
517.5
 20
215
 11
422.5
 21
215
  0
LINE
  8
0
 10
422.5
 20
215
 11
402.5
 21
200
  0
LINE
  8
0
 10
402.5
 20
200
 11
385
 21
200
  0
LINE
  8
0
 10
385
 20
200
 11
385
 21
190
  0
LINE
  8
0
 10
385
 20
190
 11
390
 21
190
  0
LINE
  8
0
 10
390
 20
190
 11
390
 21
175
  0
LINE
  8
0
 10
390
 20
175
 11
385
 21
175
  0
LINE
  8
0
 10
385
 20
175
 11
385
 21
160
  0
LINE
  8
0
 10
385
 20
160
 11
390
 21
160
  0
LINE
  8
0
 10
390
 20
160
 11
390
 21
145
  0
LINE
  8
0
 10
390
 20
145
 11
385
 21
145
  0
LINE
  8
0
 10
385
 20
145
 11
385
 21
130
  0
LINE
  8
0
 10
385
 20
130
 11
390
 21
130
  0
LINE
  8
0
 10
390
 20
130
 11
390
 21
115
  0
LINE
  8
0
 10
390
 20
115
 11
385
 21
115
  0
LINE
  8
0
 10
385
 20
115
 11
385
 21
100
  0
LINE
  8
0
 10
385
 20
100
 11
390
 21
100
  0
LINE
  8
0
 10
390
 20
100
 11
390
 21
85
  0
LINE
  8
0
 10
390
 20
85
 11
385
 21
85
  0
LINE
  8
0
 10
385
 20
85
 11
385
 21
70
  0
LINE
  8
0
 10
385
 20
70
 11
390
 21
70
  0
LINE
  8
0
 10
390
 20
70
 11
390
 21
55
  0
LINE
  8
0
 10
390
 20
55
 11
385
 21
55
  0
LINE
  8
0
 10
385
 20
55
 11
385
 21
40
  0
LINE
  8
0
 10
385
 20
40
 11
390
 21
40
  0
LINE
  8
0
 10
390
 20
40
 11
390
 21
25
  0
LINE
  8
0
 10
390
 20
25
 11
385
 21
25
  0
LINE
  8
0
 10
385
 20
25
 11
385
 21
-5
  0
LINE
  8
0
 10
385
 20
-5
 11
402.5
 21
-5
  0
LINE
  8
0
 10
402.5
 20
-5
 11
422.5
 21
10
  0
LINE
  8
0
 10
422.5
 20
10
 11
430
 21
10
  0
LINE
  8
0
 10
430
 20
10
 11
430
 21
15
  0
LINE
  8
0
 10
430
 20
15
 11
445
 21
15
  0
LINE
  8
0
 10
445
 20
15
 11
445
 21
10
  0
LINE
  8
0
 10
445
 20
10
 11
460
 21
10
  0
LINE
  8
0
 10
460
 20
10
 11
460
 21
15
  0
LINE
  8
0
 10
460
 20
15
 11
475
 21
15
  0
LINE
  8
0
 10
475
 20
15
 11
475
 21
10
  0
LINE
  8
0
 10
475
 20
10
 11
490
 21
10
  0
LINE
  8
0
 10
490
 20
10
 11
490
 21
15
  0
LINE
  8
0
 10
490
 20
15
 11
505
 21
15
  0
LINE
  8
0
 10
505
 20
15
 11
505
 21
10
  0
LINE
  8
0
 10
505
 20
10
 11
517.5
 21
10
  0
LINE
  8
0
 10
517.5
 20
10
 11
537.5
 21
-5
  0
LINE
  8
0
 10
537.5
 20
-5
 11
555
 21
-5
  0
LINE
  8
0
 10
555
 20
-5
 11
555
 21
10
  0
LINE
  8
0
 10
555
 20
10
 11
550
 21
10
  0
LINE
  8
0
 10
550
 20
10
 11
550
 21
15
  0
LINE
  8
0
 10
550
 20
15
 11
555
 21
15
  0
LINE
  8
0
 10
555
 20
15
 11
555
 21
200
  0
LINE
  8
0
 10
529.942
 20
185.251
 11
529.827
 21
185.255
  0
LINE
  8
0
 10
529.827
 20
185.255
 11
529.713
 21
185.265
  0
LINE
  8
0
 10
529.713
 20
185.265
 11
529.598
 21
185.279
  0
LINE
  8
0
 10
529.598
 20
185.279
 11
529.485
 21
185.299
  0
LINE
  8
0
 10
529.485
 20
185.299
 11
529.372
 21
185.323
  0
LINE
  8
0
 10
529.372
 20
185.323
 11
529.26
 21
185.351
  0
LINE
  8
0
 10
529.26
 20
185.351
 11
529.15
 21
185.385
  0
LINE
  8
0
 10
529.15
 20
185.385
 11
529.041
 21
185.422
  0
LINE
  8
0
 10
529.041
 20
185.422
 11
528.934
 21
185.465
  0
LINE
  8
0
 10
528.934
 20
185.465
 11
528.829
 21
185.512
  0
LINE
  8
0
 10
528.829
 20
185.512
 11
528.726
 21
185.563
  0
LINE
  8
0
 10
528.726
 20
185.563
 11
528.625
 21
185.618
  0
LINE
  8
0
 10
528.625
 20
185.618
 11
528.526
 21
185.678
  0
LINE
  8
0
 10
528.526
 20
185.678
 11
528.431
 21
185.742
  0
LINE
  8
0
 10
528.431
 20
185.742
 11
528.337
 21
185.81
  0
LINE
  8
0
 10
528.337
 20
185.81
 11
528.247
 21
185.881
  0
LINE
  8
0
 10
528.247
 20
185.881
 11
528.16
 21
185.956
  0
LINE
  8
0
 10
528.16
 20
185.956
 11
528.076
 21
186.035
  0
LINE
  8
0
 10
528.076
 20
186.035
 11
527.995
 21
186.117
  0
LINE
  8
0
 10
527.995
 20
186.117
 11
527.918
 21
186.203
  0
LINE
  8
0
 10
527.918
 20
186.203
 11
527.845
 21
186.292
  0
LINE
  8
0
 10
527.845
 20
186.292
 11
527.775
 21
186.384
  0
LINE
  8
0
 10
527.775
 20
186.384
 11
527.709
 21
186.478
  0
LINE
  8
0
 10
527.709
 20
186.478
 11
527.648
 21
186.575
  0
LINE
  8
0
 10
527.648
 20
186.575
 11
527.59
 21
186.675
  0
LINE
  8
0
 10
527.59
 20
186.675
 11
527.537
 21
186.777
  0
LINE
  8
0
 10
527.537
 20
186.777
 11
527.488
 21
186.881
  0
LINE
  8
0
 10
527.488
 20
186.881
 11
527.443
 21
186.988
  0
LINE
  8
0
 10
527.443
 20
186.988
 11
527.403
 21
187.096
  0
LINE
  8
0
 10
527.403
 20
187.096
 11
527.367
 21
187.205
  0
LINE
  8
0
 10
527.367
 20
187.205
 11
527.336
 21
187.316
  0
LINE
  8
0
 10
527.336
 20
187.316
 11
527.31
 21
187.428
  0
LINE
  8
0
 10
527.31
 20
187.428
 11
527.289
 21
187.541
  0
LINE
  8
0
 10
527.289
 20
187.541
 11
527.272
 21
187.655
  0
LINE
  8
0
 10
527.272
 20
187.655
 11
527.26
 21
187.77
  0
LINE
  8
0
 10
527.26
 20
187.77
 11
527.252
 21
187.885
  0
LINE
  8
0
 10
527.252
 20
187.885
 11
527.25
 21
188
  0
LINE
  8
0
 10
527.25
 20
188
 11
527.252
 21
188.115
  0
LINE
  8
0
 10
527.252
 20
188.115
 11
527.26
 21
188.23
  0
LINE
  8
0
 10
527.26
 20
188.23
 11
527.272
 21
188.345
  0
LINE
  8
0
 10
527.272
 20
188.345
 11
527.289
 21
188.459
  0
LINE
  8
0
 10
527.289
 20
188.459
 11
527.31
 21
188.572
  0
LINE
  8
0
 10
527.31
 20
188.572
 11
527.336
 21
188.684
  0
LINE
  8
0
 10
527.336
 20
188.684
 11
527.367
 21
188.795
  0
LINE
  8
0
 10
527.367
 20
188.795
 11
527.403
 21
188.904
  0
LINE
  8
0
 10
527.403
 20
188.904
 11
527.443
 21
189.012
  0
LINE
  8
0
 10
527.443
 20
189.012
 11
527.488
 21
189.119
  0
LINE
  8
0
 10
527.488
 20
189.119
 11
527.537
 21
189.223
  0
LINE
  8
0
 10
527.537
 20
189.223
 11
527.59
 21
189.325
  0
LINE
  8
0
 10
527.59
 20
189.325
 11
527.648
 21
189.425
  0
LINE
  8
0
 10
527.648
 20
189.425
 11
527.709
 21
189.522
  0
LINE
  8
0
 10
527.709
 20
189.522
 11
527.775
 21
189.616
  0
LINE
  8
0
 10
527.775
 20
189.616
 11
527.845
 21
189.708
  0
LINE
  8
0
 10
527.845
 20
189.708
 11
527.918
 21
189.797
  0
LINE
  8
0
 10
527.918
 20
189.797
 11
527.995
 21
189.883
  0
LINE
  8
0
 10
527.995
 20
189.883
 11
528.076
 21
189.965
  0
LINE
  8
0
 10
528.076
 20
189.965
 11
528.16
 21
190.044
  0
LINE
  8
0
 10
528.16
 20
190.044
 11
528.247
 21
190.119
  0
LINE
  8
0
 10
528.247
 20
190.119
 11
528.337
 21
190.19
  0
LINE
  8
0
 10
528.337
 20
190.19
 11
528.431
 21
190.258
  0
LINE
  8
0
 10
528.431
 20
190.258
 11
528.526
 21
190.322
  0
LINE
  8
0
 10
528.526
 20
190.322
 11
528.625
 21
190.382
  0
LINE
  8
0
 10
528.625
 20
190.382
 11
528.726
 21
190.437
  0
LINE
  8
0
 10
528.726
 20
190.437
 11
528.829
 21
190.488
  0
LINE
  8
0
 10
528.829
 20
190.488
 11
528.934
 21
190.535
  0
LINE
  8
0
 10
528.934
 20
190.535
 11
529.041
 21
190.578
  0
LINE
  8
0
 10
529.041
 20
190.578
 11
529.15
 21
190.615
  0
LINE
  8
0
 10
529.15
 20
190.615
 11
529.26
 21
190.649
  0
LINE
  8
0
 10
529.26
 20
190.649
 11
529.372
 21
190.677
  0
LINE
  8
0
 10
529.372
 20
190.677
 11
529.485
 21
190.701
  0
LINE
  8
0
 10
529.485
 20
190.701
 11
529.598
 21
190.721
  0
LINE
  8
0
 10
529.598
 20
190.721
 11
529.713
 21
190.735
  0
LINE
  8
0
 10
529.713
 20
190.735
 11
529.827
 21
190.745
  0
LINE
  8
0
 10
529.827
 20
190.745
 11
529.942
 21
190.749
  0
LINE
  8
0
 10
529.942
 20
190.749
 11
530.058
 21
190.749
  0
LINE
  8
0
 10
530.058
 20
190.749
 11
530.173
 21
190.745
  0
LINE
  8
0
 10
530.173
 20
190.745
 11
530.287
 21
190.735
  0
LINE
  8
0
 10
530.287
 20
190.735
 11
530.402
 21
190.721
  0
LINE
  8
0
 10
530.402
 20
190.721
 11
530.515
 21
190.701
  0
LINE
  8
0
 10
530.515
 20
190.701
 11
530.628
 21
190.677
  0
LINE
  8
0
 10
530.628
 20
190.677
 11
530.74
 21
190.649
  0
LINE
  8
0
 10
530.74
 20
190.649
 11
530.85
 21
190.615
  0
LINE
  8
0
 10
530.85
 20
190.615
 11
530.959
 21
190.578
  0
LINE
  8
0
 10
530.959
 20
190.578
 11
531.066
 21
190.535
  0
LINE
  8
0
 10
531.066
 20
190.535
 11
531.171
 21
190.488
  0
LINE
  8
0
 10
531.171
 20
190.488
 11
531.274
 21
190.437
  0
LINE
  8
0
 10
531.274
 20
190.437
 11
531.375
 21
190.382
  0
LINE
  8
0
 10
531.375
 20
190.382
 11
531.474
 21
190.322
  0
LINE
  8
0
 10
531.474
 20
190.322
 11
531.569
 21
190.258
  0
LINE
  8
0
 10
531.569
 20
190.258
 11
531.663
 21
190.19
  0
LINE
  8
0
 10
531.663
 20
190.19
 11
531.753
 21
190.119
  0
LINE
  8
0
 10
531.753
 20
190.119
 11
531.84
 21
190.044
  0
LINE
  8
0
 10
531.84
 20
190.044
 11
531.924
 21
189.965
  0
LINE
  8
0
 10
531.924
 20
189.965
 11
532.005
 21
189.883
  0
LINE
  8
0
 10
532.005
 20
189.883
 11
532.082
 21
189.797
  0
LINE
  8
0
 10
532.082
 20
189.797
 11
532.155
 21
189.708
  0
LINE
  8
0
 10
532.155
 20
189.708
 11
532.225
 21
189.616
  0
LINE
  8
0
 10
532.225
 20
189.616
 11
532.291
 21
189.522
  0
LINE
  8
0
 10
532.291
 20
189.522
 11
532.352
 21
189.425
  0
LINE
  8
0
 10
532.352
 20
189.425
 11
532.41
 21
189.325
  0
LINE
  8
0
 10
532.41
 20
189.325
 11
532.463
 21
189.223
  0
LINE
  8
0
 10
532.463
 20
189.223
 11
532.512
 21
189.119
  0
LINE
  8
0
 10
532.512
 20
189.119
 11
532.557
 21
189.012
  0
LINE
  8
0
 10
532.557
 20
189.012
 11
532.597
 21
188.904
  0
LINE
  8
0
 10
532.597
 20
188.904
 11
532.633
 21
188.795
  0
LINE
  8
0
 10
532.633
 20
188.795
 11
532.664
 21
188.684
  0
LINE
  8
0
 10
532.664
 20
188.684
 11
532.69
 21
188.572
  0
LINE
  8
0
 10
532.69
 20
188.572
 11
532.711
 21
188.459
  0
LINE
  8
0
 10
532.711
 20
188.459
 11
532.728
 21
188.345
  0
LINE
  8
0
 10
532.728
 20
188.345
 11
532.74
 21
188.23
  0
LINE
  8
0
 10
532.74
 20
188.23
 11
532.748
 21
188.115
  0
LINE
  8
0
 10
532.748
 20
188.115
 11
532.75
 21
188
  0
LINE
  8
0
 10
532.75
 20
188
 11
532.748
 21
187.885
  0
LINE
  8
0
 10
532.748
 20
187.885
 11
532.74
 21
187.77
  0
LINE
  8
0
 10
532.74
 20
187.77
 11
532.728
 21
187.655
  0
LINE
  8
0
 10
532.728
 20
187.655
 11
532.711
 21
187.541
  0
LINE
  8
0
 10
532.711
 20
187.541
 11
532.69
 21
187.428
  0
LINE
  8
0
 10
532.69
 20
187.428
 11
532.664
 21
187.316
  0
LINE
  8
0
 10
532.664
 20
187.316
 11
532.633
 21
187.205
  0
LINE
  8
0
 10
532.633
 20
187.205
 11
532.597
 21
187.096
  0
LINE
  8
0
 10
532.597
 20
187.096
 11
532.557
 21
186.988
  0
LINE
  8
0
 10
532.557
 20
186.988
 11
532.512
 21
186.881
  0
LINE
  8
0
 10
532.512
 20
186.881
 11
532.463
 21
186.777
  0
LINE
  8
0
 10
532.463
 20
186.777
 11
532.41
 21
186.675
  0
LINE
  8
0
 10
532.41
 20
186.675
 11
532.352
 21
186.575
  0
LINE
  8
0
 10
532.352
 20
186.575
 11
532.291
 21
186.478
  0
LINE
  8
0
 10
532.291
 20
186.478
 11
532.225
 21
186.384
  0
LINE
  8
0
 10
532.225
 20
186.384
 11
532.155
 21
186.292
  0
LINE
  8
0
 10
532.155
 20
186.292
 11
532.082
 21
186.203
  0
LINE
  8
0
 10
532.082
 20
186.203
 11
532.005
 21
186.117
  0
LINE
  8
0
 10
532.005
 20
186.117
 11
531.924
 21
186.035
  0
LINE
  8
0
 10
531.924
 20
186.035
 11
531.84
 21
185.956
  0
LINE
  8
0
 10
531.84
 20
185.956
 11
531.753
 21
185.881
  0
LINE
  8
0
 10
531.753
 20
185.881
 11
531.663
 21
185.81
  0
LINE
  8
0
 10
531.663
 20
185.81
 11
531.569
 21
185.742
  0
LINE
  8
0
 10
531.569
 20
185.742
 11
531.474
 21
185.678
  0
LINE
  8
0
 10
531.474
 20
185.678
 11
531.375
 21
185.618
  0
LINE
  8
0
 10
531.375
 20
185.618
 11
531.274
 21
185.563
  0
LINE
  8
0
 10
531.274
 20
185.563
 11
531.171
 21
185.512
  0
LINE
  8
0
 10
531.171
 20
185.512
 11
531.066
 21
185.465
  0
LINE
  8
0
 10
531.066
 20
185.465
 11
530.959
 21
185.422
  0
LINE
  8
0
 10
530.959
 20
185.422
 11
530.85
 21
185.385
  0
LINE
  8
0
 10
530.85
 20
185.385
 11
530.74
 21
185.351
  0
LINE
  8
0
 10
530.74
 20
185.351
 11
530.628
 21
185.323
  0
LINE
  8
0
 10
530.628
 20
185.323
 11
530.515
 21
185.299
  0
LINE
  8
0
 10
530.515
 20
185.299
 11
530.402
 21
185.279
  0
LINE
  8
0
 10
530.402
 20
185.279
 11
530.287
 21
185.265
  0
LINE
  8
0
 10
530.287
 20
185.265
 11
530.173
 21
185.255
  0
LINE
  8
0
 10
530.173
 20
185.255
 11
530.058
 21
185.251
  0
LINE
  8
0
 10
530.058
 20
185.251
 11
529.942
 21
185.251
  0
LINE
  8
0
 10
529.942
 20
139.751
 11
529.827
 21
139.755
  0
LINE
  8
0
 10
529.827
 20
139.755
 11
529.713
 21
139.765
  0
LINE
  8
0
 10
529.713
 20
139.765
 11
529.598
 21
139.779
  0
LINE
  8
0
 10
529.598
 20
139.779
 11
529.485
 21
139.799
  0
LINE
  8
0
 10
529.485
 20
139.799
 11
529.372
 21
139.823
  0
LINE
  8
0
 10
529.372
 20
139.823
 11
529.26
 21
139.851
  0
LINE
  8
0
 10
529.26
 20
139.851
 11
529.15
 21
139.885
  0
LINE
  8
0
 10
529.15
 20
139.885
 11
529.041
 21
139.922
  0
LINE
  8
0
 10
529.041
 20
139.922
 11
528.934
 21
139.965
  0
LINE
  8
0
 10
528.934
 20
139.965
 11
528.829
 21
140.012
  0
LINE
  8
0
 10
528.829
 20
140.012
 11
528.726
 21
140.063
  0
LINE
  8
0
 10
528.726
 20
140.063
 11
528.625
 21
140.118
  0
LINE
  8
0
 10
528.625
 20
140.118
 11
528.526
 21
140.178
  0
LINE
  8
0
 10
528.526
 20
140.178
 11
528.431
 21
140.242
  0
LINE
  8
0
 10
528.431
 20
140.242
 11
528.337
 21
140.31
  0
LINE
  8
0
 10
528.337
 20
140.31
 11
528.247
 21
140.381
  0
LINE
  8
0
 10
528.247
 20
140.381
 11
528.16
 21
140.456
  0
LINE
  8
0
 10
528.16
 20
140.456
 11
528.076
 21
140.535
  0
LINE
  8
0
 10
528.076
 20
140.535
 11
527.995
 21
140.617
  0
LINE
  8
0
 10
527.995
 20
140.617
 11
527.918
 21
140.703
  0
LINE
  8
0
 10
527.918
 20
140.703
 11
527.845
 21
140.792
  0
LINE
  8
0
 10
527.845
 20
140.792
 11
527.775
 21
140.884
  0
LINE
  8
0
 10
527.775
 20
140.884
 11
527.709
 21
140.978
  0
LINE
  8
0
 10
527.709
 20
140.978
 11
527.648
 21
141.075
  0
LINE
  8
0
 10
527.648
 20
141.075
 11
527.59
 21
141.175
  0
LINE
  8
0
 10
527.59
 20
141.175
 11
527.537
 21
141.277
  0
LINE
  8
0
 10
527.537
 20
141.277
 11
527.488
 21
141.381
  0
LINE
  8
0
 10
527.488
 20
141.381
 11
527.443
 21
141.488
  0
LINE
  8
0
 10
527.443
 20
141.488
 11
527.403
 21
141.596
  0
LINE
  8
0
 10
527.403
 20
141.596
 11
527.367
 21
141.705
  0
LINE
  8
0
 10
527.367
 20
141.705
 11
527.336
 21
141.816
  0
LINE
  8
0
 10
527.336
 20
141.816
 11
527.31
 21
141.928
  0
LINE
  8
0
 10
527.31
 20
141.928
 11
527.289
 21
142.041
  0
LINE
  8
0
 10
527.289
 20
142.041
 11
527.272
 21
142.155
  0
LINE
  8
0
 10
527.272
 20
142.155
 11
527.26
 21
142.27
  0
LINE
  8
0
 10
527.26
 20
142.27
 11
527.252
 21
142.385
  0
LINE
  8
0
 10
527.252
 20
142.385
 11
527.25
 21
142.5
  0
LINE
  8
0
 10
527.25
 20
142.5
 11
527.252
 21
142.615
  0
LINE
  8
0
 10
527.252
 20
142.615
 11
527.26
 21
142.73
  0
LINE
  8
0
 10
527.26
 20
142.73
 11
527.272
 21
142.845
  0
LINE
  8
0
 10
527.272
 20
142.845
 11
527.289
 21
142.959
  0
LINE
  8
0
 10
527.289
 20
142.959
 11
527.31
 21
143.072
  0
LINE
  8
0
 10
527.31
 20
143.072
 11
527.336
 21
143.184
  0
LINE
  8
0
 10
527.336
 20
143.184
 11
527.367
 21
143.295
  0
LINE
  8
0
 10
527.367
 20
143.295
 11
527.403
 21
143.404
  0
LINE
  8
0
 10
527.403
 20
143.404
 11
527.443
 21
143.512
  0
LINE
  8
0
 10
527.443
 20
143.512
 11
527.488
 21
143.619
  0
LINE
  8
0
 10
527.488
 20
143.619
 11
527.537
 21
143.723
  0
LINE
  8
0
 10
527.537
 20
143.723
 11
527.59
 21
143.825
  0
LINE
  8
0
 10
527.59
 20
143.825
 11
527.648
 21
143.925
  0
LINE
  8
0
 10
527.648
 20
143.925
 11
527.709
 21
144.022
  0
LINE
  8
0
 10
527.709
 20
144.022
 11
527.775
 21
144.116
  0
LINE
  8
0
 10
527.775
 20
144.116
 11
527.845
 21
144.208
  0
LINE
  8
0
 10
527.845
 20
144.208
 11
527.918
 21
144.297
  0
LINE
  8
0
 10
527.918
 20
144.297
 11
527.995
 21
144.383
  0
LINE
  8
0
 10
527.995
 20
144.383
 11
528.076
 21
144.465
  0
LINE
  8
0
 10
528.076
 20
144.465
 11
528.16
 21
144.544
  0
LINE
  8
0
 10
528.16
 20
144.544
 11
528.247
 21
144.619
  0
LINE
  8
0
 10
528.247
 20
144.619
 11
528.337
 21
144.69
  0
LINE
  8
0
 10
528.337
 20
144.69
 11
528.431
 21
144.758
  0
LINE
  8
0
 10
528.431
 20
144.758
 11
528.526
 21
144.822
  0
LINE
  8
0
 10
528.526
 20
144.822
 11
528.625
 21
144.882
  0
LINE
  8
0
 10
528.625
 20
144.882
 11
528.726
 21
144.937
  0
LINE
  8
0
 10
528.726
 20
144.937
 11
528.829
 21
144.988
  0
LINE
  8
0
 10
528.829
 20
144.988
 11
528.934
 21
145.035
  0
LINE
  8
0
 10
528.934
 20
145.035
 11
529.041
 21
145.078
  0
LINE
  8
0
 10
529.041
 20
145.078
 11
529.15
 21
145.115
  0
LINE
  8
0
 10
529.15
 20
145.115
 11
529.26
 21
145.149
  0
LINE
  8
0
 10
529.26
 20
145.149
 11
529.372
 21
145.177
  0
LINE
  8
0
 10
529.372
 20
145.177
 11
529.485
 21
145.201
  0
LINE
  8
0
 10
529.485
 20
145.201
 11
529.598
 21
145.221
  0
LINE
  8
0
 10
529.598
 20
145.221
 11
529.713
 21
145.235
  0
LINE
  8
0
 10
529.713
 20
145.235
 11
529.827
 21
145.245
  0
LINE
  8
0
 10
529.827
 20
145.245
 11
529.942
 21
145.249
  0
LINE
  8
0
 10
529.942
 20
145.249
 11
530.058
 21
145.249
  0
LINE
  8
0
 10
530.058
 20
145.249
 11
530.173
 21
145.245
  0
LINE
  8
0
 10
530.173
 20
145.245
 11
530.287
 21
145.235
  0
LINE
  8
0
 10
530.287
 20
145.235
 11
530.402
 21
145.221
  0
LINE
  8
0
 10
530.402
 20
145.221
 11
530.515
 21
145.201
  0
LINE
  8
0
 10
530.515
 20
145.201
 11
530.628
 21
145.177
  0
LINE
  8
0
 10
530.628
 20
145.177
 11
530.74
 21
145.149
  0
LINE
  8
0
 10
530.74
 20
145.149
 11
530.85
 21
145.115
  0
LINE
  8
0
 10
530.85
 20
145.115
 11
530.959
 21
145.078
  0
LINE
  8
0
 10
530.959
 20
145.078
 11
531.066
 21
145.035
  0
LINE
  8
0
 10
531.066
 20
145.035
 11
531.171
 21
144.988
  0
LINE
  8
0
 10
531.171
 20
144.988
 11
531.274
 21
144.937
  0
LINE
  8
0
 10
531.274
 20
144.937
 11
531.375
 21
144.882
  0
LINE
  8
0
 10
531.375
 20
144.882
 11
531.474
 21
144.822
  0
LINE
  8
0
 10
531.474
 20
144.822
 11
531.569
 21
144.758
  0
LINE
  8
0
 10
531.569
 20
144.758
 11
531.663
 21
144.69
  0
LINE
  8
0
 10
531.663
 20
144.69
 11
531.753
 21
144.619
  0
LINE
  8
0
 10
531.753
 20
144.619
 11
531.84
 21
144.544
  0
LINE
  8
0
 10
531.84
 20
144.544
 11
531.924
 21
144.465
  0
LINE
  8
0
 10
531.924
 20
144.465
 11
532.005
 21
144.383
  0
LINE
  8
0
 10
532.005
 20
144.383
 11
532.082
 21
144.297
  0
LINE
  8
0
 10
532.082
 20
144.297
 11
532.155
 21
144.208
  0
LINE
  8
0
 10
532.155
 20
144.208
 11
532.225
 21
144.116
  0
LINE
  8
0
 10
532.225
 20
144.116
 11
532.291
 21
144.022
  0
LINE
  8
0
 10
532.291
 20
144.022
 11
532.352
 21
143.925
  0
LINE
  8
0
 10
532.352
 20
143.925
 11
532.41
 21
143.825
  0
LINE
  8
0
 10
532.41
 20
143.825
 11
532.463
 21
143.723
  0
LINE
  8
0
 10
532.463
 20
143.723
 11
532.512
 21
143.619
  0
LINE
  8
0
 10
532.512
 20
143.619
 11
532.557
 21
143.512
  0
LINE
  8
0
 10
532.557
 20
143.512
 11
532.597
 21
143.404
  0
LINE
  8
0
 10
532.597
 20
143.404
 11
532.633
 21
143.295
  0
LINE
  8
0
 10
532.633
 20
143.295
 11
532.664
 21
143.184
  0
LINE
  8
0
 10
532.664
 20
143.184
 11
532.69
 21
143.072
  0
LINE
  8
0
 10
532.69
 20
143.072
 11
532.711
 21
142.959
  0
LINE
  8
0
 10
532.711
 20
142.959
 11
532.728
 21
142.845
  0
LINE
  8
0
 10
532.728
 20
142.845
 11
532.74
 21
142.73
  0
LINE
  8
0
 10
532.74
 20
142.73
 11
532.748
 21
142.615
  0
LINE
  8
0
 10
532.748
 20
142.615
 11
532.75
 21
142.5
  0
LINE
  8
0
 10
532.75
 20
142.5
 11
532.748
 21
142.385
  0
LINE
  8
0
 10
532.748
 20
142.385
 11
532.74
 21
142.27
  0
LINE
  8
0
 10
532.74
 20
142.27
 11
532.728
 21
142.155
  0
LINE
  8
0
 10
532.728
 20
142.155
 11
532.711
 21
142.041
  0
LINE
  8
0
 10
532.711
 20
142.041
 11
532.69
 21
141.928
  0
LINE
  8
0
 10
532.69
 20
141.928
 11
532.664
 21
141.816
  0
LINE
  8
0
 10
532.664
 20
141.816
 11
532.633
 21
141.705
  0
LINE
  8
0
 10
532.633
 20
141.705
 11
532.597
 21
141.596
  0
LINE
  8
0
 10
532.597
 20
141.596
 11
532.557
 21
141.488
  0
LINE
  8
0
 10
532.557
 20
141.488
 11
532.512
 21
141.381
  0
LINE
  8
0
 10
532.512
 20
141.381
 11
532.463
 21
141.277
  0
LINE
  8
0
 10
532.463
 20
141.277
 11
532.41
 21
141.175
  0
LINE
  8
0
 10
532.41
 20
141.175
 11
532.352
 21
141.075
  0
LINE
  8
0
 10
532.352
 20
141.075
 11
532.291
 21
140.978
  0
LINE
  8
0
 10
532.291
 20
140.978
 11
532.225
 21
140.884
  0
LINE
  8
0
 10
532.225
 20
140.884
 11
532.155
 21
140.792
  0
LINE
  8
0
 10
532.155
 20
140.792
 11
532.082
 21
140.703
  0
LINE
  8
0
 10
532.082
 20
140.703
 11
532.005
 21
140.617
  0
LINE
  8
0
 10
532.005
 20
140.617
 11
531.924
 21
140.535
  0
LINE
  8
0
 10
531.924
 20
140.535
 11
531.84
 21
140.456
  0
LINE
  8
0
 10
531.84
 20
140.456
 11
531.753
 21
140.381
  0
LINE
  8
0
 10
531.753
 20
140.381
 11
531.663
 21
140.31
  0
LINE
  8
0
 10
531.663
 20
140.31
 11
531.569
 21
140.242
  0
LINE
  8
0
 10
531.569
 20
140.242
 11
531.474
 21
140.178
  0
LINE
  8
0
 10
531.474
 20
140.178
 11
531.375
 21
140.118
  0
LINE
  8
0
 10
531.375
 20
140.118
 11
531.274
 21
140.063
  0
LINE
  8
0
 10
531.274
 20
140.063
 11
531.171
 21
140.012
  0
LINE
  8
0
 10
531.171
 20
140.012
 11
531.066
 21
139.965
  0
LINE
  8
0
 10
531.066
 20
139.965
 11
530.959
 21
139.922
  0
LINE
  8
0
 10
530.959
 20
139.922
 11
530.85
 21
139.885
  0
LINE
  8
0
 10
530.85
 20
139.885
 11
530.74
 21
139.851
  0
LINE
  8
0
 10
530.74
 20
139.851
 11
530.628
 21
139.823
  0
LINE
  8
0
 10
530.628
 20
139.823
 11
530.515
 21
139.799
  0
LINE
  8
0
 10
530.515
 20
139.799
 11
530.402
 21
139.779
  0
LINE
  8
0
 10
530.402
 20
139.779
 11
530.287
 21
139.765
  0
LINE
  8
0
 10
530.287
 20
139.765
 11
530.173
 21
139.755
  0
LINE
  8
0
 10
530.173
 20
139.755
 11
530.058
 21
139.751
  0
LINE
  8
0
 10
530.058
 20
139.751
 11
529.942
 21
139.751
  0
LINE
  8
0
 10
529.942
 20
18.2506
 11
529.827
 21
18.2554
  0
LINE
  8
0
 10
529.827
 20
18.2554
 11
529.713
 21
18.2651
  0
LINE
  8
0
 10
529.713
 20
18.2651
 11
529.598
 21
18.2795
  0
LINE
  8
0
 10
529.598
 20
18.2795
 11
529.485
 21
18.2987
  0
LINE
  8
0
 10
529.485
 20
18.2987
 11
529.372
 21
18.3226
  0
LINE
  8
0
 10
529.372
 20
18.3226
 11
529.26
 21
18.3513
  0
LINE
  8
0
 10
529.26
 20
18.3513
 11
529.15
 21
18.3846
  0
LINE
  8
0
 10
529.15
 20
18.3846
 11
529.041
 21
18.4225
  0
LINE
  8
0
 10
529.041
 20
18.4225
 11
528.934
 21
18.4649
  0
LINE
  8
0
 10
528.934
 20
18.4649
 11
528.829
 21
18.5117
  0
LINE
  8
0
 10
528.829
 20
18.5117
 11
528.726
 21
18.5629
  0
LINE
  8
0
 10
528.726
 20
18.5629
 11
528.625
 21
18.6184
  0
LINE
  8
0
 10
528.625
 20
18.6184
 11
528.526
 21
18.6781
  0
LINE
  8
0
 10
528.526
 20
18.6781
 11
528.431
 21
18.7418
  0
LINE
  8
0
 10
528.431
 20
18.7418
 11
528.337
 21
18.8095
  0
LINE
  8
0
 10
528.337
 20
18.8095
 11
528.247
 21
18.8811
  0
LINE
  8
0
 10
528.247
 20
18.8811
 11
528.16
 21
18.9563
  0
LINE
  8
0
 10
528.16
 20
18.9563
 11
528.076
 21
19.0352
  0
LINE
  8
0
 10
528.076
 20
19.0352
 11
527.995
 21
19.1175
  0
LINE
  8
0
 10
527.995
 20
19.1175
 11
527.918
 21
19.2031
  0
LINE
  8
0
 10
527.918
 20
19.2031
 11
527.845
 21
19.2918
  0
LINE
  8
0
 10
527.845
 20
19.2918
 11
527.775
 21
19.3836
  0
LINE
  8
0
 10
527.775
 20
19.3836
 11
527.709
 21
19.4782
  0
LINE
  8
0
 10
527.709
 20
19.4782
 11
527.648
 21
19.5754
  0
LINE
  8
0
 10
527.648
 20
19.5754
 11
527.59
 21
19.6752
  0
LINE
  8
0
 10
527.59
 20
19.6752
 11
527.537
 21
19.7773
  0
LINE
  8
0
 10
527.537
 20
19.7773
 11
527.488
 21
19.8815
  0
LINE
  8
0
 10
527.488
 20
19.8815
 11
527.443
 21
19.9877
  0
LINE
  8
0
 10
527.443
 20
19.9877
 11
527.403
 21
20.0956
  0
LINE
  8
0
 10
527.403
 20
20.0956
 11
527.367
 21
20.2052
  0
LINE
  8
0
 10
527.367
 20
20.2052
 11
527.336
 21
20.3161
  0
LINE
  8
0
 10
527.336
 20
20.3161
 11
527.31
 21
20.4282
  0
LINE
  8
0
 10
527.31
 20
20.4282
 11
527.289
 21
20.5414
  0
LINE
  8
0
 10
527.289
 20
20.5414
 11
527.272
 21
20.6553
  0
LINE
  8
0
 10
527.272
 20
20.6553
 11
527.26
 21
20.7699
  0
LINE
  8
0
 10
527.26
 20
20.7699
 11
527.252
 21
20.8848
  0
LINE
  8
0
 10
527.252
 20
20.8848
 11
527.25
 21
21
  0
LINE
  8
0
 10
527.25
 20
21
 11
527.252
 21
21.1152
  0
LINE
  8
0
 10
527.252
 20
21.1152
 11
527.26
 21
21.2301
  0
LINE
  8
0
 10
527.26
 20
21.2301
 11
527.272
 21
21.3447
  0
LINE
  8
0
 10
527.272
 20
21.3447
 11
527.289
 21
21.4586
  0
LINE
  8
0
 10
527.289
 20
21.4586
 11
527.31
 21
21.5717
  0
LINE
  8
0
 10
527.31
 20
21.5717
 11
527.336
 21
21.6839
  0
LINE
  8
0
 10
527.336
 20
21.6839
 11
527.367
 21
21.7948
  0
LINE
  8
0
 10
527.367
 20
21.7948
 11
527.403
 21
21.9044
  0
LINE
  8
0
 10
527.403
 20
21.9044
 11
527.443
 21
22.0123
  0
LINE
  8
0
 10
527.443
 20
22.0123
 11
527.488
 21
22.1185
  0
LINE
  8
0
 10
527.488
 20
22.1185
 11
527.537
 21
22.2227
  0
LINE
  8
0
 10
527.537
 20
22.2227
 11
527.59
 21
22.3248
  0
LINE
  8
0
 10
527.59
 20
22.3248
 11
527.648
 21
22.4246
  0
LINE
  8
0
 10
527.648
 20
22.4246
 11
527.709
 21
22.5218
  0
LINE
  8
0
 10
527.709
 20
22.5218
 11
527.775
 21
22.6164
  0
LINE
  8
0
 10
527.775
 20
22.6164
 11
527.845
 21
22.7081
  0
LINE
  8
0
 10
527.845
 20
22.7081
 11
527.918
 21
22.7969
  0
LINE
  8
0
 10
527.918
 20
22.7969
 11
527.995
 21
22.8825
  0
LINE
  8
0
 10
527.995
 20
22.8825
 11
528.076
 21
22.9648
  0
LINE
  8
0
 10
528.076
 20
22.9648
 11
528.16
 21
23.0436
  0
LINE
  8
0
 10
528.16
 20
23.0436
 11
528.247
 21
23.1189
  0
LINE
  8
0
 10
528.247
 20
23.1189
 11
528.337
 21
23.1904
  0
LINE
  8
0
 10
528.337
 20
23.1904
 11
528.431
 21
23.2581
  0
LINE
  8
0
 10
528.431
 20
23.2581
 11
528.526
 21
23.3219
  0
LINE
  8
0
 10
528.526
 20
23.3219
 11
528.625
 21
23.3816
  0
LINE
  8
0
 10
528.625
 20
23.3816
 11
528.726
 21
23.4371
  0
LINE
  8
0
 10
528.726
 20
23.4371
 11
528.829
 21
23.4883
  0
LINE
  8
0
 10
528.829
 20
23.4883
 11
528.934
 21
23.5351
  0
LINE
  8
0
 10
528.934
 20
23.5351
 11
529.041
 21
23.5775
  0
LINE
  8
0
 10
529.041
 20
23.5775
 11
529.15
 21
23.6154
  0
LINE
  8
0
 10
529.15
 20
23.6154
 11
529.26
 21
23.6487
  0
LINE
  8
0
 10
529.26
 20
23.6487
 11
529.372
 21
23.6773
  0
LINE
  8
0
 10
529.372
 20
23.6773
 11
529.485
 21
23.7013
  0
LINE
  8
0
 10
529.485
 20
23.7013
 11
529.598
 21
23.7205
  0
LINE
  8
0
 10
529.598
 20
23.7205
 11
529.713
 21
23.7349
  0
LINE
  8
0
 10
529.713
 20
23.7349
 11
529.827
 21
23.7446
  0
LINE
  8
0
 10
529.827
 20
23.7446
 11
529.942
 21
23.7494
  0
LINE
  8
0
 10
529.942
 20
23.7494
 11
530.058
 21
23.7494
  0
LINE
  8
0
 10
530.058
 20
23.7494
 11
530.173
 21
23.7446
  0
LINE
  8
0
 10
530.173
 20
23.7446
 11
530.287
 21
23.7349
  0
LINE
  8
0
 10
530.287
 20
23.7349
 11
530.402
 21
23.7205
  0
LINE
  8
0
 10
530.402
 20
23.7205
 11
530.515
 21
23.7013
  0
LINE
  8
0
 10
530.515
 20
23.7013
 11
530.628
 21
23.6773
  0
LINE
  8
0
 10
530.628
 20
23.6773
 11
530.74
 21
23.6487
  0
LINE
  8
0
 10
530.74
 20
23.6487
 11
530.85
 21
23.6154
  0
LINE
  8
0
 10
530.85
 20
23.6154
 11
530.959
 21
23.5775
  0
LINE
  8
0
 10
530.959
 20
23.5775
 11
531.066
 21
23.5351
  0
LINE
  8
0
 10
531.066
 20
23.5351
 11
531.171
 21
23.4883
  0
LINE
  8
0
 10
531.171
 20
23.4883
 11
531.274
 21
23.4371
  0
LINE
  8
0
 10
531.274
 20
23.4371
 11
531.375
 21
23.3816
  0
LINE
  8
0
 10
531.375
 20
23.3816
 11
531.474
 21
23.3219
  0
LINE
  8
0
 10
531.474
 20
23.3219
 11
531.569
 21
23.2581
  0
LINE
  8
0
 10
531.569
 20
23.2581
 11
531.663
 21
23.1904
  0
LINE
  8
0
 10
531.663
 20
23.1904
 11
531.753
 21
23.1189
  0
LINE
  8
0
 10
531.753
 20
23.1189
 11
531.84
 21
23.0436
  0
LINE
  8
0
 10
531.84
 20
23.0436
 11
531.924
 21
22.9648
  0
LINE
  8
0
 10
531.924
 20
22.9648
 11
532.005
 21
22.8825
  0
LINE
  8
0
 10
532.005
 20
22.8825
 11
532.082
 21
22.7969
  0
LINE
  8
0
 10
532.082
 20
22.7969
 11
532.155
 21
22.7081
  0
LINE
  8
0
 10
532.155
 20
22.7081
 11
532.225
 21
22.6164
  0
LINE
  8
0
 10
532.225
 20
22.6164
 11
532.291
 21
22.5218
  0
LINE
  8
0
 10
532.291
 20
22.5218
 11
532.352
 21
22.4246
  0
LINE
  8
0
 10
532.352
 20
22.4246
 11
532.41
 21
22.3248
  0
LINE
  8
0
 10
532.41
 20
22.3248
 11
532.463
 21
22.2227
  0
LINE
  8
0
 10
532.463
 20
22.2227
 11
532.512
 21
22.1185
  0
LINE
  8
0
 10
532.512
 20
22.1185
 11
532.557
 21
22.0123
  0
LINE
  8
0
 10
532.557
 20
22.0123
 11
532.597
 21
21.9044
  0
LINE
  8
0
 10
532.597
 20
21.9044
 11
532.633
 21
21.7948
  0
LINE
  8
0
 10
532.633
 20
21.7948
 11
532.664
 21
21.6839
  0
LINE
  8
0
 10
532.664
 20
21.6839
 11
532.69
 21
21.5717
  0
LINE
  8
0
 10
532.69
 20
21.5717
 11
532.711
 21
21.4586
  0
LINE
  8
0
 10
532.711
 20
21.4586
 11
532.728
 21
21.3447
  0
LINE
  8
0
 10
532.728
 20
21.3447
 11
532.74
 21
21.2301
  0
LINE
  8
0
 10
532.74
 20
21.2301
 11
532.748
 21
21.1152
  0
LINE
  8
0
 10
532.748
 20
21.1152
 11
532.75
 21
21
  0
LINE
  8
0
 10
532.75
 20
21
 11
532.748
 21
20.8848
  0
LINE
  8
0
 10
532.748
 20
20.8848
 11
532.74
 21
20.7699
  0
LINE
  8
0
 10
532.74
 20
20.7699
 11
532.728
 21
20.6553
  0
LINE
  8
0
 10
532.728
 20
20.6553
 11
532.711
 21
20.5414
  0
LINE
  8
0
 10
532.711
 20
20.5414
 11
532.69
 21
20.4282
  0
LINE
  8
0
 10
532.69
 20
20.4282
 11
532.664
 21
20.3161
  0
LINE
  8
0
 10
532.664
 20
20.3161
 11
532.633
 21
20.2052
  0
LINE
  8
0
 10
532.633
 20
20.2052
 11
532.597
 21
20.0956
  0
LINE
  8
0
 10
532.597
 20
20.0956
 11
532.557
 21
19.9877
  0
LINE
  8
0
 10
532.557
 20
19.9877
 11
532.512
 21
19.8815
  0
LINE
  8
0
 10
532.512
 20
19.8815
 11
532.463
 21
19.7773
  0
LINE
  8
0
 10
532.463
 20
19.7773
 11
532.41
 21
19.6752
  0
LINE
  8
0
 10
532.41
 20
19.6752
 11
532.352
 21
19.5754
  0
LINE
  8
0
 10
532.352
 20
19.5754
 11
532.291
 21
19.4782
  0
LINE
  8
0
 10
532.291
 20
19.4782
 11
532.225
 21
19.3836
  0
LINE
  8
0
 10
532.225
 20
19.3836
 11
532.155
 21
19.2918
  0
LINE
  8
0
 10
532.155
 20
19.2918
 11
532.082
 21
19.2031
  0
LINE
  8
0
 10
532.082
 20
19.2031
 11
532.005
 21
19.1175
  0
LINE
  8
0
 10
532.005
 20
19.1175
 11
531.924
 21
19.0352
  0
LINE
  8
0
 10
531.924
 20
19.0352
 11
531.84
 21
18.9563
  0
LINE
  8
0
 10
531.84
 20
18.9563
 11
531.753
 21
18.8811
  0
LINE
  8
0
 10
531.753
 20
18.8811
 11
531.663
 21
18.8095
  0
LINE
  8
0
 10
531.663
 20
18.8095
 11
531.569
 21
18.7418
  0
LINE
  8
0
 10
531.569
 20
18.7418
 11
531.474
 21
18.6781
  0
LINE
  8
0
 10
531.474
 20
18.6781
 11
531.375
 21
18.6184
  0
LINE
  8
0
 10
531.375
 20
18.6184
 11
531.274
 21
18.5629
  0
LINE
  8
0
 10
531.274
 20
18.5629
 11
531.171
 21
18.5117
  0
LINE
  8
0
 10
531.171
 20
18.5117
 11
531.066
 21
18.4649
  0
LINE
  8
0
 10
531.066
 20
18.4649
 11
530.959
 21
18.4225
  0
LINE
  8
0
 10
530.959
 20
18.4225
 11
530.85
 21
18.3846
  0
LINE
  8
0
 10
530.85
 20
18.3846
 11
530.74
 21
18.3513
  0
LINE
  8
0
 10
530.74
 20
18.3513
 11
530.628
 21
18.3226
  0
LINE
  8
0
 10
530.628
 20
18.3226
 11
530.515
 21
18.2987
  0
LINE
  8
0
 10
530.515
 20
18.2987
 11
530.402
 21
18.2795
  0
LINE
  8
0
 10
530.402
 20
18.2795
 11
530.287
 21
18.2651
  0
LINE
  8
0
 10
530.287
 20
18.2651
 11
530.173
 21
18.2554
  0
LINE
  8
0
 10
530.173
 20
18.2554
 11
530.058
 21
18.2506
  0
LINE
  8
0
 10
530.058
 20
18.2506
 11
529.942
 21
18.2506
  0
LINE
  8
0
 10
400
 20
10
 11
400
 21
15
  0
LINE
  8
0
 10
400
 20
15
 11
415
 21
15
  0
LINE
  8
0
 10
415
 20
15
 11
415
 21
10
  0
LINE
  8
0
 10
415
 20
10
 11
400
 21
10
  0
LINE
  8
0
 10
520
 20
10
 11
520
 21
15
  0
LINE
  8
0
 10
520
 20
15
 11
535
 21
15
  0
LINE
  8
0
 10
535
 20
15
 11
535
 21
10
  0
LINE
  8
0
 10
535
 20
10
 11
520
 21
10
  0
ENDSEC
  0
SECTION
  2
OBJECTS
  0
DICTIONARY
  0
ENDSEC
  0
EOF
