%TF.GenerationSoftware,KiCad,Pcbnew,5.1.6*%
%TF.CreationDate,2020-09-08T23:32:54+02:00*%
%TF.ProjectId,psu,7073752e-6b69-4636-9164-5f7063625858,rev?*%
%TF.SameCoordinates,Original*%
%TF.FileFunction,Copper,L2,Bot*%
%TF.FilePolarity,Positive*%
%FSLAX46Y46*%
G04 Gerber Fmt 4.6, Leading zero omitted, Abs format (unit mm)*
G04 Created by KiCad (PCBNEW 5.1.6) date 2020-09-08 23:32:54*
%MOMM*%
%LPD*%
G01*
G04 APERTURE LIST*
%TA.AperFunction,ComponentPad*%
%ADD10O,1.905000X2.000000*%
%TD*%
%TA.AperFunction,ComponentPad*%
%ADD11R,1.905000X2.000000*%
%TD*%
%TA.AperFunction,ComponentPad*%
%ADD12O,1.600000X1.600000*%
%TD*%
%TA.AperFunction,ComponentPad*%
%ADD13C,1.600000*%
%TD*%
%TA.AperFunction,ComponentPad*%
%ADD14O,2.200000X2.200000*%
%TD*%
%TA.AperFunction,ComponentPad*%
%ADD15R,2.200000X2.200000*%
%TD*%
%TA.AperFunction,ComponentPad*%
%ADD16R,1.600000X1.600000*%
%TD*%
%TA.AperFunction,ComponentPad*%
%ADD17O,1.800000X3.600000*%
%TD*%
%TA.AperFunction,ComponentPad*%
%ADD18O,3.600000X1.800000*%
%TD*%
%TA.AperFunction,ComponentPad*%
%ADD19O,2.000000X1.905000*%
%TD*%
%TA.AperFunction,ComponentPad*%
%ADD20R,2.000000X1.905000*%
%TD*%
%TA.AperFunction,ComponentPad*%
%ADD21O,1.700000X1.700000*%
%TD*%
%TA.AperFunction,ComponentPad*%
%ADD22R,1.700000X1.700000*%
%TD*%
%TA.AperFunction,ComponentPad*%
%ADD23C,1.524000*%
%TD*%
%TA.AperFunction,ComponentPad*%
%ADD24R,1.524000X1.524000*%
%TD*%
%TA.AperFunction,ViaPad*%
%ADD25C,0.800000*%
%TD*%
%TA.AperFunction,Conductor*%
%ADD26C,1.500000*%
%TD*%
%TA.AperFunction,Conductor*%
%ADD27C,0.250000*%
%TD*%
G04 APERTURE END LIST*
D10*
%TO.P,U5,3*%
%TO.N,Net-(C8-Pad1)*%
X88900000Y-85090000D03*
%TO.P,U5,2*%
%TO.N,GND*%
X86360000Y-85090000D03*
D11*
%TO.P,U5,1*%
%TO.N,Net-(C7-Pad1)*%
X83820000Y-85090000D03*
%TD*%
D12*
%TO.P,R3,2*%
%TO.N,0V*%
X113030000Y-103505000D03*
D13*
%TO.P,R3,1*%
%TO.N,GND*%
X102870000Y-103505000D03*
%TD*%
D12*
%TO.P,R2,2*%
%TO.N,Net-(C7-Pad1)*%
X60960000Y-100330000D03*
D13*
%TO.P,R2,1*%
%TO.N,VIN*%
X50800000Y-100330000D03*
%TD*%
D14*
%TO.P,D3,2*%
%TO.N,-15V*%
X113030000Y-78740000D03*
D15*
%TO.P,D3,1*%
%TO.N,Net-(C8-Pad1)*%
X102870000Y-78740000D03*
%TD*%
D14*
%TO.P,D2,2*%
%TO.N,Net-(C8-Pad1)*%
X102870000Y-99060000D03*
D15*
%TO.P,D2,1*%
%TO.N,+15V*%
X113030000Y-99060000D03*
%TD*%
D13*
%TO.P,C8,2*%
%TO.N,GND*%
X91440000Y-93940000D03*
D16*
%TO.P,C8,1*%
%TO.N,Net-(C8-Pad1)*%
X91440000Y-91440000D03*
%TD*%
D13*
%TO.P,C7,2*%
%TO.N,GND*%
X81280000Y-93940000D03*
D16*
%TO.P,C7,1*%
%TO.N,Net-(C7-Pad1)*%
X81280000Y-91440000D03*
%TD*%
D17*
%TO.P,J3,2*%
%TO.N,GND*%
X54920000Y-78740000D03*
%TO.P,J3,1*%
%TO.N,Net-(J1-Pad1)*%
%TA.AperFunction,ComponentPad*%
G36*
G01*
X59320000Y-77190000D02*
X59320000Y-80290000D01*
G75*
G02*
X59070000Y-80540000I-250000J0D01*
G01*
X57770000Y-80540000D01*
G75*
G02*
X57520000Y-80290000I0J250000D01*
G01*
X57520000Y-77190000D01*
G75*
G02*
X57770000Y-76940000I250000J0D01*
G01*
X59070000Y-76940000D01*
G75*
G02*
X59320000Y-77190000I0J-250000D01*
G01*
G37*
%TD.AperFunction*%
%TD*%
D18*
%TO.P,J2,2*%
%TO.N,GND*%
X45720000Y-81605000D03*
%TO.P,J2,1*%
%TO.N,Net-(J1-Pad1)*%
%TA.AperFunction,ComponentPad*%
G36*
G01*
X44170000Y-77205000D02*
X47270000Y-77205000D01*
G75*
G02*
X47520000Y-77455000I0J-250000D01*
G01*
X47520000Y-78755000D01*
G75*
G02*
X47270000Y-79005000I-250000J0D01*
G01*
X44170000Y-79005000D01*
G75*
G02*
X43920000Y-78755000I0J250000D01*
G01*
X43920000Y-77455000D01*
G75*
G02*
X44170000Y-77205000I250000J0D01*
G01*
G37*
%TD.AperFunction*%
%TD*%
%TO.P,J1,2*%
%TO.N,GND*%
X45720000Y-100020000D03*
%TO.P,J1,1*%
%TO.N,Net-(J1-Pad1)*%
%TA.AperFunction,ComponentPad*%
G36*
G01*
X44170000Y-95620000D02*
X47270000Y-95620000D01*
G75*
G02*
X47520000Y-95870000I0J-250000D01*
G01*
X47520000Y-97170000D01*
G75*
G02*
X47270000Y-97420000I-250000J0D01*
G01*
X44170000Y-97420000D01*
G75*
G02*
X43920000Y-97170000I0J250000D01*
G01*
X43920000Y-95870000D01*
G75*
G02*
X44170000Y-95620000I250000J0D01*
G01*
G37*
%TD.AperFunction*%
%TD*%
D19*
%TO.P,U3,3*%
%TO.N,-12V*%
X130810000Y-77470000D03*
%TO.P,U3,2*%
%TO.N,-15V*%
X130810000Y-80010000D03*
D20*
%TO.P,U3,1*%
%TO.N,0V*%
X130810000Y-82550000D03*
%TD*%
D19*
%TO.P,U2,3*%
%TO.N,+12V*%
X130810000Y-93980000D03*
%TO.P,U2,2*%
%TO.N,0V*%
X130810000Y-96520000D03*
D20*
%TO.P,U2,1*%
%TO.N,+15V*%
X130810000Y-99060000D03*
%TD*%
D21*
%TO.P,J13,16*%
%TO.N,Gate*%
X274320000Y-97790000D03*
%TO.P,J13,15*%
X271780000Y-97790000D03*
%TO.P,J13,14*%
%TO.N,CV*%
X274320000Y-95250000D03*
%TO.P,J13,13*%
X271780000Y-95250000D03*
%TO.P,J13,12*%
%TO.N,+5V*%
X274320000Y-92710000D03*
%TO.P,J13,11*%
X271780000Y-92710000D03*
%TO.P,J13,10*%
%TO.N,+12V*%
X274320000Y-90170000D03*
%TO.P,J13,9*%
X271780000Y-90170000D03*
%TO.P,J13,8*%
%TO.N,0V*%
X274320000Y-87630000D03*
%TO.P,J13,7*%
X271780000Y-87630000D03*
%TO.P,J13,6*%
X274320000Y-85090000D03*
%TO.P,J13,5*%
X271780000Y-85090000D03*
%TO.P,J13,4*%
X274320000Y-82550000D03*
%TO.P,J13,3*%
X271780000Y-82550000D03*
%TO.P,J13,2*%
%TO.N,-12V*%
X274320000Y-80010000D03*
D22*
%TO.P,J13,1*%
X271780000Y-80010000D03*
%TD*%
D21*
%TO.P,J12,16*%
%TO.N,Gate*%
X262024759Y-97790000D03*
%TO.P,J12,15*%
X259484759Y-97790000D03*
%TO.P,J12,14*%
%TO.N,CV*%
X262024759Y-95250000D03*
%TO.P,J12,13*%
X259484759Y-95250000D03*
%TO.P,J12,12*%
%TO.N,+5V*%
X262024759Y-92710000D03*
%TO.P,J12,11*%
X259484759Y-92710000D03*
%TO.P,J12,10*%
%TO.N,+12V*%
X262024759Y-90170000D03*
%TO.P,J12,9*%
X259484759Y-90170000D03*
%TO.P,J12,8*%
%TO.N,0V*%
X262024759Y-87630000D03*
%TO.P,J12,7*%
X259484759Y-87630000D03*
%TO.P,J12,6*%
X262024759Y-85090000D03*
%TO.P,J12,5*%
X259484759Y-85090000D03*
%TO.P,J12,4*%
X262024759Y-82550000D03*
%TO.P,J12,3*%
X259484759Y-82550000D03*
%TO.P,J12,2*%
%TO.N,-12V*%
X262024759Y-80010000D03*
D22*
%TO.P,J12,1*%
X259484759Y-80010000D03*
%TD*%
D21*
%TO.P,J11,16*%
%TO.N,Gate*%
X250190000Y-97790000D03*
%TO.P,J11,15*%
X247650000Y-97790000D03*
%TO.P,J11,14*%
%TO.N,CV*%
X250190000Y-95250000D03*
%TO.P,J11,13*%
X247650000Y-95250000D03*
%TO.P,J11,12*%
%TO.N,+5V*%
X250190000Y-92710000D03*
%TO.P,J11,11*%
X247650000Y-92710000D03*
%TO.P,J11,10*%
%TO.N,+12V*%
X250190000Y-90170000D03*
%TO.P,J11,9*%
X247650000Y-90170000D03*
%TO.P,J11,8*%
%TO.N,0V*%
X250190000Y-87630000D03*
%TO.P,J11,7*%
X247650000Y-87630000D03*
%TO.P,J11,6*%
X250190000Y-85090000D03*
%TO.P,J11,5*%
X247650000Y-85090000D03*
%TO.P,J11,4*%
X250190000Y-82550000D03*
%TO.P,J11,3*%
X247650000Y-82550000D03*
%TO.P,J11,2*%
%TO.N,-12V*%
X250190000Y-80010000D03*
D22*
%TO.P,J11,1*%
X247650000Y-80010000D03*
%TD*%
D21*
%TO.P,J10,16*%
%TO.N,Gate*%
X237490000Y-97790000D03*
%TO.P,J10,15*%
X234950000Y-97790000D03*
%TO.P,J10,14*%
%TO.N,CV*%
X237490000Y-95250000D03*
%TO.P,J10,13*%
X234950000Y-95250000D03*
%TO.P,J10,12*%
%TO.N,+5V*%
X237490000Y-92710000D03*
%TO.P,J10,11*%
X234950000Y-92710000D03*
%TO.P,J10,10*%
%TO.N,+12V*%
X237490000Y-90170000D03*
%TO.P,J10,9*%
X234950000Y-90170000D03*
%TO.P,J10,8*%
%TO.N,0V*%
X237490000Y-87630000D03*
%TO.P,J10,7*%
X234950000Y-87630000D03*
%TO.P,J10,6*%
X237490000Y-85090000D03*
%TO.P,J10,5*%
X234950000Y-85090000D03*
%TO.P,J10,4*%
X237490000Y-82550000D03*
%TO.P,J10,3*%
X234950000Y-82550000D03*
%TO.P,J10,2*%
%TO.N,-12V*%
X237490000Y-80010000D03*
D22*
%TO.P,J10,1*%
X234950000Y-80010000D03*
%TD*%
D21*
%TO.P,J9,16*%
%TO.N,Gate*%
X224790000Y-97790000D03*
%TO.P,J9,15*%
X222250000Y-97790000D03*
%TO.P,J9,14*%
%TO.N,CV*%
X224790000Y-95250000D03*
%TO.P,J9,13*%
X222250000Y-95250000D03*
%TO.P,J9,12*%
%TO.N,+5V*%
X224790000Y-92710000D03*
%TO.P,J9,11*%
X222250000Y-92710000D03*
%TO.P,J9,10*%
%TO.N,+12V*%
X224790000Y-90170000D03*
%TO.P,J9,9*%
X222250000Y-90170000D03*
%TO.P,J9,8*%
%TO.N,0V*%
X224790000Y-87630000D03*
%TO.P,J9,7*%
X222250000Y-87630000D03*
%TO.P,J9,6*%
X224790000Y-85090000D03*
%TO.P,J9,5*%
X222250000Y-85090000D03*
%TO.P,J9,4*%
X224790000Y-82550000D03*
%TO.P,J9,3*%
X222250000Y-82550000D03*
%TO.P,J9,2*%
%TO.N,-12V*%
X224790000Y-80010000D03*
D22*
%TO.P,J9,1*%
X222250000Y-80010000D03*
%TD*%
D21*
%TO.P,J8,16*%
%TO.N,Gate*%
X212090000Y-97790000D03*
%TO.P,J8,15*%
X209550000Y-97790000D03*
%TO.P,J8,14*%
%TO.N,CV*%
X212090000Y-95250000D03*
%TO.P,J8,13*%
X209550000Y-95250000D03*
%TO.P,J8,12*%
%TO.N,+5V*%
X212090000Y-92710000D03*
%TO.P,J8,11*%
X209550000Y-92710000D03*
%TO.P,J8,10*%
%TO.N,+12V*%
X212090000Y-90170000D03*
%TO.P,J8,9*%
X209550000Y-90170000D03*
%TO.P,J8,8*%
%TO.N,0V*%
X212090000Y-87630000D03*
%TO.P,J8,7*%
X209550000Y-87630000D03*
%TO.P,J8,6*%
X212090000Y-85090000D03*
%TO.P,J8,5*%
X209550000Y-85090000D03*
%TO.P,J8,4*%
X212090000Y-82550000D03*
%TO.P,J8,3*%
X209550000Y-82550000D03*
%TO.P,J8,2*%
%TO.N,-12V*%
X212090000Y-80010000D03*
D22*
%TO.P,J8,1*%
X209550000Y-80010000D03*
%TD*%
D21*
%TO.P,J7,16*%
%TO.N,Gate*%
X199390000Y-97790000D03*
%TO.P,J7,15*%
X196850000Y-97790000D03*
%TO.P,J7,14*%
%TO.N,CV*%
X199390000Y-95250000D03*
%TO.P,J7,13*%
X196850000Y-95250000D03*
%TO.P,J7,12*%
%TO.N,+5V*%
X199390000Y-92710000D03*
%TO.P,J7,11*%
X196850000Y-92710000D03*
%TO.P,J7,10*%
%TO.N,+12V*%
X199390000Y-90170000D03*
%TO.P,J7,9*%
X196850000Y-90170000D03*
%TO.P,J7,8*%
%TO.N,0V*%
X199390000Y-87630000D03*
%TO.P,J7,7*%
X196850000Y-87630000D03*
%TO.P,J7,6*%
X199390000Y-85090000D03*
%TO.P,J7,5*%
X196850000Y-85090000D03*
%TO.P,J7,4*%
X199390000Y-82550000D03*
%TO.P,J7,3*%
X196850000Y-82550000D03*
%TO.P,J7,2*%
%TO.N,-12V*%
X199390000Y-80010000D03*
D22*
%TO.P,J7,1*%
X196850000Y-80010000D03*
%TD*%
D21*
%TO.P,J6,16*%
%TO.N,Gate*%
X186690000Y-97790000D03*
%TO.P,J6,15*%
X184150000Y-97790000D03*
%TO.P,J6,14*%
%TO.N,CV*%
X186690000Y-95250000D03*
%TO.P,J6,13*%
X184150000Y-95250000D03*
%TO.P,J6,12*%
%TO.N,+5V*%
X186690000Y-92710000D03*
%TO.P,J6,11*%
X184150000Y-92710000D03*
%TO.P,J6,10*%
%TO.N,+12V*%
X186690000Y-90170000D03*
%TO.P,J6,9*%
X184150000Y-90170000D03*
%TO.P,J6,8*%
%TO.N,0V*%
X186690000Y-87630000D03*
%TO.P,J6,7*%
X184150000Y-87630000D03*
%TO.P,J6,6*%
X186690000Y-85090000D03*
%TO.P,J6,5*%
X184150000Y-85090000D03*
%TO.P,J6,4*%
X186690000Y-82550000D03*
%TO.P,J6,3*%
X184150000Y-82550000D03*
%TO.P,J6,2*%
%TO.N,-12V*%
X186690000Y-80010000D03*
D22*
%TO.P,J6,1*%
X184150000Y-80010000D03*
%TD*%
D21*
%TO.P,J5,16*%
%TO.N,Gate*%
X173990000Y-97790000D03*
%TO.P,J5,15*%
X171450000Y-97790000D03*
%TO.P,J5,14*%
%TO.N,CV*%
X173990000Y-95250000D03*
%TO.P,J5,13*%
X171450000Y-95250000D03*
%TO.P,J5,12*%
%TO.N,+5V*%
X173990000Y-92710000D03*
%TO.P,J5,11*%
X171450000Y-92710000D03*
%TO.P,J5,10*%
%TO.N,+12V*%
X173990000Y-90170000D03*
%TO.P,J5,9*%
X171450000Y-90170000D03*
%TO.P,J5,8*%
%TO.N,0V*%
X173990000Y-87630000D03*
%TO.P,J5,7*%
X171450000Y-87630000D03*
%TO.P,J5,6*%
X173990000Y-85090000D03*
%TO.P,J5,5*%
X171450000Y-85090000D03*
%TO.P,J5,4*%
X173990000Y-82550000D03*
%TO.P,J5,3*%
X171450000Y-82550000D03*
%TO.P,J5,2*%
%TO.N,-12V*%
X173990000Y-80010000D03*
D22*
%TO.P,J5,1*%
X171450000Y-80010000D03*
%TD*%
D21*
%TO.P,J4,16*%
%TO.N,Gate*%
X161290000Y-97790000D03*
%TO.P,J4,15*%
X158750000Y-97790000D03*
%TO.P,J4,14*%
%TO.N,CV*%
X161290000Y-95250000D03*
%TO.P,J4,13*%
X158750000Y-95250000D03*
%TO.P,J4,12*%
%TO.N,+5V*%
X161290000Y-92710000D03*
%TO.P,J4,11*%
X158750000Y-92710000D03*
%TO.P,J4,10*%
%TO.N,+12V*%
X161290000Y-90170000D03*
%TO.P,J4,9*%
X158750000Y-90170000D03*
%TO.P,J4,8*%
%TO.N,0V*%
X161290000Y-87630000D03*
%TO.P,J4,7*%
X158750000Y-87630000D03*
%TO.P,J4,6*%
X161290000Y-85090000D03*
%TO.P,J4,5*%
X158750000Y-85090000D03*
%TO.P,J4,4*%
X161290000Y-82550000D03*
%TO.P,J4,3*%
X158750000Y-82550000D03*
%TO.P,J4,2*%
%TO.N,-12V*%
X161290000Y-80010000D03*
D22*
%TO.P,J4,1*%
X158750000Y-80010000D03*
%TD*%
D13*
%TO.P,C6,2*%
%TO.N,0V*%
X148630000Y-97790000D03*
D16*
%TO.P,C6,1*%
%TO.N,+5V*%
X151130000Y-97790000D03*
%TD*%
D10*
%TO.P,U4,3*%
%TO.N,+5V*%
X143510000Y-87630000D03*
%TO.P,U4,2*%
%TO.N,0V*%
X140970000Y-87630000D03*
D11*
%TO.P,U4,1*%
%TO.N,+12V*%
X138430000Y-87630000D03*
%TD*%
D23*
%TO.P,U1,5*%
%TO.N,0V*%
X113030000Y-88900000D03*
%TO.P,U1,4*%
%TO.N,-15V*%
X113030000Y-78740000D03*
%TO.P,U1,6*%
%TO.N,+15V*%
X113030000Y-99060000D03*
%TO.P,U1,3*%
%TO.N,Net-(U1-Pad3)*%
X67310000Y-81280000D03*
%TO.P,U1,2*%
%TO.N,GND*%
X67310000Y-91440000D03*
D24*
%TO.P,U1,1*%
%TO.N,Net-(D1-Pad1)*%
X67310000Y-96520000D03*
%TD*%
D21*
%TO.P,SW1,4*%
%TO.N,VIN*%
X52070000Y-96520000D03*
%TO.P,SW1,3*%
%TO.N,Net-(R1-Pad2)*%
X54610000Y-96520000D03*
%TO.P,SW1,2*%
%TO.N,GND*%
X57150000Y-96520000D03*
D22*
%TO.P,SW1,1*%
%TO.N,Net-(J1-Pad1)*%
X59690000Y-96520000D03*
%TD*%
D12*
%TO.P,R1,2*%
%TO.N,Net-(R1-Pad2)*%
X60960000Y-86360000D03*
D13*
%TO.P,R1,1*%
%TO.N,+5V*%
X50800000Y-86360000D03*
%TD*%
D14*
%TO.P,D1,2*%
%TO.N,VIN*%
X50800000Y-91440000D03*
D15*
%TO.P,D1,1*%
%TO.N,Net-(D1-Pad1)*%
X60960000Y-91440000D03*
%TD*%
D13*
%TO.P,C5,2*%
%TO.N,0V*%
X149860000Y-87670000D03*
D16*
%TO.P,C5,1*%
%TO.N,+12V*%
X149860000Y-90170000D03*
%TD*%
D13*
%TO.P,C4,2*%
%TO.N,-12V*%
X149860000Y-80050000D03*
D16*
%TO.P,C4,1*%
%TO.N,0V*%
X149860000Y-82550000D03*
%TD*%
D13*
%TO.P,C3,2*%
%TO.N,0V*%
X140930000Y-93980000D03*
D16*
%TO.P,C3,1*%
%TO.N,+12V*%
X138430000Y-93980000D03*
%TD*%
D13*
%TO.P,C2,2*%
%TO.N,-15V*%
X120650000Y-78780000D03*
D16*
%TO.P,C2,1*%
%TO.N,0V*%
X120650000Y-81280000D03*
%TD*%
D13*
%TO.P,C1,2*%
%TO.N,0V*%
X120650000Y-101560000D03*
D16*
%TO.P,C1,1*%
%TO.N,+15V*%
X120650000Y-99060000D03*
%TD*%
D25*
%TO.N,+5V*%
X77470000Y-95885000D03*
%TD*%
D26*
%TO.N,+12V*%
X274320000Y-90170000D02*
X149860000Y-90170000D01*
X130810000Y-93980000D02*
X138430000Y-93980000D01*
X138430000Y-87630000D02*
X138430000Y-93980000D01*
X143510000Y-83820000D02*
X149860000Y-90170000D01*
X139740000Y-83820000D02*
X143510000Y-83820000D01*
X138430000Y-85130000D02*
X139740000Y-83820000D01*
X138430000Y-87630000D02*
X138430000Y-85130000D01*
%TO.N,-12V*%
X147280000Y-77470000D02*
X149860000Y-80050000D01*
X130810000Y-77470000D02*
X147280000Y-77470000D01*
X274280000Y-80050000D02*
X274320000Y-80010000D01*
X149860000Y-80050000D02*
X274280000Y-80050000D01*
%TO.N,Net-(D1-Pad1)*%
X61595000Y-91440000D02*
X66675000Y-96520000D01*
X66675000Y-96520000D02*
X67310000Y-96520000D01*
X60960000Y-91440000D02*
X61595000Y-91440000D01*
%TO.N,Net-(J1-Pad1)*%
X59690000Y-96395998D02*
X59690000Y-96520000D01*
X58420000Y-78740000D02*
X58420000Y-83185000D01*
X45720000Y-78105000D02*
X48260000Y-78105000D01*
X48260000Y-78105000D02*
X55880000Y-85725000D01*
X58420000Y-83185000D02*
X55880000Y-85725000D01*
X59690000Y-96644002D02*
X59690000Y-96520000D01*
X58014001Y-98320001D02*
X59690000Y-96644002D01*
X47520001Y-98320001D02*
X58014001Y-98320001D01*
X45720000Y-96520000D02*
X47520001Y-98320001D01*
X55880000Y-90360000D02*
X55880000Y-85725000D01*
X59690000Y-94170000D02*
X55880000Y-90360000D01*
X59690000Y-96520000D02*
X59690000Y-94170000D01*
%TO.N,+5V*%
X143510000Y-90170000D02*
X151130000Y-97790000D01*
X143510000Y-87630000D02*
X143510000Y-90170000D01*
X156210000Y-92710000D02*
X158750000Y-92710000D01*
X151130000Y-97790000D02*
X156210000Y-92710000D01*
X158750000Y-92710000D02*
X274320000Y-92710000D01*
D27*
X151130000Y-98840000D02*
X147100000Y-102870000D01*
X151130000Y-97790000D02*
X151130000Y-98840000D01*
X114060002Y-102870000D02*
X112155002Y-100965000D01*
X147100000Y-102870000D02*
X114060002Y-102870000D01*
X82550000Y-100965000D02*
X77470000Y-95885000D01*
X112155002Y-100965000D02*
X82550000Y-100965000D01*
D26*
%TO.N,Gate*%
X158750000Y-97790000D02*
X274320000Y-97790000D01*
%TO.N,CV*%
X274320000Y-95250000D02*
X158750000Y-95250000D01*
%TO.N,+15V*%
X130810000Y-99060000D02*
X113030000Y-99060000D01*
%TO.N,-15V*%
X120610000Y-78740000D02*
X120650000Y-78780000D01*
X113030000Y-78740000D02*
X120610000Y-78740000D01*
X123011370Y-80010000D02*
X130810000Y-80010000D01*
X121781370Y-78780000D02*
X123011370Y-80010000D01*
X120650000Y-78780000D02*
X121781370Y-78780000D01*
%TO.N,Net-(C7-Pad1)*%
X83820000Y-88900000D02*
X81280000Y-91440000D01*
X83820000Y-85090000D02*
X83820000Y-88900000D01*
X77470000Y-91440000D02*
X81280000Y-91440000D01*
X68580000Y-100330000D02*
X77470000Y-91440000D01*
X60960000Y-100330000D02*
X68580000Y-100330000D01*
%TO.N,Net-(C8-Pad1)*%
X88900000Y-88900000D02*
X91440000Y-91440000D01*
X88900000Y-85090000D02*
X88900000Y-88900000D01*
X95250000Y-91440000D02*
X91440000Y-91440000D01*
X102870000Y-99060000D02*
X95250000Y-91440000D01*
X96520000Y-85090000D02*
X102870000Y-78740000D01*
X88900000Y-85090000D02*
X96520000Y-85090000D01*
%TD*%
M02*
