%TF.GenerationSoftware,KiCad,Pcbnew,5.1.6*%
%TF.CreationDate,2020-09-08T23:32:54+02:00*%
%TF.ProjectId,psu,7073752e-6b69-4636-9164-5f7063625858,rev?*%
%TF.SameCoordinates,Original*%
%TF.FileFunction,Legend,Top*%
%TF.FilePolarity,Positive*%
%FSLAX46Y46*%
G04 Gerber Fmt 4.6, Leading zero omitted, Abs format (unit mm)*
G04 Created by KiCad (PCBNEW 5.1.6) date 2020-09-08 23:32:54*
%MOMM*%
%LPD*%
G01*
G04 APERTURE LIST*
%ADD10C,0.120000*%
%ADD11C,0.500000*%
%ADD12C,0.150000*%
G04 APERTURE END LIST*
D10*
%TO.C,U5*%
X88211000Y-81820000D02*
X88211000Y-83330000D01*
X84510000Y-81820000D02*
X84510000Y-83330000D01*
X81240000Y-83330000D02*
X91480000Y-83330000D01*
X91480000Y-81820000D02*
X91480000Y-86461000D01*
X81240000Y-81820000D02*
X81240000Y-86461000D01*
X81240000Y-86461000D02*
X91480000Y-86461000D01*
X81240000Y-81820000D02*
X91480000Y-81820000D01*
%TO.C,R3*%
X111990000Y-103505000D02*
X111220000Y-103505000D01*
X103910000Y-103505000D02*
X104680000Y-103505000D01*
X111220000Y-102135000D02*
X104680000Y-102135000D01*
X111220000Y-104875000D02*
X111220000Y-102135000D01*
X104680000Y-104875000D02*
X111220000Y-104875000D01*
X104680000Y-102135000D02*
X104680000Y-104875000D01*
%TO.C,R2*%
X59920000Y-100330000D02*
X59150000Y-100330000D01*
X51840000Y-100330000D02*
X52610000Y-100330000D01*
X59150000Y-98960000D02*
X52610000Y-98960000D01*
X59150000Y-101700000D02*
X59150000Y-98960000D01*
X52610000Y-101700000D02*
X59150000Y-101700000D01*
X52610000Y-98960000D02*
X52610000Y-101700000D01*
%TO.C,D3*%
X106010000Y-77270000D02*
X106010000Y-80210000D01*
X106250000Y-77270000D02*
X106250000Y-80210000D01*
X106130000Y-77270000D02*
X106130000Y-80210000D01*
X111690000Y-78740000D02*
X110670000Y-78740000D01*
X104210000Y-78740000D02*
X105230000Y-78740000D01*
X110670000Y-77270000D02*
X105230000Y-77270000D01*
X110670000Y-80210000D02*
X110670000Y-77270000D01*
X105230000Y-80210000D02*
X110670000Y-80210000D01*
X105230000Y-77270000D02*
X105230000Y-80210000D01*
%TO.C,D2*%
X109890000Y-100530000D02*
X109890000Y-97590000D01*
X109650000Y-100530000D02*
X109650000Y-97590000D01*
X109770000Y-100530000D02*
X109770000Y-97590000D01*
X104210000Y-99060000D02*
X105230000Y-99060000D01*
X111690000Y-99060000D02*
X110670000Y-99060000D01*
X105230000Y-100530000D02*
X110670000Y-100530000D01*
X105230000Y-97590000D02*
X105230000Y-100530000D01*
X110670000Y-97590000D02*
X105230000Y-97590000D01*
X110670000Y-100530000D02*
X110670000Y-97590000D01*
%TO.C,C8*%
X93594000Y-89504759D02*
X92964000Y-89504759D01*
X93279000Y-89189759D02*
X93279000Y-89819759D01*
X91842000Y-95931000D02*
X91038000Y-95931000D01*
X92073000Y-95891000D02*
X90807000Y-95891000D01*
X92242000Y-95851000D02*
X90638000Y-95851000D01*
X92380000Y-95811000D02*
X90500000Y-95811000D01*
X92499000Y-95771000D02*
X90381000Y-95771000D01*
X92605000Y-95731000D02*
X90275000Y-95731000D01*
X92702000Y-95691000D02*
X90178000Y-95691000D01*
X92790000Y-95651000D02*
X90090000Y-95651000D01*
X92872000Y-95611000D02*
X90008000Y-95611000D01*
X92949000Y-95571000D02*
X89931000Y-95571000D01*
X93021000Y-95531000D02*
X89859000Y-95531000D01*
X93090000Y-95491000D02*
X89790000Y-95491000D01*
X93154000Y-95451000D02*
X89726000Y-95451000D01*
X93216000Y-95411000D02*
X89664000Y-95411000D01*
X93274000Y-95371000D02*
X89606000Y-95371000D01*
X93330000Y-95331000D02*
X89550000Y-95331000D01*
X93384000Y-95291000D02*
X89496000Y-95291000D01*
X93435000Y-95251000D02*
X89445000Y-95251000D01*
X93484000Y-95211000D02*
X89396000Y-95211000D01*
X93532000Y-95171000D02*
X89348000Y-95171000D01*
X93577000Y-95131000D02*
X89303000Y-95131000D01*
X93622000Y-95091000D02*
X89258000Y-95091000D01*
X93664000Y-95051000D02*
X89216000Y-95051000D01*
X93705000Y-95011000D02*
X89175000Y-95011000D01*
X90400000Y-94971000D02*
X89135000Y-94971000D01*
X93745000Y-94971000D02*
X92480000Y-94971000D01*
X90400000Y-94931000D02*
X89097000Y-94931000D01*
X93783000Y-94931000D02*
X92480000Y-94931000D01*
X90400000Y-94891000D02*
X89060000Y-94891000D01*
X93820000Y-94891000D02*
X92480000Y-94891000D01*
X90400000Y-94851000D02*
X89024000Y-94851000D01*
X93856000Y-94851000D02*
X92480000Y-94851000D01*
X90400000Y-94811000D02*
X88990000Y-94811000D01*
X93890000Y-94811000D02*
X92480000Y-94811000D01*
X90400000Y-94771000D02*
X88956000Y-94771000D01*
X93924000Y-94771000D02*
X92480000Y-94771000D01*
X90400000Y-94731000D02*
X88924000Y-94731000D01*
X93956000Y-94731000D02*
X92480000Y-94731000D01*
X90400000Y-94691000D02*
X88892000Y-94691000D01*
X93988000Y-94691000D02*
X92480000Y-94691000D01*
X90400000Y-94651000D02*
X88862000Y-94651000D01*
X94018000Y-94651000D02*
X92480000Y-94651000D01*
X90400000Y-94611000D02*
X88833000Y-94611000D01*
X94047000Y-94611000D02*
X92480000Y-94611000D01*
X90400000Y-94571000D02*
X88804000Y-94571000D01*
X94076000Y-94571000D02*
X92480000Y-94571000D01*
X90400000Y-94531000D02*
X88776000Y-94531000D01*
X94104000Y-94531000D02*
X92480000Y-94531000D01*
X90400000Y-94491000D02*
X88750000Y-94491000D01*
X94130000Y-94491000D02*
X92480000Y-94491000D01*
X90400000Y-94451000D02*
X88724000Y-94451000D01*
X94156000Y-94451000D02*
X92480000Y-94451000D01*
X90400000Y-94411000D02*
X88698000Y-94411000D01*
X94182000Y-94411000D02*
X92480000Y-94411000D01*
X90400000Y-94371000D02*
X88674000Y-94371000D01*
X94206000Y-94371000D02*
X92480000Y-94371000D01*
X90400000Y-94331000D02*
X88650000Y-94331000D01*
X94230000Y-94331000D02*
X92480000Y-94331000D01*
X90400000Y-94291000D02*
X88628000Y-94291000D01*
X94252000Y-94291000D02*
X92480000Y-94291000D01*
X90400000Y-94251000D02*
X88606000Y-94251000D01*
X94274000Y-94251000D02*
X92480000Y-94251000D01*
X90400000Y-94211000D02*
X88584000Y-94211000D01*
X94296000Y-94211000D02*
X92480000Y-94211000D01*
X90400000Y-94171000D02*
X88564000Y-94171000D01*
X94316000Y-94171000D02*
X92480000Y-94171000D01*
X90400000Y-94131000D02*
X88544000Y-94131000D01*
X94336000Y-94131000D02*
X92480000Y-94131000D01*
X90400000Y-94091000D02*
X88524000Y-94091000D01*
X94356000Y-94091000D02*
X92480000Y-94091000D01*
X90400000Y-94051000D02*
X88506000Y-94051000D01*
X94374000Y-94051000D02*
X92480000Y-94051000D01*
X90400000Y-94011000D02*
X88488000Y-94011000D01*
X94392000Y-94011000D02*
X92480000Y-94011000D01*
X90400000Y-93971000D02*
X88470000Y-93971000D01*
X94410000Y-93971000D02*
X92480000Y-93971000D01*
X90400000Y-93931000D02*
X88454000Y-93931000D01*
X94426000Y-93931000D02*
X92480000Y-93931000D01*
X90400000Y-93891000D02*
X88438000Y-93891000D01*
X94442000Y-93891000D02*
X92480000Y-93891000D01*
X90400000Y-93851000D02*
X88422000Y-93851000D01*
X94458000Y-93851000D02*
X92480000Y-93851000D01*
X90400000Y-93811000D02*
X88407000Y-93811000D01*
X94473000Y-93811000D02*
X92480000Y-93811000D01*
X90400000Y-93771000D02*
X88393000Y-93771000D01*
X94487000Y-93771000D02*
X92480000Y-93771000D01*
X90400000Y-93731000D02*
X88379000Y-93731000D01*
X94501000Y-93731000D02*
X92480000Y-93731000D01*
X90400000Y-93691000D02*
X88366000Y-93691000D01*
X94514000Y-93691000D02*
X92480000Y-93691000D01*
X90400000Y-93651000D02*
X88354000Y-93651000D01*
X94526000Y-93651000D02*
X92480000Y-93651000D01*
X90400000Y-93611000D02*
X88342000Y-93611000D01*
X94538000Y-93611000D02*
X92480000Y-93611000D01*
X90400000Y-93571000D02*
X88330000Y-93571000D01*
X94550000Y-93571000D02*
X92480000Y-93571000D01*
X90400000Y-93531000D02*
X88319000Y-93531000D01*
X94561000Y-93531000D02*
X92480000Y-93531000D01*
X90400000Y-93491000D02*
X88309000Y-93491000D01*
X94571000Y-93491000D02*
X92480000Y-93491000D01*
X90400000Y-93451000D02*
X88299000Y-93451000D01*
X94581000Y-93451000D02*
X92480000Y-93451000D01*
X90400000Y-93411000D02*
X88290000Y-93411000D01*
X94590000Y-93411000D02*
X92480000Y-93411000D01*
X90400000Y-93370000D02*
X88281000Y-93370000D01*
X94599000Y-93370000D02*
X92480000Y-93370000D01*
X90400000Y-93330000D02*
X88273000Y-93330000D01*
X94607000Y-93330000D02*
X92480000Y-93330000D01*
X90400000Y-93290000D02*
X88265000Y-93290000D01*
X94615000Y-93290000D02*
X92480000Y-93290000D01*
X90400000Y-93250000D02*
X88258000Y-93250000D01*
X94622000Y-93250000D02*
X92480000Y-93250000D01*
X90400000Y-93210000D02*
X88251000Y-93210000D01*
X94629000Y-93210000D02*
X92480000Y-93210000D01*
X90400000Y-93170000D02*
X88245000Y-93170000D01*
X94635000Y-93170000D02*
X92480000Y-93170000D01*
X90400000Y-93130000D02*
X88239000Y-93130000D01*
X94641000Y-93130000D02*
X92480000Y-93130000D01*
X90400000Y-93090000D02*
X88234000Y-93090000D01*
X94646000Y-93090000D02*
X92480000Y-93090000D01*
X90400000Y-93050000D02*
X88229000Y-93050000D01*
X94651000Y-93050000D02*
X92480000Y-93050000D01*
X90400000Y-93010000D02*
X88225000Y-93010000D01*
X94655000Y-93010000D02*
X92480000Y-93010000D01*
X90400000Y-92970000D02*
X88222000Y-92970000D01*
X94658000Y-92970000D02*
X92480000Y-92970000D01*
X90400000Y-92930000D02*
X88218000Y-92930000D01*
X94662000Y-92930000D02*
X92480000Y-92930000D01*
X94664000Y-92890000D02*
X88216000Y-92890000D01*
X94667000Y-92850000D02*
X88213000Y-92850000D01*
X94668000Y-92810000D02*
X88212000Y-92810000D01*
X94670000Y-92770000D02*
X88210000Y-92770000D01*
X94670000Y-92730000D02*
X88210000Y-92730000D01*
X94670000Y-92690000D02*
X88210000Y-92690000D01*
X94710000Y-92690000D02*
G75*
G03*
X94710000Y-92690000I-3270000J0D01*
G01*
%TO.C,C7*%
X83434000Y-89504759D02*
X82804000Y-89504759D01*
X83119000Y-89189759D02*
X83119000Y-89819759D01*
X81682000Y-95931000D02*
X80878000Y-95931000D01*
X81913000Y-95891000D02*
X80647000Y-95891000D01*
X82082000Y-95851000D02*
X80478000Y-95851000D01*
X82220000Y-95811000D02*
X80340000Y-95811000D01*
X82339000Y-95771000D02*
X80221000Y-95771000D01*
X82445000Y-95731000D02*
X80115000Y-95731000D01*
X82542000Y-95691000D02*
X80018000Y-95691000D01*
X82630000Y-95651000D02*
X79930000Y-95651000D01*
X82712000Y-95611000D02*
X79848000Y-95611000D01*
X82789000Y-95571000D02*
X79771000Y-95571000D01*
X82861000Y-95531000D02*
X79699000Y-95531000D01*
X82930000Y-95491000D02*
X79630000Y-95491000D01*
X82994000Y-95451000D02*
X79566000Y-95451000D01*
X83056000Y-95411000D02*
X79504000Y-95411000D01*
X83114000Y-95371000D02*
X79446000Y-95371000D01*
X83170000Y-95331000D02*
X79390000Y-95331000D01*
X83224000Y-95291000D02*
X79336000Y-95291000D01*
X83275000Y-95251000D02*
X79285000Y-95251000D01*
X83324000Y-95211000D02*
X79236000Y-95211000D01*
X83372000Y-95171000D02*
X79188000Y-95171000D01*
X83417000Y-95131000D02*
X79143000Y-95131000D01*
X83462000Y-95091000D02*
X79098000Y-95091000D01*
X83504000Y-95051000D02*
X79056000Y-95051000D01*
X83545000Y-95011000D02*
X79015000Y-95011000D01*
X80240000Y-94971000D02*
X78975000Y-94971000D01*
X83585000Y-94971000D02*
X82320000Y-94971000D01*
X80240000Y-94931000D02*
X78937000Y-94931000D01*
X83623000Y-94931000D02*
X82320000Y-94931000D01*
X80240000Y-94891000D02*
X78900000Y-94891000D01*
X83660000Y-94891000D02*
X82320000Y-94891000D01*
X80240000Y-94851000D02*
X78864000Y-94851000D01*
X83696000Y-94851000D02*
X82320000Y-94851000D01*
X80240000Y-94811000D02*
X78830000Y-94811000D01*
X83730000Y-94811000D02*
X82320000Y-94811000D01*
X80240000Y-94771000D02*
X78796000Y-94771000D01*
X83764000Y-94771000D02*
X82320000Y-94771000D01*
X80240000Y-94731000D02*
X78764000Y-94731000D01*
X83796000Y-94731000D02*
X82320000Y-94731000D01*
X80240000Y-94691000D02*
X78732000Y-94691000D01*
X83828000Y-94691000D02*
X82320000Y-94691000D01*
X80240000Y-94651000D02*
X78702000Y-94651000D01*
X83858000Y-94651000D02*
X82320000Y-94651000D01*
X80240000Y-94611000D02*
X78673000Y-94611000D01*
X83887000Y-94611000D02*
X82320000Y-94611000D01*
X80240000Y-94571000D02*
X78644000Y-94571000D01*
X83916000Y-94571000D02*
X82320000Y-94571000D01*
X80240000Y-94531000D02*
X78616000Y-94531000D01*
X83944000Y-94531000D02*
X82320000Y-94531000D01*
X80240000Y-94491000D02*
X78590000Y-94491000D01*
X83970000Y-94491000D02*
X82320000Y-94491000D01*
X80240000Y-94451000D02*
X78564000Y-94451000D01*
X83996000Y-94451000D02*
X82320000Y-94451000D01*
X80240000Y-94411000D02*
X78538000Y-94411000D01*
X84022000Y-94411000D02*
X82320000Y-94411000D01*
X80240000Y-94371000D02*
X78514000Y-94371000D01*
X84046000Y-94371000D02*
X82320000Y-94371000D01*
X80240000Y-94331000D02*
X78490000Y-94331000D01*
X84070000Y-94331000D02*
X82320000Y-94331000D01*
X80240000Y-94291000D02*
X78468000Y-94291000D01*
X84092000Y-94291000D02*
X82320000Y-94291000D01*
X80240000Y-94251000D02*
X78446000Y-94251000D01*
X84114000Y-94251000D02*
X82320000Y-94251000D01*
X80240000Y-94211000D02*
X78424000Y-94211000D01*
X84136000Y-94211000D02*
X82320000Y-94211000D01*
X80240000Y-94171000D02*
X78404000Y-94171000D01*
X84156000Y-94171000D02*
X82320000Y-94171000D01*
X80240000Y-94131000D02*
X78384000Y-94131000D01*
X84176000Y-94131000D02*
X82320000Y-94131000D01*
X80240000Y-94091000D02*
X78364000Y-94091000D01*
X84196000Y-94091000D02*
X82320000Y-94091000D01*
X80240000Y-94051000D02*
X78346000Y-94051000D01*
X84214000Y-94051000D02*
X82320000Y-94051000D01*
X80240000Y-94011000D02*
X78328000Y-94011000D01*
X84232000Y-94011000D02*
X82320000Y-94011000D01*
X80240000Y-93971000D02*
X78310000Y-93971000D01*
X84250000Y-93971000D02*
X82320000Y-93971000D01*
X80240000Y-93931000D02*
X78294000Y-93931000D01*
X84266000Y-93931000D02*
X82320000Y-93931000D01*
X80240000Y-93891000D02*
X78278000Y-93891000D01*
X84282000Y-93891000D02*
X82320000Y-93891000D01*
X80240000Y-93851000D02*
X78262000Y-93851000D01*
X84298000Y-93851000D02*
X82320000Y-93851000D01*
X80240000Y-93811000D02*
X78247000Y-93811000D01*
X84313000Y-93811000D02*
X82320000Y-93811000D01*
X80240000Y-93771000D02*
X78233000Y-93771000D01*
X84327000Y-93771000D02*
X82320000Y-93771000D01*
X80240000Y-93731000D02*
X78219000Y-93731000D01*
X84341000Y-93731000D02*
X82320000Y-93731000D01*
X80240000Y-93691000D02*
X78206000Y-93691000D01*
X84354000Y-93691000D02*
X82320000Y-93691000D01*
X80240000Y-93651000D02*
X78194000Y-93651000D01*
X84366000Y-93651000D02*
X82320000Y-93651000D01*
X80240000Y-93611000D02*
X78182000Y-93611000D01*
X84378000Y-93611000D02*
X82320000Y-93611000D01*
X80240000Y-93571000D02*
X78170000Y-93571000D01*
X84390000Y-93571000D02*
X82320000Y-93571000D01*
X80240000Y-93531000D02*
X78159000Y-93531000D01*
X84401000Y-93531000D02*
X82320000Y-93531000D01*
X80240000Y-93491000D02*
X78149000Y-93491000D01*
X84411000Y-93491000D02*
X82320000Y-93491000D01*
X80240000Y-93451000D02*
X78139000Y-93451000D01*
X84421000Y-93451000D02*
X82320000Y-93451000D01*
X80240000Y-93411000D02*
X78130000Y-93411000D01*
X84430000Y-93411000D02*
X82320000Y-93411000D01*
X80240000Y-93370000D02*
X78121000Y-93370000D01*
X84439000Y-93370000D02*
X82320000Y-93370000D01*
X80240000Y-93330000D02*
X78113000Y-93330000D01*
X84447000Y-93330000D02*
X82320000Y-93330000D01*
X80240000Y-93290000D02*
X78105000Y-93290000D01*
X84455000Y-93290000D02*
X82320000Y-93290000D01*
X80240000Y-93250000D02*
X78098000Y-93250000D01*
X84462000Y-93250000D02*
X82320000Y-93250000D01*
X80240000Y-93210000D02*
X78091000Y-93210000D01*
X84469000Y-93210000D02*
X82320000Y-93210000D01*
X80240000Y-93170000D02*
X78085000Y-93170000D01*
X84475000Y-93170000D02*
X82320000Y-93170000D01*
X80240000Y-93130000D02*
X78079000Y-93130000D01*
X84481000Y-93130000D02*
X82320000Y-93130000D01*
X80240000Y-93090000D02*
X78074000Y-93090000D01*
X84486000Y-93090000D02*
X82320000Y-93090000D01*
X80240000Y-93050000D02*
X78069000Y-93050000D01*
X84491000Y-93050000D02*
X82320000Y-93050000D01*
X80240000Y-93010000D02*
X78065000Y-93010000D01*
X84495000Y-93010000D02*
X82320000Y-93010000D01*
X80240000Y-92970000D02*
X78062000Y-92970000D01*
X84498000Y-92970000D02*
X82320000Y-92970000D01*
X80240000Y-92930000D02*
X78058000Y-92930000D01*
X84502000Y-92930000D02*
X82320000Y-92930000D01*
X84504000Y-92890000D02*
X78056000Y-92890000D01*
X84507000Y-92850000D02*
X78053000Y-92850000D01*
X84508000Y-92810000D02*
X78052000Y-92810000D01*
X84510000Y-92770000D02*
X78050000Y-92770000D01*
X84510000Y-92730000D02*
X78050000Y-92730000D01*
X84510000Y-92690000D02*
X78050000Y-92690000D01*
X84550000Y-92690000D02*
G75*
G03*
X84550000Y-92690000I-3270000J0D01*
G01*
%TO.C,J3*%
X58720000Y-81340000D02*
X58120000Y-81340000D01*
X58420000Y-80740000D02*
X58720000Y-81340000D01*
X58120000Y-81340000D02*
X58420000Y-80740000D01*
X60980000Y-73940000D02*
X52360000Y-73940000D01*
X57370000Y-80050000D02*
X55970000Y-80050000D01*
X52360000Y-80050000D02*
X53870000Y-80050000D01*
X60980000Y-80050000D02*
X59470000Y-80050000D01*
X52360000Y-70630000D02*
X52360000Y-80050000D01*
X60980000Y-70630000D02*
X52360000Y-70630000D01*
X60980000Y-80050000D02*
X60980000Y-70630000D01*
%TO.C,J2*%
X48320000Y-77805000D02*
X48320000Y-78405000D01*
X47720000Y-78105000D02*
X48320000Y-77805000D01*
X48320000Y-78405000D02*
X47720000Y-78105000D01*
X40920000Y-75545000D02*
X40920000Y-84165000D01*
X47030000Y-79155000D02*
X47030000Y-80555000D01*
X47030000Y-84165000D02*
X47030000Y-82655000D01*
X47030000Y-75545000D02*
X47030000Y-77055000D01*
X37610000Y-84165000D02*
X47030000Y-84165000D01*
X37610000Y-75545000D02*
X37610000Y-84165000D01*
X47030000Y-75545000D02*
X37610000Y-75545000D01*
%TO.C,J1*%
X48320000Y-96220000D02*
X48320000Y-96820000D01*
X47720000Y-96520000D02*
X48320000Y-96220000D01*
X48320000Y-96820000D02*
X47720000Y-96520000D01*
X40920000Y-93960000D02*
X40920000Y-102580000D01*
X47030000Y-97570000D02*
X47030000Y-98970000D01*
X47030000Y-102580000D02*
X47030000Y-101070000D01*
X47030000Y-93960000D02*
X47030000Y-95470000D01*
X37610000Y-102580000D02*
X47030000Y-102580000D01*
X37610000Y-93960000D02*
X37610000Y-102580000D01*
X47030000Y-93960000D02*
X37610000Y-93960000D01*
%TO.C,U3*%
X127540000Y-85130000D02*
X127540000Y-74890000D01*
X132181000Y-85130000D02*
X132181000Y-74890000D01*
X127540000Y-85130000D02*
X132181000Y-85130000D01*
X127540000Y-74890000D02*
X132181000Y-74890000D01*
X129050000Y-85130000D02*
X129050000Y-74890000D01*
X127540000Y-81860000D02*
X129050000Y-81860000D01*
X127540000Y-78159000D02*
X129050000Y-78159000D01*
%TO.C,U2*%
X127540000Y-101640000D02*
X127540000Y-91400000D01*
X132181000Y-101640000D02*
X132181000Y-91400000D01*
X127540000Y-101640000D02*
X132181000Y-101640000D01*
X127540000Y-91400000D02*
X132181000Y-91400000D01*
X129050000Y-101640000D02*
X129050000Y-91400000D01*
X127540000Y-98370000D02*
X129050000Y-98370000D01*
X127540000Y-94669000D02*
X129050000Y-94669000D01*
%TO.C,J13*%
X270450000Y-99120000D02*
X275650000Y-99120000D01*
X270450000Y-81280000D02*
X270450000Y-99120000D01*
X275650000Y-78680000D02*
X275650000Y-99120000D01*
X270450000Y-81280000D02*
X273050000Y-81280000D01*
X273050000Y-81280000D02*
X273050000Y-78680000D01*
X273050000Y-78680000D02*
X275650000Y-78680000D01*
X270450000Y-80010000D02*
X270450000Y-78680000D01*
X270450000Y-78680000D02*
X271780000Y-78680000D01*
%TO.C,J12*%
X258154759Y-99120000D02*
X263354759Y-99120000D01*
X258154759Y-81280000D02*
X258154759Y-99120000D01*
X263354759Y-78680000D02*
X263354759Y-99120000D01*
X258154759Y-81280000D02*
X260754759Y-81280000D01*
X260754759Y-81280000D02*
X260754759Y-78680000D01*
X260754759Y-78680000D02*
X263354759Y-78680000D01*
X258154759Y-80010000D02*
X258154759Y-78680000D01*
X258154759Y-78680000D02*
X259484759Y-78680000D01*
%TO.C,J11*%
X246320000Y-99120000D02*
X251520000Y-99120000D01*
X246320000Y-81280000D02*
X246320000Y-99120000D01*
X251520000Y-78680000D02*
X251520000Y-99120000D01*
X246320000Y-81280000D02*
X248920000Y-81280000D01*
X248920000Y-81280000D02*
X248920000Y-78680000D01*
X248920000Y-78680000D02*
X251520000Y-78680000D01*
X246320000Y-80010000D02*
X246320000Y-78680000D01*
X246320000Y-78680000D02*
X247650000Y-78680000D01*
%TO.C,J10*%
X233620000Y-99120000D02*
X238820000Y-99120000D01*
X233620000Y-81280000D02*
X233620000Y-99120000D01*
X238820000Y-78680000D02*
X238820000Y-99120000D01*
X233620000Y-81280000D02*
X236220000Y-81280000D01*
X236220000Y-81280000D02*
X236220000Y-78680000D01*
X236220000Y-78680000D02*
X238820000Y-78680000D01*
X233620000Y-80010000D02*
X233620000Y-78680000D01*
X233620000Y-78680000D02*
X234950000Y-78680000D01*
%TO.C,J9*%
X220920000Y-99120000D02*
X226120000Y-99120000D01*
X220920000Y-81280000D02*
X220920000Y-99120000D01*
X226120000Y-78680000D02*
X226120000Y-99120000D01*
X220920000Y-81280000D02*
X223520000Y-81280000D01*
X223520000Y-81280000D02*
X223520000Y-78680000D01*
X223520000Y-78680000D02*
X226120000Y-78680000D01*
X220920000Y-80010000D02*
X220920000Y-78680000D01*
X220920000Y-78680000D02*
X222250000Y-78680000D01*
%TO.C,J8*%
X208220000Y-99120000D02*
X213420000Y-99120000D01*
X208220000Y-81280000D02*
X208220000Y-99120000D01*
X213420000Y-78680000D02*
X213420000Y-99120000D01*
X208220000Y-81280000D02*
X210820000Y-81280000D01*
X210820000Y-81280000D02*
X210820000Y-78680000D01*
X210820000Y-78680000D02*
X213420000Y-78680000D01*
X208220000Y-80010000D02*
X208220000Y-78680000D01*
X208220000Y-78680000D02*
X209550000Y-78680000D01*
%TO.C,J7*%
X195520000Y-99120000D02*
X200720000Y-99120000D01*
X195520000Y-81280000D02*
X195520000Y-99120000D01*
X200720000Y-78680000D02*
X200720000Y-99120000D01*
X195520000Y-81280000D02*
X198120000Y-81280000D01*
X198120000Y-81280000D02*
X198120000Y-78680000D01*
X198120000Y-78680000D02*
X200720000Y-78680000D01*
X195520000Y-80010000D02*
X195520000Y-78680000D01*
X195520000Y-78680000D02*
X196850000Y-78680000D01*
%TO.C,J6*%
X182820000Y-99120000D02*
X188020000Y-99120000D01*
X182820000Y-81280000D02*
X182820000Y-99120000D01*
X188020000Y-78680000D02*
X188020000Y-99120000D01*
X182820000Y-81280000D02*
X185420000Y-81280000D01*
X185420000Y-81280000D02*
X185420000Y-78680000D01*
X185420000Y-78680000D02*
X188020000Y-78680000D01*
X182820000Y-80010000D02*
X182820000Y-78680000D01*
X182820000Y-78680000D02*
X184150000Y-78680000D01*
%TO.C,J5*%
X170120000Y-99120000D02*
X175320000Y-99120000D01*
X170120000Y-81280000D02*
X170120000Y-99120000D01*
X175320000Y-78680000D02*
X175320000Y-99120000D01*
X170120000Y-81280000D02*
X172720000Y-81280000D01*
X172720000Y-81280000D02*
X172720000Y-78680000D01*
X172720000Y-78680000D02*
X175320000Y-78680000D01*
X170120000Y-80010000D02*
X170120000Y-78680000D01*
X170120000Y-78680000D02*
X171450000Y-78680000D01*
%TO.C,J4*%
X157420000Y-99120000D02*
X162620000Y-99120000D01*
X157420000Y-81280000D02*
X157420000Y-99120000D01*
X162620000Y-78680000D02*
X162620000Y-99120000D01*
X157420000Y-81280000D02*
X160020000Y-81280000D01*
X160020000Y-81280000D02*
X160020000Y-78680000D01*
X160020000Y-78680000D02*
X162620000Y-78680000D01*
X157420000Y-80010000D02*
X157420000Y-78680000D01*
X157420000Y-78680000D02*
X158750000Y-78680000D01*
%TO.C,C6*%
X153150000Y-97790000D02*
G75*
G03*
X153150000Y-97790000I-3270000J0D01*
G01*
X149880000Y-101020000D02*
X149880000Y-94560000D01*
X149840000Y-101020000D02*
X149840000Y-94560000D01*
X149800000Y-101020000D02*
X149800000Y-94560000D01*
X149760000Y-101018000D02*
X149760000Y-94562000D01*
X149720000Y-101017000D02*
X149720000Y-94563000D01*
X149680000Y-101014000D02*
X149680000Y-94566000D01*
X149640000Y-101012000D02*
X149640000Y-98830000D01*
X149640000Y-96750000D02*
X149640000Y-94568000D01*
X149600000Y-101008000D02*
X149600000Y-98830000D01*
X149600000Y-96750000D02*
X149600000Y-94572000D01*
X149560000Y-101005000D02*
X149560000Y-98830000D01*
X149560000Y-96750000D02*
X149560000Y-94575000D01*
X149520000Y-101001000D02*
X149520000Y-98830000D01*
X149520000Y-96750000D02*
X149520000Y-94579000D01*
X149480000Y-100996000D02*
X149480000Y-98830000D01*
X149480000Y-96750000D02*
X149480000Y-94584000D01*
X149440000Y-100991000D02*
X149440000Y-98830000D01*
X149440000Y-96750000D02*
X149440000Y-94589000D01*
X149400000Y-100985000D02*
X149400000Y-98830000D01*
X149400000Y-96750000D02*
X149400000Y-94595000D01*
X149360000Y-100979000D02*
X149360000Y-98830000D01*
X149360000Y-96750000D02*
X149360000Y-94601000D01*
X149320000Y-100972000D02*
X149320000Y-98830000D01*
X149320000Y-96750000D02*
X149320000Y-94608000D01*
X149280000Y-100965000D02*
X149280000Y-98830000D01*
X149280000Y-96750000D02*
X149280000Y-94615000D01*
X149240000Y-100957000D02*
X149240000Y-98830000D01*
X149240000Y-96750000D02*
X149240000Y-94623000D01*
X149200000Y-100949000D02*
X149200000Y-98830000D01*
X149200000Y-96750000D02*
X149200000Y-94631000D01*
X149159000Y-100940000D02*
X149159000Y-98830000D01*
X149159000Y-96750000D02*
X149159000Y-94640000D01*
X149119000Y-100931000D02*
X149119000Y-98830000D01*
X149119000Y-96750000D02*
X149119000Y-94649000D01*
X149079000Y-100921000D02*
X149079000Y-98830000D01*
X149079000Y-96750000D02*
X149079000Y-94659000D01*
X149039000Y-100911000D02*
X149039000Y-98830000D01*
X149039000Y-96750000D02*
X149039000Y-94669000D01*
X148999000Y-100900000D02*
X148999000Y-98830000D01*
X148999000Y-96750000D02*
X148999000Y-94680000D01*
X148959000Y-100888000D02*
X148959000Y-98830000D01*
X148959000Y-96750000D02*
X148959000Y-94692000D01*
X148919000Y-100876000D02*
X148919000Y-98830000D01*
X148919000Y-96750000D02*
X148919000Y-94704000D01*
X148879000Y-100864000D02*
X148879000Y-98830000D01*
X148879000Y-96750000D02*
X148879000Y-94716000D01*
X148839000Y-100851000D02*
X148839000Y-98830000D01*
X148839000Y-96750000D02*
X148839000Y-94729000D01*
X148799000Y-100837000D02*
X148799000Y-98830000D01*
X148799000Y-96750000D02*
X148799000Y-94743000D01*
X148759000Y-100823000D02*
X148759000Y-98830000D01*
X148759000Y-96750000D02*
X148759000Y-94757000D01*
X148719000Y-100808000D02*
X148719000Y-98830000D01*
X148719000Y-96750000D02*
X148719000Y-94772000D01*
X148679000Y-100792000D02*
X148679000Y-98830000D01*
X148679000Y-96750000D02*
X148679000Y-94788000D01*
X148639000Y-100776000D02*
X148639000Y-98830000D01*
X148639000Y-96750000D02*
X148639000Y-94804000D01*
X148599000Y-100760000D02*
X148599000Y-98830000D01*
X148599000Y-96750000D02*
X148599000Y-94820000D01*
X148559000Y-100742000D02*
X148559000Y-98830000D01*
X148559000Y-96750000D02*
X148559000Y-94838000D01*
X148519000Y-100724000D02*
X148519000Y-98830000D01*
X148519000Y-96750000D02*
X148519000Y-94856000D01*
X148479000Y-100706000D02*
X148479000Y-98830000D01*
X148479000Y-96750000D02*
X148479000Y-94874000D01*
X148439000Y-100686000D02*
X148439000Y-98830000D01*
X148439000Y-96750000D02*
X148439000Y-94894000D01*
X148399000Y-100666000D02*
X148399000Y-98830000D01*
X148399000Y-96750000D02*
X148399000Y-94914000D01*
X148359000Y-100646000D02*
X148359000Y-98830000D01*
X148359000Y-96750000D02*
X148359000Y-94934000D01*
X148319000Y-100624000D02*
X148319000Y-98830000D01*
X148319000Y-96750000D02*
X148319000Y-94956000D01*
X148279000Y-100602000D02*
X148279000Y-98830000D01*
X148279000Y-96750000D02*
X148279000Y-94978000D01*
X148239000Y-100580000D02*
X148239000Y-98830000D01*
X148239000Y-96750000D02*
X148239000Y-95000000D01*
X148199000Y-100556000D02*
X148199000Y-98830000D01*
X148199000Y-96750000D02*
X148199000Y-95024000D01*
X148159000Y-100532000D02*
X148159000Y-98830000D01*
X148159000Y-96750000D02*
X148159000Y-95048000D01*
X148119000Y-100506000D02*
X148119000Y-98830000D01*
X148119000Y-96750000D02*
X148119000Y-95074000D01*
X148079000Y-100480000D02*
X148079000Y-98830000D01*
X148079000Y-96750000D02*
X148079000Y-95100000D01*
X148039000Y-100454000D02*
X148039000Y-98830000D01*
X148039000Y-96750000D02*
X148039000Y-95126000D01*
X147999000Y-100426000D02*
X147999000Y-98830000D01*
X147999000Y-96750000D02*
X147999000Y-95154000D01*
X147959000Y-100397000D02*
X147959000Y-98830000D01*
X147959000Y-96750000D02*
X147959000Y-95183000D01*
X147919000Y-100368000D02*
X147919000Y-98830000D01*
X147919000Y-96750000D02*
X147919000Y-95212000D01*
X147879000Y-100338000D02*
X147879000Y-98830000D01*
X147879000Y-96750000D02*
X147879000Y-95242000D01*
X147839000Y-100306000D02*
X147839000Y-98830000D01*
X147839000Y-96750000D02*
X147839000Y-95274000D01*
X147799000Y-100274000D02*
X147799000Y-98830000D01*
X147799000Y-96750000D02*
X147799000Y-95306000D01*
X147759000Y-100240000D02*
X147759000Y-98830000D01*
X147759000Y-96750000D02*
X147759000Y-95340000D01*
X147719000Y-100206000D02*
X147719000Y-98830000D01*
X147719000Y-96750000D02*
X147719000Y-95374000D01*
X147679000Y-100170000D02*
X147679000Y-98830000D01*
X147679000Y-96750000D02*
X147679000Y-95410000D01*
X147639000Y-100133000D02*
X147639000Y-98830000D01*
X147639000Y-96750000D02*
X147639000Y-95447000D01*
X147599000Y-100095000D02*
X147599000Y-98830000D01*
X147599000Y-96750000D02*
X147599000Y-95485000D01*
X147559000Y-100055000D02*
X147559000Y-95525000D01*
X147519000Y-100014000D02*
X147519000Y-95566000D01*
X147479000Y-99972000D02*
X147479000Y-95608000D01*
X147439000Y-99927000D02*
X147439000Y-95653000D01*
X147399000Y-99882000D02*
X147399000Y-95698000D01*
X147359000Y-99834000D02*
X147359000Y-95746000D01*
X147319000Y-99785000D02*
X147319000Y-95795000D01*
X147279000Y-99734000D02*
X147279000Y-95846000D01*
X147239000Y-99680000D02*
X147239000Y-95900000D01*
X147199000Y-99624000D02*
X147199000Y-95956000D01*
X147159000Y-99566000D02*
X147159000Y-96014000D01*
X147119000Y-99504000D02*
X147119000Y-96076000D01*
X147079000Y-99440000D02*
X147079000Y-96140000D01*
X147039000Y-99371000D02*
X147039000Y-96209000D01*
X146999000Y-99299000D02*
X146999000Y-96281000D01*
X146959000Y-99222000D02*
X146959000Y-96358000D01*
X146919000Y-99140000D02*
X146919000Y-96440000D01*
X146879000Y-99052000D02*
X146879000Y-96528000D01*
X146839000Y-98955000D02*
X146839000Y-96625000D01*
X146799000Y-98849000D02*
X146799000Y-96731000D01*
X146759000Y-98730000D02*
X146759000Y-96850000D01*
X146719000Y-98592000D02*
X146719000Y-96988000D01*
X146679000Y-98423000D02*
X146679000Y-97157000D01*
X146639000Y-98192000D02*
X146639000Y-97388000D01*
X153380241Y-99629000D02*
X152750241Y-99629000D01*
X153065241Y-99944000D02*
X153065241Y-99314000D01*
%TO.C,U4*%
X135850000Y-84360000D02*
X146090000Y-84360000D01*
X135850000Y-89001000D02*
X146090000Y-89001000D01*
X135850000Y-84360000D02*
X135850000Y-89001000D01*
X146090000Y-84360000D02*
X146090000Y-89001000D01*
X135850000Y-85870000D02*
X146090000Y-85870000D01*
X139120000Y-84360000D02*
X139120000Y-85870000D01*
X142821000Y-84360000D02*
X142821000Y-85870000D01*
D11*
%TO.C,U1*%
X115570000Y-76200000D02*
X115570000Y-101600000D01*
X115570000Y-101600000D02*
X64770000Y-101600000D01*
X64770000Y-101600000D02*
X64770000Y-76200000D01*
X64770000Y-76200000D02*
X115570000Y-76200000D01*
D10*
%TO.C,SW1*%
X50740000Y-95190000D02*
X50740000Y-97850000D01*
X58420000Y-95190000D02*
X50740000Y-95190000D01*
X58420000Y-97850000D02*
X50740000Y-97850000D01*
X58420000Y-95190000D02*
X58420000Y-97850000D01*
X59690000Y-95190000D02*
X61020000Y-95190000D01*
X61020000Y-95190000D02*
X61020000Y-96520000D01*
%TO.C,R1*%
X52610000Y-84990000D02*
X52610000Y-87730000D01*
X52610000Y-87730000D02*
X59150000Y-87730000D01*
X59150000Y-87730000D02*
X59150000Y-84990000D01*
X59150000Y-84990000D02*
X52610000Y-84990000D01*
X51840000Y-86360000D02*
X52610000Y-86360000D01*
X59920000Y-86360000D02*
X59150000Y-86360000D01*
%TO.C,D1*%
X58600000Y-92910000D02*
X58600000Y-89970000D01*
X58600000Y-89970000D02*
X53160000Y-89970000D01*
X53160000Y-89970000D02*
X53160000Y-92910000D01*
X53160000Y-92910000D02*
X58600000Y-92910000D01*
X59620000Y-91440000D02*
X58600000Y-91440000D01*
X52140000Y-91440000D02*
X53160000Y-91440000D01*
X57700000Y-92910000D02*
X57700000Y-89970000D01*
X57580000Y-92910000D02*
X57580000Y-89970000D01*
X57820000Y-92910000D02*
X57820000Y-89970000D01*
%TO.C,C5*%
X153130000Y-88920000D02*
G75*
G03*
X153130000Y-88920000I-3270000J0D01*
G01*
X146630000Y-88920000D02*
X153090000Y-88920000D01*
X146630000Y-88880000D02*
X153090000Y-88880000D01*
X146630000Y-88840000D02*
X153090000Y-88840000D01*
X146632000Y-88800000D02*
X153088000Y-88800000D01*
X146633000Y-88760000D02*
X153087000Y-88760000D01*
X146636000Y-88720000D02*
X153084000Y-88720000D01*
X146638000Y-88680000D02*
X148820000Y-88680000D01*
X150900000Y-88680000D02*
X153082000Y-88680000D01*
X146642000Y-88640000D02*
X148820000Y-88640000D01*
X150900000Y-88640000D02*
X153078000Y-88640000D01*
X146645000Y-88600000D02*
X148820000Y-88600000D01*
X150900000Y-88600000D02*
X153075000Y-88600000D01*
X146649000Y-88560000D02*
X148820000Y-88560000D01*
X150900000Y-88560000D02*
X153071000Y-88560000D01*
X146654000Y-88520000D02*
X148820000Y-88520000D01*
X150900000Y-88520000D02*
X153066000Y-88520000D01*
X146659000Y-88480000D02*
X148820000Y-88480000D01*
X150900000Y-88480000D02*
X153061000Y-88480000D01*
X146665000Y-88440000D02*
X148820000Y-88440000D01*
X150900000Y-88440000D02*
X153055000Y-88440000D01*
X146671000Y-88400000D02*
X148820000Y-88400000D01*
X150900000Y-88400000D02*
X153049000Y-88400000D01*
X146678000Y-88360000D02*
X148820000Y-88360000D01*
X150900000Y-88360000D02*
X153042000Y-88360000D01*
X146685000Y-88320000D02*
X148820000Y-88320000D01*
X150900000Y-88320000D02*
X153035000Y-88320000D01*
X146693000Y-88280000D02*
X148820000Y-88280000D01*
X150900000Y-88280000D02*
X153027000Y-88280000D01*
X146701000Y-88240000D02*
X148820000Y-88240000D01*
X150900000Y-88240000D02*
X153019000Y-88240000D01*
X146710000Y-88199000D02*
X148820000Y-88199000D01*
X150900000Y-88199000D02*
X153010000Y-88199000D01*
X146719000Y-88159000D02*
X148820000Y-88159000D01*
X150900000Y-88159000D02*
X153001000Y-88159000D01*
X146729000Y-88119000D02*
X148820000Y-88119000D01*
X150900000Y-88119000D02*
X152991000Y-88119000D01*
X146739000Y-88079000D02*
X148820000Y-88079000D01*
X150900000Y-88079000D02*
X152981000Y-88079000D01*
X146750000Y-88039000D02*
X148820000Y-88039000D01*
X150900000Y-88039000D02*
X152970000Y-88039000D01*
X146762000Y-87999000D02*
X148820000Y-87999000D01*
X150900000Y-87999000D02*
X152958000Y-87999000D01*
X146774000Y-87959000D02*
X148820000Y-87959000D01*
X150900000Y-87959000D02*
X152946000Y-87959000D01*
X146786000Y-87919000D02*
X148820000Y-87919000D01*
X150900000Y-87919000D02*
X152934000Y-87919000D01*
X146799000Y-87879000D02*
X148820000Y-87879000D01*
X150900000Y-87879000D02*
X152921000Y-87879000D01*
X146813000Y-87839000D02*
X148820000Y-87839000D01*
X150900000Y-87839000D02*
X152907000Y-87839000D01*
X146827000Y-87799000D02*
X148820000Y-87799000D01*
X150900000Y-87799000D02*
X152893000Y-87799000D01*
X146842000Y-87759000D02*
X148820000Y-87759000D01*
X150900000Y-87759000D02*
X152878000Y-87759000D01*
X146858000Y-87719000D02*
X148820000Y-87719000D01*
X150900000Y-87719000D02*
X152862000Y-87719000D01*
X146874000Y-87679000D02*
X148820000Y-87679000D01*
X150900000Y-87679000D02*
X152846000Y-87679000D01*
X146890000Y-87639000D02*
X148820000Y-87639000D01*
X150900000Y-87639000D02*
X152830000Y-87639000D01*
X146908000Y-87599000D02*
X148820000Y-87599000D01*
X150900000Y-87599000D02*
X152812000Y-87599000D01*
X146926000Y-87559000D02*
X148820000Y-87559000D01*
X150900000Y-87559000D02*
X152794000Y-87559000D01*
X146944000Y-87519000D02*
X148820000Y-87519000D01*
X150900000Y-87519000D02*
X152776000Y-87519000D01*
X146964000Y-87479000D02*
X148820000Y-87479000D01*
X150900000Y-87479000D02*
X152756000Y-87479000D01*
X146984000Y-87439000D02*
X148820000Y-87439000D01*
X150900000Y-87439000D02*
X152736000Y-87439000D01*
X147004000Y-87399000D02*
X148820000Y-87399000D01*
X150900000Y-87399000D02*
X152716000Y-87399000D01*
X147026000Y-87359000D02*
X148820000Y-87359000D01*
X150900000Y-87359000D02*
X152694000Y-87359000D01*
X147048000Y-87319000D02*
X148820000Y-87319000D01*
X150900000Y-87319000D02*
X152672000Y-87319000D01*
X147070000Y-87279000D02*
X148820000Y-87279000D01*
X150900000Y-87279000D02*
X152650000Y-87279000D01*
X147094000Y-87239000D02*
X148820000Y-87239000D01*
X150900000Y-87239000D02*
X152626000Y-87239000D01*
X147118000Y-87199000D02*
X148820000Y-87199000D01*
X150900000Y-87199000D02*
X152602000Y-87199000D01*
X147144000Y-87159000D02*
X148820000Y-87159000D01*
X150900000Y-87159000D02*
X152576000Y-87159000D01*
X147170000Y-87119000D02*
X148820000Y-87119000D01*
X150900000Y-87119000D02*
X152550000Y-87119000D01*
X147196000Y-87079000D02*
X148820000Y-87079000D01*
X150900000Y-87079000D02*
X152524000Y-87079000D01*
X147224000Y-87039000D02*
X148820000Y-87039000D01*
X150900000Y-87039000D02*
X152496000Y-87039000D01*
X147253000Y-86999000D02*
X148820000Y-86999000D01*
X150900000Y-86999000D02*
X152467000Y-86999000D01*
X147282000Y-86959000D02*
X148820000Y-86959000D01*
X150900000Y-86959000D02*
X152438000Y-86959000D01*
X147312000Y-86919000D02*
X148820000Y-86919000D01*
X150900000Y-86919000D02*
X152408000Y-86919000D01*
X147344000Y-86879000D02*
X148820000Y-86879000D01*
X150900000Y-86879000D02*
X152376000Y-86879000D01*
X147376000Y-86839000D02*
X148820000Y-86839000D01*
X150900000Y-86839000D02*
X152344000Y-86839000D01*
X147410000Y-86799000D02*
X148820000Y-86799000D01*
X150900000Y-86799000D02*
X152310000Y-86799000D01*
X147444000Y-86759000D02*
X148820000Y-86759000D01*
X150900000Y-86759000D02*
X152276000Y-86759000D01*
X147480000Y-86719000D02*
X148820000Y-86719000D01*
X150900000Y-86719000D02*
X152240000Y-86719000D01*
X147517000Y-86679000D02*
X148820000Y-86679000D01*
X150900000Y-86679000D02*
X152203000Y-86679000D01*
X147555000Y-86639000D02*
X148820000Y-86639000D01*
X150900000Y-86639000D02*
X152165000Y-86639000D01*
X147595000Y-86599000D02*
X152125000Y-86599000D01*
X147636000Y-86559000D02*
X152084000Y-86559000D01*
X147678000Y-86519000D02*
X152042000Y-86519000D01*
X147723000Y-86479000D02*
X151997000Y-86479000D01*
X147768000Y-86439000D02*
X151952000Y-86439000D01*
X147816000Y-86399000D02*
X151904000Y-86399000D01*
X147865000Y-86359000D02*
X151855000Y-86359000D01*
X147916000Y-86319000D02*
X151804000Y-86319000D01*
X147970000Y-86279000D02*
X151750000Y-86279000D01*
X148026000Y-86239000D02*
X151694000Y-86239000D01*
X148084000Y-86199000D02*
X151636000Y-86199000D01*
X148146000Y-86159000D02*
X151574000Y-86159000D01*
X148210000Y-86119000D02*
X151510000Y-86119000D01*
X148279000Y-86079000D02*
X151441000Y-86079000D01*
X148351000Y-86039000D02*
X151369000Y-86039000D01*
X148428000Y-85999000D02*
X151292000Y-85999000D01*
X148510000Y-85959000D02*
X151210000Y-85959000D01*
X148598000Y-85919000D02*
X151122000Y-85919000D01*
X148695000Y-85879000D02*
X151025000Y-85879000D01*
X148801000Y-85839000D02*
X150919000Y-85839000D01*
X148920000Y-85799000D02*
X150800000Y-85799000D01*
X149058000Y-85759000D02*
X150662000Y-85759000D01*
X149227000Y-85719000D02*
X150493000Y-85719000D01*
X149458000Y-85679000D02*
X150262000Y-85679000D01*
X148021000Y-92420241D02*
X148021000Y-91790241D01*
X147706000Y-92105241D02*
X148336000Y-92105241D01*
%TO.C,C4*%
X153130000Y-81300000D02*
G75*
G03*
X153130000Y-81300000I-3270000J0D01*
G01*
X146630000Y-81300000D02*
X153090000Y-81300000D01*
X146630000Y-81260000D02*
X153090000Y-81260000D01*
X146630000Y-81220000D02*
X153090000Y-81220000D01*
X146632000Y-81180000D02*
X153088000Y-81180000D01*
X146633000Y-81140000D02*
X153087000Y-81140000D01*
X146636000Y-81100000D02*
X153084000Y-81100000D01*
X146638000Y-81060000D02*
X148820000Y-81060000D01*
X150900000Y-81060000D02*
X153082000Y-81060000D01*
X146642000Y-81020000D02*
X148820000Y-81020000D01*
X150900000Y-81020000D02*
X153078000Y-81020000D01*
X146645000Y-80980000D02*
X148820000Y-80980000D01*
X150900000Y-80980000D02*
X153075000Y-80980000D01*
X146649000Y-80940000D02*
X148820000Y-80940000D01*
X150900000Y-80940000D02*
X153071000Y-80940000D01*
X146654000Y-80900000D02*
X148820000Y-80900000D01*
X150900000Y-80900000D02*
X153066000Y-80900000D01*
X146659000Y-80860000D02*
X148820000Y-80860000D01*
X150900000Y-80860000D02*
X153061000Y-80860000D01*
X146665000Y-80820000D02*
X148820000Y-80820000D01*
X150900000Y-80820000D02*
X153055000Y-80820000D01*
X146671000Y-80780000D02*
X148820000Y-80780000D01*
X150900000Y-80780000D02*
X153049000Y-80780000D01*
X146678000Y-80740000D02*
X148820000Y-80740000D01*
X150900000Y-80740000D02*
X153042000Y-80740000D01*
X146685000Y-80700000D02*
X148820000Y-80700000D01*
X150900000Y-80700000D02*
X153035000Y-80700000D01*
X146693000Y-80660000D02*
X148820000Y-80660000D01*
X150900000Y-80660000D02*
X153027000Y-80660000D01*
X146701000Y-80620000D02*
X148820000Y-80620000D01*
X150900000Y-80620000D02*
X153019000Y-80620000D01*
X146710000Y-80579000D02*
X148820000Y-80579000D01*
X150900000Y-80579000D02*
X153010000Y-80579000D01*
X146719000Y-80539000D02*
X148820000Y-80539000D01*
X150900000Y-80539000D02*
X153001000Y-80539000D01*
X146729000Y-80499000D02*
X148820000Y-80499000D01*
X150900000Y-80499000D02*
X152991000Y-80499000D01*
X146739000Y-80459000D02*
X148820000Y-80459000D01*
X150900000Y-80459000D02*
X152981000Y-80459000D01*
X146750000Y-80419000D02*
X148820000Y-80419000D01*
X150900000Y-80419000D02*
X152970000Y-80419000D01*
X146762000Y-80379000D02*
X148820000Y-80379000D01*
X150900000Y-80379000D02*
X152958000Y-80379000D01*
X146774000Y-80339000D02*
X148820000Y-80339000D01*
X150900000Y-80339000D02*
X152946000Y-80339000D01*
X146786000Y-80299000D02*
X148820000Y-80299000D01*
X150900000Y-80299000D02*
X152934000Y-80299000D01*
X146799000Y-80259000D02*
X148820000Y-80259000D01*
X150900000Y-80259000D02*
X152921000Y-80259000D01*
X146813000Y-80219000D02*
X148820000Y-80219000D01*
X150900000Y-80219000D02*
X152907000Y-80219000D01*
X146827000Y-80179000D02*
X148820000Y-80179000D01*
X150900000Y-80179000D02*
X152893000Y-80179000D01*
X146842000Y-80139000D02*
X148820000Y-80139000D01*
X150900000Y-80139000D02*
X152878000Y-80139000D01*
X146858000Y-80099000D02*
X148820000Y-80099000D01*
X150900000Y-80099000D02*
X152862000Y-80099000D01*
X146874000Y-80059000D02*
X148820000Y-80059000D01*
X150900000Y-80059000D02*
X152846000Y-80059000D01*
X146890000Y-80019000D02*
X148820000Y-80019000D01*
X150900000Y-80019000D02*
X152830000Y-80019000D01*
X146908000Y-79979000D02*
X148820000Y-79979000D01*
X150900000Y-79979000D02*
X152812000Y-79979000D01*
X146926000Y-79939000D02*
X148820000Y-79939000D01*
X150900000Y-79939000D02*
X152794000Y-79939000D01*
X146944000Y-79899000D02*
X148820000Y-79899000D01*
X150900000Y-79899000D02*
X152776000Y-79899000D01*
X146964000Y-79859000D02*
X148820000Y-79859000D01*
X150900000Y-79859000D02*
X152756000Y-79859000D01*
X146984000Y-79819000D02*
X148820000Y-79819000D01*
X150900000Y-79819000D02*
X152736000Y-79819000D01*
X147004000Y-79779000D02*
X148820000Y-79779000D01*
X150900000Y-79779000D02*
X152716000Y-79779000D01*
X147026000Y-79739000D02*
X148820000Y-79739000D01*
X150900000Y-79739000D02*
X152694000Y-79739000D01*
X147048000Y-79699000D02*
X148820000Y-79699000D01*
X150900000Y-79699000D02*
X152672000Y-79699000D01*
X147070000Y-79659000D02*
X148820000Y-79659000D01*
X150900000Y-79659000D02*
X152650000Y-79659000D01*
X147094000Y-79619000D02*
X148820000Y-79619000D01*
X150900000Y-79619000D02*
X152626000Y-79619000D01*
X147118000Y-79579000D02*
X148820000Y-79579000D01*
X150900000Y-79579000D02*
X152602000Y-79579000D01*
X147144000Y-79539000D02*
X148820000Y-79539000D01*
X150900000Y-79539000D02*
X152576000Y-79539000D01*
X147170000Y-79499000D02*
X148820000Y-79499000D01*
X150900000Y-79499000D02*
X152550000Y-79499000D01*
X147196000Y-79459000D02*
X148820000Y-79459000D01*
X150900000Y-79459000D02*
X152524000Y-79459000D01*
X147224000Y-79419000D02*
X148820000Y-79419000D01*
X150900000Y-79419000D02*
X152496000Y-79419000D01*
X147253000Y-79379000D02*
X148820000Y-79379000D01*
X150900000Y-79379000D02*
X152467000Y-79379000D01*
X147282000Y-79339000D02*
X148820000Y-79339000D01*
X150900000Y-79339000D02*
X152438000Y-79339000D01*
X147312000Y-79299000D02*
X148820000Y-79299000D01*
X150900000Y-79299000D02*
X152408000Y-79299000D01*
X147344000Y-79259000D02*
X148820000Y-79259000D01*
X150900000Y-79259000D02*
X152376000Y-79259000D01*
X147376000Y-79219000D02*
X148820000Y-79219000D01*
X150900000Y-79219000D02*
X152344000Y-79219000D01*
X147410000Y-79179000D02*
X148820000Y-79179000D01*
X150900000Y-79179000D02*
X152310000Y-79179000D01*
X147444000Y-79139000D02*
X148820000Y-79139000D01*
X150900000Y-79139000D02*
X152276000Y-79139000D01*
X147480000Y-79099000D02*
X148820000Y-79099000D01*
X150900000Y-79099000D02*
X152240000Y-79099000D01*
X147517000Y-79059000D02*
X148820000Y-79059000D01*
X150900000Y-79059000D02*
X152203000Y-79059000D01*
X147555000Y-79019000D02*
X148820000Y-79019000D01*
X150900000Y-79019000D02*
X152165000Y-79019000D01*
X147595000Y-78979000D02*
X152125000Y-78979000D01*
X147636000Y-78939000D02*
X152084000Y-78939000D01*
X147678000Y-78899000D02*
X152042000Y-78899000D01*
X147723000Y-78859000D02*
X151997000Y-78859000D01*
X147768000Y-78819000D02*
X151952000Y-78819000D01*
X147816000Y-78779000D02*
X151904000Y-78779000D01*
X147865000Y-78739000D02*
X151855000Y-78739000D01*
X147916000Y-78699000D02*
X151804000Y-78699000D01*
X147970000Y-78659000D02*
X151750000Y-78659000D01*
X148026000Y-78619000D02*
X151694000Y-78619000D01*
X148084000Y-78579000D02*
X151636000Y-78579000D01*
X148146000Y-78539000D02*
X151574000Y-78539000D01*
X148210000Y-78499000D02*
X151510000Y-78499000D01*
X148279000Y-78459000D02*
X151441000Y-78459000D01*
X148351000Y-78419000D02*
X151369000Y-78419000D01*
X148428000Y-78379000D02*
X151292000Y-78379000D01*
X148510000Y-78339000D02*
X151210000Y-78339000D01*
X148598000Y-78299000D02*
X151122000Y-78299000D01*
X148695000Y-78259000D02*
X151025000Y-78259000D01*
X148801000Y-78219000D02*
X150919000Y-78219000D01*
X148920000Y-78179000D02*
X150800000Y-78179000D01*
X149058000Y-78139000D02*
X150662000Y-78139000D01*
X149227000Y-78099000D02*
X150493000Y-78099000D01*
X149458000Y-78059000D02*
X150262000Y-78059000D01*
X148021000Y-84800241D02*
X148021000Y-84170241D01*
X147706000Y-84485241D02*
X148336000Y-84485241D01*
%TO.C,C3*%
X142950000Y-93980000D02*
G75*
G03*
X142950000Y-93980000I-3270000J0D01*
G01*
X139680000Y-90750000D02*
X139680000Y-97210000D01*
X139720000Y-90750000D02*
X139720000Y-97210000D01*
X139760000Y-90750000D02*
X139760000Y-97210000D01*
X139800000Y-90752000D02*
X139800000Y-97208000D01*
X139840000Y-90753000D02*
X139840000Y-97207000D01*
X139880000Y-90756000D02*
X139880000Y-97204000D01*
X139920000Y-90758000D02*
X139920000Y-92940000D01*
X139920000Y-95020000D02*
X139920000Y-97202000D01*
X139960000Y-90762000D02*
X139960000Y-92940000D01*
X139960000Y-95020000D02*
X139960000Y-97198000D01*
X140000000Y-90765000D02*
X140000000Y-92940000D01*
X140000000Y-95020000D02*
X140000000Y-97195000D01*
X140040000Y-90769000D02*
X140040000Y-92940000D01*
X140040000Y-95020000D02*
X140040000Y-97191000D01*
X140080000Y-90774000D02*
X140080000Y-92940000D01*
X140080000Y-95020000D02*
X140080000Y-97186000D01*
X140120000Y-90779000D02*
X140120000Y-92940000D01*
X140120000Y-95020000D02*
X140120000Y-97181000D01*
X140160000Y-90785000D02*
X140160000Y-92940000D01*
X140160000Y-95020000D02*
X140160000Y-97175000D01*
X140200000Y-90791000D02*
X140200000Y-92940000D01*
X140200000Y-95020000D02*
X140200000Y-97169000D01*
X140240000Y-90798000D02*
X140240000Y-92940000D01*
X140240000Y-95020000D02*
X140240000Y-97162000D01*
X140280000Y-90805000D02*
X140280000Y-92940000D01*
X140280000Y-95020000D02*
X140280000Y-97155000D01*
X140320000Y-90813000D02*
X140320000Y-92940000D01*
X140320000Y-95020000D02*
X140320000Y-97147000D01*
X140360000Y-90821000D02*
X140360000Y-92940000D01*
X140360000Y-95020000D02*
X140360000Y-97139000D01*
X140401000Y-90830000D02*
X140401000Y-92940000D01*
X140401000Y-95020000D02*
X140401000Y-97130000D01*
X140441000Y-90839000D02*
X140441000Y-92940000D01*
X140441000Y-95020000D02*
X140441000Y-97121000D01*
X140481000Y-90849000D02*
X140481000Y-92940000D01*
X140481000Y-95020000D02*
X140481000Y-97111000D01*
X140521000Y-90859000D02*
X140521000Y-92940000D01*
X140521000Y-95020000D02*
X140521000Y-97101000D01*
X140561000Y-90870000D02*
X140561000Y-92940000D01*
X140561000Y-95020000D02*
X140561000Y-97090000D01*
X140601000Y-90882000D02*
X140601000Y-92940000D01*
X140601000Y-95020000D02*
X140601000Y-97078000D01*
X140641000Y-90894000D02*
X140641000Y-92940000D01*
X140641000Y-95020000D02*
X140641000Y-97066000D01*
X140681000Y-90906000D02*
X140681000Y-92940000D01*
X140681000Y-95020000D02*
X140681000Y-97054000D01*
X140721000Y-90919000D02*
X140721000Y-92940000D01*
X140721000Y-95020000D02*
X140721000Y-97041000D01*
X140761000Y-90933000D02*
X140761000Y-92940000D01*
X140761000Y-95020000D02*
X140761000Y-97027000D01*
X140801000Y-90947000D02*
X140801000Y-92940000D01*
X140801000Y-95020000D02*
X140801000Y-97013000D01*
X140841000Y-90962000D02*
X140841000Y-92940000D01*
X140841000Y-95020000D02*
X140841000Y-96998000D01*
X140881000Y-90978000D02*
X140881000Y-92940000D01*
X140881000Y-95020000D02*
X140881000Y-96982000D01*
X140921000Y-90994000D02*
X140921000Y-92940000D01*
X140921000Y-95020000D02*
X140921000Y-96966000D01*
X140961000Y-91010000D02*
X140961000Y-92940000D01*
X140961000Y-95020000D02*
X140961000Y-96950000D01*
X141001000Y-91028000D02*
X141001000Y-92940000D01*
X141001000Y-95020000D02*
X141001000Y-96932000D01*
X141041000Y-91046000D02*
X141041000Y-92940000D01*
X141041000Y-95020000D02*
X141041000Y-96914000D01*
X141081000Y-91064000D02*
X141081000Y-92940000D01*
X141081000Y-95020000D02*
X141081000Y-96896000D01*
X141121000Y-91084000D02*
X141121000Y-92940000D01*
X141121000Y-95020000D02*
X141121000Y-96876000D01*
X141161000Y-91104000D02*
X141161000Y-92940000D01*
X141161000Y-95020000D02*
X141161000Y-96856000D01*
X141201000Y-91124000D02*
X141201000Y-92940000D01*
X141201000Y-95020000D02*
X141201000Y-96836000D01*
X141241000Y-91146000D02*
X141241000Y-92940000D01*
X141241000Y-95020000D02*
X141241000Y-96814000D01*
X141281000Y-91168000D02*
X141281000Y-92940000D01*
X141281000Y-95020000D02*
X141281000Y-96792000D01*
X141321000Y-91190000D02*
X141321000Y-92940000D01*
X141321000Y-95020000D02*
X141321000Y-96770000D01*
X141361000Y-91214000D02*
X141361000Y-92940000D01*
X141361000Y-95020000D02*
X141361000Y-96746000D01*
X141401000Y-91238000D02*
X141401000Y-92940000D01*
X141401000Y-95020000D02*
X141401000Y-96722000D01*
X141441000Y-91264000D02*
X141441000Y-92940000D01*
X141441000Y-95020000D02*
X141441000Y-96696000D01*
X141481000Y-91290000D02*
X141481000Y-92940000D01*
X141481000Y-95020000D02*
X141481000Y-96670000D01*
X141521000Y-91316000D02*
X141521000Y-92940000D01*
X141521000Y-95020000D02*
X141521000Y-96644000D01*
X141561000Y-91344000D02*
X141561000Y-92940000D01*
X141561000Y-95020000D02*
X141561000Y-96616000D01*
X141601000Y-91373000D02*
X141601000Y-92940000D01*
X141601000Y-95020000D02*
X141601000Y-96587000D01*
X141641000Y-91402000D02*
X141641000Y-92940000D01*
X141641000Y-95020000D02*
X141641000Y-96558000D01*
X141681000Y-91432000D02*
X141681000Y-92940000D01*
X141681000Y-95020000D02*
X141681000Y-96528000D01*
X141721000Y-91464000D02*
X141721000Y-92940000D01*
X141721000Y-95020000D02*
X141721000Y-96496000D01*
X141761000Y-91496000D02*
X141761000Y-92940000D01*
X141761000Y-95020000D02*
X141761000Y-96464000D01*
X141801000Y-91530000D02*
X141801000Y-92940000D01*
X141801000Y-95020000D02*
X141801000Y-96430000D01*
X141841000Y-91564000D02*
X141841000Y-92940000D01*
X141841000Y-95020000D02*
X141841000Y-96396000D01*
X141881000Y-91600000D02*
X141881000Y-92940000D01*
X141881000Y-95020000D02*
X141881000Y-96360000D01*
X141921000Y-91637000D02*
X141921000Y-92940000D01*
X141921000Y-95020000D02*
X141921000Y-96323000D01*
X141961000Y-91675000D02*
X141961000Y-92940000D01*
X141961000Y-95020000D02*
X141961000Y-96285000D01*
X142001000Y-91715000D02*
X142001000Y-96245000D01*
X142041000Y-91756000D02*
X142041000Y-96204000D01*
X142081000Y-91798000D02*
X142081000Y-96162000D01*
X142121000Y-91843000D02*
X142121000Y-96117000D01*
X142161000Y-91888000D02*
X142161000Y-96072000D01*
X142201000Y-91936000D02*
X142201000Y-96024000D01*
X142241000Y-91985000D02*
X142241000Y-95975000D01*
X142281000Y-92036000D02*
X142281000Y-95924000D01*
X142321000Y-92090000D02*
X142321000Y-95870000D01*
X142361000Y-92146000D02*
X142361000Y-95814000D01*
X142401000Y-92204000D02*
X142401000Y-95756000D01*
X142441000Y-92266000D02*
X142441000Y-95694000D01*
X142481000Y-92330000D02*
X142481000Y-95630000D01*
X142521000Y-92399000D02*
X142521000Y-95561000D01*
X142561000Y-92471000D02*
X142561000Y-95489000D01*
X142601000Y-92548000D02*
X142601000Y-95412000D01*
X142641000Y-92630000D02*
X142641000Y-95330000D01*
X142681000Y-92718000D02*
X142681000Y-95242000D01*
X142721000Y-92815000D02*
X142721000Y-95145000D01*
X142761000Y-92921000D02*
X142761000Y-95039000D01*
X142801000Y-93040000D02*
X142801000Y-94920000D01*
X142841000Y-93178000D02*
X142841000Y-94782000D01*
X142881000Y-93347000D02*
X142881000Y-94613000D01*
X142921000Y-93578000D02*
X142921000Y-94382000D01*
X136179759Y-92141000D02*
X136809759Y-92141000D01*
X136494759Y-91826000D02*
X136494759Y-92456000D01*
%TO.C,C2*%
X123920000Y-80030000D02*
G75*
G03*
X123920000Y-80030000I-3270000J0D01*
G01*
X117420000Y-80030000D02*
X123880000Y-80030000D01*
X117420000Y-79990000D02*
X123880000Y-79990000D01*
X117420000Y-79950000D02*
X123880000Y-79950000D01*
X117422000Y-79910000D02*
X123878000Y-79910000D01*
X117423000Y-79870000D02*
X123877000Y-79870000D01*
X117426000Y-79830000D02*
X123874000Y-79830000D01*
X117428000Y-79790000D02*
X119610000Y-79790000D01*
X121690000Y-79790000D02*
X123872000Y-79790000D01*
X117432000Y-79750000D02*
X119610000Y-79750000D01*
X121690000Y-79750000D02*
X123868000Y-79750000D01*
X117435000Y-79710000D02*
X119610000Y-79710000D01*
X121690000Y-79710000D02*
X123865000Y-79710000D01*
X117439000Y-79670000D02*
X119610000Y-79670000D01*
X121690000Y-79670000D02*
X123861000Y-79670000D01*
X117444000Y-79630000D02*
X119610000Y-79630000D01*
X121690000Y-79630000D02*
X123856000Y-79630000D01*
X117449000Y-79590000D02*
X119610000Y-79590000D01*
X121690000Y-79590000D02*
X123851000Y-79590000D01*
X117455000Y-79550000D02*
X119610000Y-79550000D01*
X121690000Y-79550000D02*
X123845000Y-79550000D01*
X117461000Y-79510000D02*
X119610000Y-79510000D01*
X121690000Y-79510000D02*
X123839000Y-79510000D01*
X117468000Y-79470000D02*
X119610000Y-79470000D01*
X121690000Y-79470000D02*
X123832000Y-79470000D01*
X117475000Y-79430000D02*
X119610000Y-79430000D01*
X121690000Y-79430000D02*
X123825000Y-79430000D01*
X117483000Y-79390000D02*
X119610000Y-79390000D01*
X121690000Y-79390000D02*
X123817000Y-79390000D01*
X117491000Y-79350000D02*
X119610000Y-79350000D01*
X121690000Y-79350000D02*
X123809000Y-79350000D01*
X117500000Y-79309000D02*
X119610000Y-79309000D01*
X121690000Y-79309000D02*
X123800000Y-79309000D01*
X117509000Y-79269000D02*
X119610000Y-79269000D01*
X121690000Y-79269000D02*
X123791000Y-79269000D01*
X117519000Y-79229000D02*
X119610000Y-79229000D01*
X121690000Y-79229000D02*
X123781000Y-79229000D01*
X117529000Y-79189000D02*
X119610000Y-79189000D01*
X121690000Y-79189000D02*
X123771000Y-79189000D01*
X117540000Y-79149000D02*
X119610000Y-79149000D01*
X121690000Y-79149000D02*
X123760000Y-79149000D01*
X117552000Y-79109000D02*
X119610000Y-79109000D01*
X121690000Y-79109000D02*
X123748000Y-79109000D01*
X117564000Y-79069000D02*
X119610000Y-79069000D01*
X121690000Y-79069000D02*
X123736000Y-79069000D01*
X117576000Y-79029000D02*
X119610000Y-79029000D01*
X121690000Y-79029000D02*
X123724000Y-79029000D01*
X117589000Y-78989000D02*
X119610000Y-78989000D01*
X121690000Y-78989000D02*
X123711000Y-78989000D01*
X117603000Y-78949000D02*
X119610000Y-78949000D01*
X121690000Y-78949000D02*
X123697000Y-78949000D01*
X117617000Y-78909000D02*
X119610000Y-78909000D01*
X121690000Y-78909000D02*
X123683000Y-78909000D01*
X117632000Y-78869000D02*
X119610000Y-78869000D01*
X121690000Y-78869000D02*
X123668000Y-78869000D01*
X117648000Y-78829000D02*
X119610000Y-78829000D01*
X121690000Y-78829000D02*
X123652000Y-78829000D01*
X117664000Y-78789000D02*
X119610000Y-78789000D01*
X121690000Y-78789000D02*
X123636000Y-78789000D01*
X117680000Y-78749000D02*
X119610000Y-78749000D01*
X121690000Y-78749000D02*
X123620000Y-78749000D01*
X117698000Y-78709000D02*
X119610000Y-78709000D01*
X121690000Y-78709000D02*
X123602000Y-78709000D01*
X117716000Y-78669000D02*
X119610000Y-78669000D01*
X121690000Y-78669000D02*
X123584000Y-78669000D01*
X117734000Y-78629000D02*
X119610000Y-78629000D01*
X121690000Y-78629000D02*
X123566000Y-78629000D01*
X117754000Y-78589000D02*
X119610000Y-78589000D01*
X121690000Y-78589000D02*
X123546000Y-78589000D01*
X117774000Y-78549000D02*
X119610000Y-78549000D01*
X121690000Y-78549000D02*
X123526000Y-78549000D01*
X117794000Y-78509000D02*
X119610000Y-78509000D01*
X121690000Y-78509000D02*
X123506000Y-78509000D01*
X117816000Y-78469000D02*
X119610000Y-78469000D01*
X121690000Y-78469000D02*
X123484000Y-78469000D01*
X117838000Y-78429000D02*
X119610000Y-78429000D01*
X121690000Y-78429000D02*
X123462000Y-78429000D01*
X117860000Y-78389000D02*
X119610000Y-78389000D01*
X121690000Y-78389000D02*
X123440000Y-78389000D01*
X117884000Y-78349000D02*
X119610000Y-78349000D01*
X121690000Y-78349000D02*
X123416000Y-78349000D01*
X117908000Y-78309000D02*
X119610000Y-78309000D01*
X121690000Y-78309000D02*
X123392000Y-78309000D01*
X117934000Y-78269000D02*
X119610000Y-78269000D01*
X121690000Y-78269000D02*
X123366000Y-78269000D01*
X117960000Y-78229000D02*
X119610000Y-78229000D01*
X121690000Y-78229000D02*
X123340000Y-78229000D01*
X117986000Y-78189000D02*
X119610000Y-78189000D01*
X121690000Y-78189000D02*
X123314000Y-78189000D01*
X118014000Y-78149000D02*
X119610000Y-78149000D01*
X121690000Y-78149000D02*
X123286000Y-78149000D01*
X118043000Y-78109000D02*
X119610000Y-78109000D01*
X121690000Y-78109000D02*
X123257000Y-78109000D01*
X118072000Y-78069000D02*
X119610000Y-78069000D01*
X121690000Y-78069000D02*
X123228000Y-78069000D01*
X118102000Y-78029000D02*
X119610000Y-78029000D01*
X121690000Y-78029000D02*
X123198000Y-78029000D01*
X118134000Y-77989000D02*
X119610000Y-77989000D01*
X121690000Y-77989000D02*
X123166000Y-77989000D01*
X118166000Y-77949000D02*
X119610000Y-77949000D01*
X121690000Y-77949000D02*
X123134000Y-77949000D01*
X118200000Y-77909000D02*
X119610000Y-77909000D01*
X121690000Y-77909000D02*
X123100000Y-77909000D01*
X118234000Y-77869000D02*
X119610000Y-77869000D01*
X121690000Y-77869000D02*
X123066000Y-77869000D01*
X118270000Y-77829000D02*
X119610000Y-77829000D01*
X121690000Y-77829000D02*
X123030000Y-77829000D01*
X118307000Y-77789000D02*
X119610000Y-77789000D01*
X121690000Y-77789000D02*
X122993000Y-77789000D01*
X118345000Y-77749000D02*
X119610000Y-77749000D01*
X121690000Y-77749000D02*
X122955000Y-77749000D01*
X118385000Y-77709000D02*
X122915000Y-77709000D01*
X118426000Y-77669000D02*
X122874000Y-77669000D01*
X118468000Y-77629000D02*
X122832000Y-77629000D01*
X118513000Y-77589000D02*
X122787000Y-77589000D01*
X118558000Y-77549000D02*
X122742000Y-77549000D01*
X118606000Y-77509000D02*
X122694000Y-77509000D01*
X118655000Y-77469000D02*
X122645000Y-77469000D01*
X118706000Y-77429000D02*
X122594000Y-77429000D01*
X118760000Y-77389000D02*
X122540000Y-77389000D01*
X118816000Y-77349000D02*
X122484000Y-77349000D01*
X118874000Y-77309000D02*
X122426000Y-77309000D01*
X118936000Y-77269000D02*
X122364000Y-77269000D01*
X119000000Y-77229000D02*
X122300000Y-77229000D01*
X119069000Y-77189000D02*
X122231000Y-77189000D01*
X119141000Y-77149000D02*
X122159000Y-77149000D01*
X119218000Y-77109000D02*
X122082000Y-77109000D01*
X119300000Y-77069000D02*
X122000000Y-77069000D01*
X119388000Y-77029000D02*
X121912000Y-77029000D01*
X119485000Y-76989000D02*
X121815000Y-76989000D01*
X119591000Y-76949000D02*
X121709000Y-76949000D01*
X119710000Y-76909000D02*
X121590000Y-76909000D01*
X119848000Y-76869000D02*
X121452000Y-76869000D01*
X120017000Y-76829000D02*
X121283000Y-76829000D01*
X120248000Y-76789000D02*
X121052000Y-76789000D01*
X118811000Y-83530241D02*
X118811000Y-82900241D01*
X118496000Y-83215241D02*
X119126000Y-83215241D01*
%TO.C,C1*%
X123920000Y-100310000D02*
G75*
G03*
X123920000Y-100310000I-3270000J0D01*
G01*
X123880000Y-100310000D02*
X117420000Y-100310000D01*
X123880000Y-100350000D02*
X117420000Y-100350000D01*
X123880000Y-100390000D02*
X117420000Y-100390000D01*
X123878000Y-100430000D02*
X117422000Y-100430000D01*
X123877000Y-100470000D02*
X117423000Y-100470000D01*
X123874000Y-100510000D02*
X117426000Y-100510000D01*
X123872000Y-100550000D02*
X121690000Y-100550000D01*
X119610000Y-100550000D02*
X117428000Y-100550000D01*
X123868000Y-100590000D02*
X121690000Y-100590000D01*
X119610000Y-100590000D02*
X117432000Y-100590000D01*
X123865000Y-100630000D02*
X121690000Y-100630000D01*
X119610000Y-100630000D02*
X117435000Y-100630000D01*
X123861000Y-100670000D02*
X121690000Y-100670000D01*
X119610000Y-100670000D02*
X117439000Y-100670000D01*
X123856000Y-100710000D02*
X121690000Y-100710000D01*
X119610000Y-100710000D02*
X117444000Y-100710000D01*
X123851000Y-100750000D02*
X121690000Y-100750000D01*
X119610000Y-100750000D02*
X117449000Y-100750000D01*
X123845000Y-100790000D02*
X121690000Y-100790000D01*
X119610000Y-100790000D02*
X117455000Y-100790000D01*
X123839000Y-100830000D02*
X121690000Y-100830000D01*
X119610000Y-100830000D02*
X117461000Y-100830000D01*
X123832000Y-100870000D02*
X121690000Y-100870000D01*
X119610000Y-100870000D02*
X117468000Y-100870000D01*
X123825000Y-100910000D02*
X121690000Y-100910000D01*
X119610000Y-100910000D02*
X117475000Y-100910000D01*
X123817000Y-100950000D02*
X121690000Y-100950000D01*
X119610000Y-100950000D02*
X117483000Y-100950000D01*
X123809000Y-100990000D02*
X121690000Y-100990000D01*
X119610000Y-100990000D02*
X117491000Y-100990000D01*
X123800000Y-101031000D02*
X121690000Y-101031000D01*
X119610000Y-101031000D02*
X117500000Y-101031000D01*
X123791000Y-101071000D02*
X121690000Y-101071000D01*
X119610000Y-101071000D02*
X117509000Y-101071000D01*
X123781000Y-101111000D02*
X121690000Y-101111000D01*
X119610000Y-101111000D02*
X117519000Y-101111000D01*
X123771000Y-101151000D02*
X121690000Y-101151000D01*
X119610000Y-101151000D02*
X117529000Y-101151000D01*
X123760000Y-101191000D02*
X121690000Y-101191000D01*
X119610000Y-101191000D02*
X117540000Y-101191000D01*
X123748000Y-101231000D02*
X121690000Y-101231000D01*
X119610000Y-101231000D02*
X117552000Y-101231000D01*
X123736000Y-101271000D02*
X121690000Y-101271000D01*
X119610000Y-101271000D02*
X117564000Y-101271000D01*
X123724000Y-101311000D02*
X121690000Y-101311000D01*
X119610000Y-101311000D02*
X117576000Y-101311000D01*
X123711000Y-101351000D02*
X121690000Y-101351000D01*
X119610000Y-101351000D02*
X117589000Y-101351000D01*
X123697000Y-101391000D02*
X121690000Y-101391000D01*
X119610000Y-101391000D02*
X117603000Y-101391000D01*
X123683000Y-101431000D02*
X121690000Y-101431000D01*
X119610000Y-101431000D02*
X117617000Y-101431000D01*
X123668000Y-101471000D02*
X121690000Y-101471000D01*
X119610000Y-101471000D02*
X117632000Y-101471000D01*
X123652000Y-101511000D02*
X121690000Y-101511000D01*
X119610000Y-101511000D02*
X117648000Y-101511000D01*
X123636000Y-101551000D02*
X121690000Y-101551000D01*
X119610000Y-101551000D02*
X117664000Y-101551000D01*
X123620000Y-101591000D02*
X121690000Y-101591000D01*
X119610000Y-101591000D02*
X117680000Y-101591000D01*
X123602000Y-101631000D02*
X121690000Y-101631000D01*
X119610000Y-101631000D02*
X117698000Y-101631000D01*
X123584000Y-101671000D02*
X121690000Y-101671000D01*
X119610000Y-101671000D02*
X117716000Y-101671000D01*
X123566000Y-101711000D02*
X121690000Y-101711000D01*
X119610000Y-101711000D02*
X117734000Y-101711000D01*
X123546000Y-101751000D02*
X121690000Y-101751000D01*
X119610000Y-101751000D02*
X117754000Y-101751000D01*
X123526000Y-101791000D02*
X121690000Y-101791000D01*
X119610000Y-101791000D02*
X117774000Y-101791000D01*
X123506000Y-101831000D02*
X121690000Y-101831000D01*
X119610000Y-101831000D02*
X117794000Y-101831000D01*
X123484000Y-101871000D02*
X121690000Y-101871000D01*
X119610000Y-101871000D02*
X117816000Y-101871000D01*
X123462000Y-101911000D02*
X121690000Y-101911000D01*
X119610000Y-101911000D02*
X117838000Y-101911000D01*
X123440000Y-101951000D02*
X121690000Y-101951000D01*
X119610000Y-101951000D02*
X117860000Y-101951000D01*
X123416000Y-101991000D02*
X121690000Y-101991000D01*
X119610000Y-101991000D02*
X117884000Y-101991000D01*
X123392000Y-102031000D02*
X121690000Y-102031000D01*
X119610000Y-102031000D02*
X117908000Y-102031000D01*
X123366000Y-102071000D02*
X121690000Y-102071000D01*
X119610000Y-102071000D02*
X117934000Y-102071000D01*
X123340000Y-102111000D02*
X121690000Y-102111000D01*
X119610000Y-102111000D02*
X117960000Y-102111000D01*
X123314000Y-102151000D02*
X121690000Y-102151000D01*
X119610000Y-102151000D02*
X117986000Y-102151000D01*
X123286000Y-102191000D02*
X121690000Y-102191000D01*
X119610000Y-102191000D02*
X118014000Y-102191000D01*
X123257000Y-102231000D02*
X121690000Y-102231000D01*
X119610000Y-102231000D02*
X118043000Y-102231000D01*
X123228000Y-102271000D02*
X121690000Y-102271000D01*
X119610000Y-102271000D02*
X118072000Y-102271000D01*
X123198000Y-102311000D02*
X121690000Y-102311000D01*
X119610000Y-102311000D02*
X118102000Y-102311000D01*
X123166000Y-102351000D02*
X121690000Y-102351000D01*
X119610000Y-102351000D02*
X118134000Y-102351000D01*
X123134000Y-102391000D02*
X121690000Y-102391000D01*
X119610000Y-102391000D02*
X118166000Y-102391000D01*
X123100000Y-102431000D02*
X121690000Y-102431000D01*
X119610000Y-102431000D02*
X118200000Y-102431000D01*
X123066000Y-102471000D02*
X121690000Y-102471000D01*
X119610000Y-102471000D02*
X118234000Y-102471000D01*
X123030000Y-102511000D02*
X121690000Y-102511000D01*
X119610000Y-102511000D02*
X118270000Y-102511000D01*
X122993000Y-102551000D02*
X121690000Y-102551000D01*
X119610000Y-102551000D02*
X118307000Y-102551000D01*
X122955000Y-102591000D02*
X121690000Y-102591000D01*
X119610000Y-102591000D02*
X118345000Y-102591000D01*
X122915000Y-102631000D02*
X118385000Y-102631000D01*
X122874000Y-102671000D02*
X118426000Y-102671000D01*
X122832000Y-102711000D02*
X118468000Y-102711000D01*
X122787000Y-102751000D02*
X118513000Y-102751000D01*
X122742000Y-102791000D02*
X118558000Y-102791000D01*
X122694000Y-102831000D02*
X118606000Y-102831000D01*
X122645000Y-102871000D02*
X118655000Y-102871000D01*
X122594000Y-102911000D02*
X118706000Y-102911000D01*
X122540000Y-102951000D02*
X118760000Y-102951000D01*
X122484000Y-102991000D02*
X118816000Y-102991000D01*
X122426000Y-103031000D02*
X118874000Y-103031000D01*
X122364000Y-103071000D02*
X118936000Y-103071000D01*
X122300000Y-103111000D02*
X119000000Y-103111000D01*
X122231000Y-103151000D02*
X119069000Y-103151000D01*
X122159000Y-103191000D02*
X119141000Y-103191000D01*
X122082000Y-103231000D02*
X119218000Y-103231000D01*
X122000000Y-103271000D02*
X119300000Y-103271000D01*
X121912000Y-103311000D02*
X119388000Y-103311000D01*
X121815000Y-103351000D02*
X119485000Y-103351000D01*
X121709000Y-103391000D02*
X119591000Y-103391000D01*
X121590000Y-103431000D02*
X119710000Y-103431000D01*
X121452000Y-103471000D02*
X119848000Y-103471000D01*
X121283000Y-103511000D02*
X120017000Y-103511000D01*
X121052000Y-103551000D02*
X120248000Y-103551000D01*
X122489000Y-96809759D02*
X122489000Y-97439759D01*
X122804000Y-97124759D02*
X122174000Y-97124759D01*
%TO.C,H4*%
D12*
X41148095Y-85152380D02*
X41148095Y-84152380D01*
X41148095Y-84628571D02*
X41719523Y-84628571D01*
X41719523Y-85152380D02*
X41719523Y-84152380D01*
X42624285Y-84485714D02*
X42624285Y-85152380D01*
X42386190Y-84104761D02*
X42148095Y-84819047D01*
X42767142Y-84819047D01*
%TO.C,H3*%
X278638095Y-97852380D02*
X278638095Y-96852380D01*
X278638095Y-97328571D02*
X279209523Y-97328571D01*
X279209523Y-97852380D02*
X279209523Y-96852380D01*
X279590476Y-96852380D02*
X280209523Y-96852380D01*
X279876190Y-97233333D01*
X280019047Y-97233333D01*
X280114285Y-97280952D01*
X280161904Y-97328571D01*
X280209523Y-97423809D01*
X280209523Y-97661904D01*
X280161904Y-97757142D01*
X280114285Y-97804761D01*
X280019047Y-97852380D01*
X279733333Y-97852380D01*
X279638095Y-97804761D01*
X279590476Y-97757142D01*
%TO.C,H2*%
X279273095Y-74992380D02*
X279273095Y-73992380D01*
X279273095Y-74468571D02*
X279844523Y-74468571D01*
X279844523Y-74992380D02*
X279844523Y-73992380D01*
X280273095Y-74087619D02*
X280320714Y-74040000D01*
X280415952Y-73992380D01*
X280654047Y-73992380D01*
X280749285Y-74040000D01*
X280796904Y-74087619D01*
X280844523Y-74182857D01*
X280844523Y-74278095D01*
X280796904Y-74420952D01*
X280225476Y-74992380D01*
X280844523Y-74992380D01*
%TO.C,H1*%
X120523095Y-86422380D02*
X120523095Y-85422380D01*
X120523095Y-85898571D02*
X121094523Y-85898571D01*
X121094523Y-86422380D02*
X121094523Y-85422380D01*
X122094523Y-86422380D02*
X121523095Y-86422380D01*
X121808809Y-86422380D02*
X121808809Y-85422380D01*
X121713571Y-85565238D01*
X121618333Y-85660476D01*
X121523095Y-85708095D01*
%TO.C,U5*%
X85598095Y-80272380D02*
X85598095Y-81081904D01*
X85645714Y-81177142D01*
X85693333Y-81224761D01*
X85788571Y-81272380D01*
X85979047Y-81272380D01*
X86074285Y-81224761D01*
X86121904Y-81177142D01*
X86169523Y-81081904D01*
X86169523Y-80272380D01*
X87121904Y-80272380D02*
X86645714Y-80272380D01*
X86598095Y-80748571D01*
X86645714Y-80700952D01*
X86740952Y-80653333D01*
X86979047Y-80653333D01*
X87074285Y-80700952D01*
X87121904Y-80748571D01*
X87169523Y-80843809D01*
X87169523Y-81081904D01*
X87121904Y-81177142D01*
X87074285Y-81224761D01*
X86979047Y-81272380D01*
X86740952Y-81272380D01*
X86645714Y-81224761D01*
X86598095Y-81177142D01*
%TO.C,R3*%
X107783333Y-103957380D02*
X107450000Y-103481190D01*
X107211904Y-103957380D02*
X107211904Y-102957380D01*
X107592857Y-102957380D01*
X107688095Y-103005000D01*
X107735714Y-103052619D01*
X107783333Y-103147857D01*
X107783333Y-103290714D01*
X107735714Y-103385952D01*
X107688095Y-103433571D01*
X107592857Y-103481190D01*
X107211904Y-103481190D01*
X108116666Y-102957380D02*
X108735714Y-102957380D01*
X108402380Y-103338333D01*
X108545238Y-103338333D01*
X108640476Y-103385952D01*
X108688095Y-103433571D01*
X108735714Y-103528809D01*
X108735714Y-103766904D01*
X108688095Y-103862142D01*
X108640476Y-103909761D01*
X108545238Y-103957380D01*
X108259523Y-103957380D01*
X108164285Y-103909761D01*
X108116666Y-103862142D01*
%TO.C,R2*%
X55713333Y-98412380D02*
X55380000Y-97936190D01*
X55141904Y-98412380D02*
X55141904Y-97412380D01*
X55522857Y-97412380D01*
X55618095Y-97460000D01*
X55665714Y-97507619D01*
X55713333Y-97602857D01*
X55713333Y-97745714D01*
X55665714Y-97840952D01*
X55618095Y-97888571D01*
X55522857Y-97936190D01*
X55141904Y-97936190D01*
X56094285Y-97507619D02*
X56141904Y-97460000D01*
X56237142Y-97412380D01*
X56475238Y-97412380D01*
X56570476Y-97460000D01*
X56618095Y-97507619D01*
X56665714Y-97602857D01*
X56665714Y-97698095D01*
X56618095Y-97840952D01*
X56046666Y-98412380D01*
X56665714Y-98412380D01*
%TO.C,D3*%
X107211904Y-76722380D02*
X107211904Y-75722380D01*
X107450000Y-75722380D01*
X107592857Y-75770000D01*
X107688095Y-75865238D01*
X107735714Y-75960476D01*
X107783333Y-76150952D01*
X107783333Y-76293809D01*
X107735714Y-76484285D01*
X107688095Y-76579523D01*
X107592857Y-76674761D01*
X107450000Y-76722380D01*
X107211904Y-76722380D01*
X108116666Y-75722380D02*
X108735714Y-75722380D01*
X108402380Y-76103333D01*
X108545238Y-76103333D01*
X108640476Y-76150952D01*
X108688095Y-76198571D01*
X108735714Y-76293809D01*
X108735714Y-76531904D01*
X108688095Y-76627142D01*
X108640476Y-76674761D01*
X108545238Y-76722380D01*
X108259523Y-76722380D01*
X108164285Y-76674761D01*
X108116666Y-76627142D01*
X102608095Y-77092380D02*
X102608095Y-76092380D01*
X103179523Y-77092380D02*
X102750952Y-76520952D01*
X103179523Y-76092380D02*
X102608095Y-76663809D01*
%TO.C,D2*%
X116736904Y-103322380D02*
X116736904Y-102322380D01*
X116975000Y-102322380D01*
X117117857Y-102370000D01*
X117213095Y-102465238D01*
X117260714Y-102560476D01*
X117308333Y-102750952D01*
X117308333Y-102893809D01*
X117260714Y-103084285D01*
X117213095Y-103179523D01*
X117117857Y-103274761D01*
X116975000Y-103322380D01*
X116736904Y-103322380D01*
X117689285Y-102417619D02*
X117736904Y-102370000D01*
X117832142Y-102322380D01*
X118070238Y-102322380D01*
X118165476Y-102370000D01*
X118213095Y-102417619D01*
X118260714Y-102512857D01*
X118260714Y-102608095D01*
X118213095Y-102750952D01*
X117641666Y-103322380D01*
X118260714Y-103322380D01*
X112768095Y-101612380D02*
X112768095Y-100612380D01*
X113339523Y-101612380D02*
X112910952Y-101040952D01*
X113339523Y-100612380D02*
X112768095Y-101183809D01*
%TO.C,C8*%
X96197142Y-92856666D02*
X96244761Y-92904285D01*
X96292380Y-93047142D01*
X96292380Y-93142380D01*
X96244761Y-93285238D01*
X96149523Y-93380476D01*
X96054285Y-93428095D01*
X95863809Y-93475714D01*
X95720952Y-93475714D01*
X95530476Y-93428095D01*
X95435238Y-93380476D01*
X95340000Y-93285238D01*
X95292380Y-93142380D01*
X95292380Y-93047142D01*
X95340000Y-92904285D01*
X95387619Y-92856666D01*
X95720952Y-92285238D02*
X95673333Y-92380476D01*
X95625714Y-92428095D01*
X95530476Y-92475714D01*
X95482857Y-92475714D01*
X95387619Y-92428095D01*
X95340000Y-92380476D01*
X95292380Y-92285238D01*
X95292380Y-92094761D01*
X95340000Y-91999523D01*
X95387619Y-91951904D01*
X95482857Y-91904285D01*
X95530476Y-91904285D01*
X95625714Y-91951904D01*
X95673333Y-91999523D01*
X95720952Y-92094761D01*
X95720952Y-92285238D01*
X95768571Y-92380476D01*
X95816190Y-92428095D01*
X95911428Y-92475714D01*
X96101904Y-92475714D01*
X96197142Y-92428095D01*
X96244761Y-92380476D01*
X96292380Y-92285238D01*
X96292380Y-92094761D01*
X96244761Y-91999523D01*
X96197142Y-91951904D01*
X96101904Y-91904285D01*
X95911428Y-91904285D01*
X95816190Y-91951904D01*
X95768571Y-91999523D01*
X95720952Y-92094761D01*
%TO.C,C7*%
X86037142Y-92856666D02*
X86084761Y-92904285D01*
X86132380Y-93047142D01*
X86132380Y-93142380D01*
X86084761Y-93285238D01*
X85989523Y-93380476D01*
X85894285Y-93428095D01*
X85703809Y-93475714D01*
X85560952Y-93475714D01*
X85370476Y-93428095D01*
X85275238Y-93380476D01*
X85180000Y-93285238D01*
X85132380Y-93142380D01*
X85132380Y-93047142D01*
X85180000Y-92904285D01*
X85227619Y-92856666D01*
X85132380Y-92523333D02*
X85132380Y-91856666D01*
X86132380Y-92285238D01*
%TO.C,J3*%
X56336666Y-81192380D02*
X56336666Y-81906666D01*
X56289047Y-82049523D01*
X56193809Y-82144761D01*
X56050952Y-82192380D01*
X55955714Y-82192380D01*
X56717619Y-81192380D02*
X57336666Y-81192380D01*
X57003333Y-81573333D01*
X57146190Y-81573333D01*
X57241428Y-81620952D01*
X57289047Y-81668571D01*
X57336666Y-81763809D01*
X57336666Y-82001904D01*
X57289047Y-82097142D01*
X57241428Y-82144761D01*
X57146190Y-82192380D01*
X56860476Y-82192380D01*
X56765238Y-82144761D01*
X56717619Y-82097142D01*
%TO.C,J2*%
X48172380Y-80188333D02*
X48886666Y-80188333D01*
X49029523Y-80235952D01*
X49124761Y-80331190D01*
X49172380Y-80474047D01*
X49172380Y-80569285D01*
X48267619Y-79759761D02*
X48220000Y-79712142D01*
X48172380Y-79616904D01*
X48172380Y-79378809D01*
X48220000Y-79283571D01*
X48267619Y-79235952D01*
X48362857Y-79188333D01*
X48458095Y-79188333D01*
X48600952Y-79235952D01*
X49172380Y-79807380D01*
X49172380Y-79188333D01*
%TO.C,J1*%
X48172380Y-98603333D02*
X48886666Y-98603333D01*
X49029523Y-98650952D01*
X49124761Y-98746190D01*
X49172380Y-98889047D01*
X49172380Y-98984285D01*
X49172380Y-97603333D02*
X49172380Y-98174761D01*
X49172380Y-97889047D02*
X48172380Y-97889047D01*
X48315238Y-97984285D01*
X48410476Y-98079523D01*
X48458095Y-98174761D01*
%TO.C,U3*%
X125992380Y-80771904D02*
X126801904Y-80771904D01*
X126897142Y-80724285D01*
X126944761Y-80676666D01*
X126992380Y-80581428D01*
X126992380Y-80390952D01*
X126944761Y-80295714D01*
X126897142Y-80248095D01*
X126801904Y-80200476D01*
X125992380Y-80200476D01*
X125992380Y-79819523D02*
X125992380Y-79200476D01*
X126373333Y-79533809D01*
X126373333Y-79390952D01*
X126420952Y-79295714D01*
X126468571Y-79248095D01*
X126563809Y-79200476D01*
X126801904Y-79200476D01*
X126897142Y-79248095D01*
X126944761Y-79295714D01*
X126992380Y-79390952D01*
X126992380Y-79676666D01*
X126944761Y-79771904D01*
X126897142Y-79819523D01*
%TO.C,U2*%
X125992380Y-97281904D02*
X126801904Y-97281904D01*
X126897142Y-97234285D01*
X126944761Y-97186666D01*
X126992380Y-97091428D01*
X126992380Y-96900952D01*
X126944761Y-96805714D01*
X126897142Y-96758095D01*
X126801904Y-96710476D01*
X125992380Y-96710476D01*
X126087619Y-96281904D02*
X126040000Y-96234285D01*
X125992380Y-96139047D01*
X125992380Y-95900952D01*
X126040000Y-95805714D01*
X126087619Y-95758095D01*
X126182857Y-95710476D01*
X126278095Y-95710476D01*
X126420952Y-95758095D01*
X126992380Y-96329523D01*
X126992380Y-95710476D01*
%TO.C,J13*%
X272240476Y-77132380D02*
X272240476Y-77846666D01*
X272192857Y-77989523D01*
X272097619Y-78084761D01*
X271954761Y-78132380D01*
X271859523Y-78132380D01*
X273240476Y-78132380D02*
X272669047Y-78132380D01*
X272954761Y-78132380D02*
X272954761Y-77132380D01*
X272859523Y-77275238D01*
X272764285Y-77370476D01*
X272669047Y-77418095D01*
X273573809Y-77132380D02*
X274192857Y-77132380D01*
X273859523Y-77513333D01*
X274002380Y-77513333D01*
X274097619Y-77560952D01*
X274145238Y-77608571D01*
X274192857Y-77703809D01*
X274192857Y-77941904D01*
X274145238Y-78037142D01*
X274097619Y-78084761D01*
X274002380Y-78132380D01*
X273716666Y-78132380D01*
X273621428Y-78084761D01*
X273573809Y-78037142D01*
%TO.C,J12*%
X259945235Y-77132380D02*
X259945235Y-77846666D01*
X259897616Y-77989523D01*
X259802378Y-78084761D01*
X259659520Y-78132380D01*
X259564282Y-78132380D01*
X260945235Y-78132380D02*
X260373806Y-78132380D01*
X260659520Y-78132380D02*
X260659520Y-77132380D01*
X260564282Y-77275238D01*
X260469044Y-77370476D01*
X260373806Y-77418095D01*
X261326187Y-77227619D02*
X261373806Y-77180000D01*
X261469044Y-77132380D01*
X261707139Y-77132380D01*
X261802378Y-77180000D01*
X261849997Y-77227619D01*
X261897616Y-77322857D01*
X261897616Y-77418095D01*
X261849997Y-77560952D01*
X261278568Y-78132380D01*
X261897616Y-78132380D01*
%TO.C,J11*%
X248110476Y-77132380D02*
X248110476Y-77846666D01*
X248062857Y-77989523D01*
X247967619Y-78084761D01*
X247824761Y-78132380D01*
X247729523Y-78132380D01*
X249110476Y-78132380D02*
X248539047Y-78132380D01*
X248824761Y-78132380D02*
X248824761Y-77132380D01*
X248729523Y-77275238D01*
X248634285Y-77370476D01*
X248539047Y-77418095D01*
X250062857Y-78132380D02*
X249491428Y-78132380D01*
X249777142Y-78132380D02*
X249777142Y-77132380D01*
X249681904Y-77275238D01*
X249586666Y-77370476D01*
X249491428Y-77418095D01*
%TO.C,J10*%
X235410476Y-77132380D02*
X235410476Y-77846666D01*
X235362857Y-77989523D01*
X235267619Y-78084761D01*
X235124761Y-78132380D01*
X235029523Y-78132380D01*
X236410476Y-78132380D02*
X235839047Y-78132380D01*
X236124761Y-78132380D02*
X236124761Y-77132380D01*
X236029523Y-77275238D01*
X235934285Y-77370476D01*
X235839047Y-77418095D01*
X237029523Y-77132380D02*
X237124761Y-77132380D01*
X237220000Y-77180000D01*
X237267619Y-77227619D01*
X237315238Y-77322857D01*
X237362857Y-77513333D01*
X237362857Y-77751428D01*
X237315238Y-77941904D01*
X237267619Y-78037142D01*
X237220000Y-78084761D01*
X237124761Y-78132380D01*
X237029523Y-78132380D01*
X236934285Y-78084761D01*
X236886666Y-78037142D01*
X236839047Y-77941904D01*
X236791428Y-77751428D01*
X236791428Y-77513333D01*
X236839047Y-77322857D01*
X236886666Y-77227619D01*
X236934285Y-77180000D01*
X237029523Y-77132380D01*
%TO.C,J9*%
X223186666Y-77132380D02*
X223186666Y-77846666D01*
X223139047Y-77989523D01*
X223043809Y-78084761D01*
X222900952Y-78132380D01*
X222805714Y-78132380D01*
X223710476Y-78132380D02*
X223900952Y-78132380D01*
X223996190Y-78084761D01*
X224043809Y-78037142D01*
X224139047Y-77894285D01*
X224186666Y-77703809D01*
X224186666Y-77322857D01*
X224139047Y-77227619D01*
X224091428Y-77180000D01*
X223996190Y-77132380D01*
X223805714Y-77132380D01*
X223710476Y-77180000D01*
X223662857Y-77227619D01*
X223615238Y-77322857D01*
X223615238Y-77560952D01*
X223662857Y-77656190D01*
X223710476Y-77703809D01*
X223805714Y-77751428D01*
X223996190Y-77751428D01*
X224091428Y-77703809D01*
X224139047Y-77656190D01*
X224186666Y-77560952D01*
%TO.C,J8*%
X210486666Y-77132380D02*
X210486666Y-77846666D01*
X210439047Y-77989523D01*
X210343809Y-78084761D01*
X210200952Y-78132380D01*
X210105714Y-78132380D01*
X211105714Y-77560952D02*
X211010476Y-77513333D01*
X210962857Y-77465714D01*
X210915238Y-77370476D01*
X210915238Y-77322857D01*
X210962857Y-77227619D01*
X211010476Y-77180000D01*
X211105714Y-77132380D01*
X211296190Y-77132380D01*
X211391428Y-77180000D01*
X211439047Y-77227619D01*
X211486666Y-77322857D01*
X211486666Y-77370476D01*
X211439047Y-77465714D01*
X211391428Y-77513333D01*
X211296190Y-77560952D01*
X211105714Y-77560952D01*
X211010476Y-77608571D01*
X210962857Y-77656190D01*
X210915238Y-77751428D01*
X210915238Y-77941904D01*
X210962857Y-78037142D01*
X211010476Y-78084761D01*
X211105714Y-78132380D01*
X211296190Y-78132380D01*
X211391428Y-78084761D01*
X211439047Y-78037142D01*
X211486666Y-77941904D01*
X211486666Y-77751428D01*
X211439047Y-77656190D01*
X211391428Y-77608571D01*
X211296190Y-77560952D01*
%TO.C,J7*%
X197786666Y-77132380D02*
X197786666Y-77846666D01*
X197739047Y-77989523D01*
X197643809Y-78084761D01*
X197500952Y-78132380D01*
X197405714Y-78132380D01*
X198167619Y-77132380D02*
X198834285Y-77132380D01*
X198405714Y-78132380D01*
%TO.C,J6*%
X185086666Y-77132380D02*
X185086666Y-77846666D01*
X185039047Y-77989523D01*
X184943809Y-78084761D01*
X184800952Y-78132380D01*
X184705714Y-78132380D01*
X185991428Y-77132380D02*
X185800952Y-77132380D01*
X185705714Y-77180000D01*
X185658095Y-77227619D01*
X185562857Y-77370476D01*
X185515238Y-77560952D01*
X185515238Y-77941904D01*
X185562857Y-78037142D01*
X185610476Y-78084761D01*
X185705714Y-78132380D01*
X185896190Y-78132380D01*
X185991428Y-78084761D01*
X186039047Y-78037142D01*
X186086666Y-77941904D01*
X186086666Y-77703809D01*
X186039047Y-77608571D01*
X185991428Y-77560952D01*
X185896190Y-77513333D01*
X185705714Y-77513333D01*
X185610476Y-77560952D01*
X185562857Y-77608571D01*
X185515238Y-77703809D01*
%TO.C,J5*%
X172386666Y-77132380D02*
X172386666Y-77846666D01*
X172339047Y-77989523D01*
X172243809Y-78084761D01*
X172100952Y-78132380D01*
X172005714Y-78132380D01*
X173339047Y-77132380D02*
X172862857Y-77132380D01*
X172815238Y-77608571D01*
X172862857Y-77560952D01*
X172958095Y-77513333D01*
X173196190Y-77513333D01*
X173291428Y-77560952D01*
X173339047Y-77608571D01*
X173386666Y-77703809D01*
X173386666Y-77941904D01*
X173339047Y-78037142D01*
X173291428Y-78084761D01*
X173196190Y-78132380D01*
X172958095Y-78132380D01*
X172862857Y-78084761D01*
X172815238Y-78037142D01*
%TO.C,J4*%
X159686666Y-77132380D02*
X159686666Y-77846666D01*
X159639047Y-77989523D01*
X159543809Y-78084761D01*
X159400952Y-78132380D01*
X159305714Y-78132380D01*
X160591428Y-77465714D02*
X160591428Y-78132380D01*
X160353333Y-77084761D02*
X160115238Y-77799047D01*
X160734285Y-77799047D01*
%TO.C,C6*%
X149713333Y-102547142D02*
X149665714Y-102594761D01*
X149522857Y-102642380D01*
X149427619Y-102642380D01*
X149284761Y-102594761D01*
X149189523Y-102499523D01*
X149141904Y-102404285D01*
X149094285Y-102213809D01*
X149094285Y-102070952D01*
X149141904Y-101880476D01*
X149189523Y-101785238D01*
X149284761Y-101690000D01*
X149427619Y-101642380D01*
X149522857Y-101642380D01*
X149665714Y-101690000D01*
X149713333Y-101737619D01*
X150570476Y-101642380D02*
X150380000Y-101642380D01*
X150284761Y-101690000D01*
X150237142Y-101737619D01*
X150141904Y-101880476D01*
X150094285Y-102070952D01*
X150094285Y-102451904D01*
X150141904Y-102547142D01*
X150189523Y-102594761D01*
X150284761Y-102642380D01*
X150475238Y-102642380D01*
X150570476Y-102594761D01*
X150618095Y-102547142D01*
X150665714Y-102451904D01*
X150665714Y-102213809D01*
X150618095Y-102118571D01*
X150570476Y-102070952D01*
X150475238Y-102023333D01*
X150284761Y-102023333D01*
X150189523Y-102070952D01*
X150141904Y-102118571D01*
X150094285Y-102213809D01*
%TO.C,U4*%
X140208095Y-82812380D02*
X140208095Y-83621904D01*
X140255714Y-83717142D01*
X140303333Y-83764761D01*
X140398571Y-83812380D01*
X140589047Y-83812380D01*
X140684285Y-83764761D01*
X140731904Y-83717142D01*
X140779523Y-83621904D01*
X140779523Y-82812380D01*
X141684285Y-83145714D02*
X141684285Y-83812380D01*
X141446190Y-82764761D02*
X141208095Y-83479047D01*
X141827142Y-83479047D01*
%TO.C,U1*%
X89408095Y-90892380D02*
X89408095Y-91701904D01*
X89455714Y-91797142D01*
X89503333Y-91844761D01*
X89598571Y-91892380D01*
X89789047Y-91892380D01*
X89884285Y-91844761D01*
X89931904Y-91797142D01*
X89979523Y-91701904D01*
X89979523Y-90892380D01*
X90979523Y-91892380D02*
X90408095Y-91892380D01*
X90693809Y-91892380D02*
X90693809Y-90892380D01*
X90598571Y-91035238D01*
X90503333Y-91130476D01*
X90408095Y-91178095D01*
%TO.C,SW1*%
X62424761Y-97853333D02*
X62472380Y-97710476D01*
X62472380Y-97472380D01*
X62424761Y-97377142D01*
X62377142Y-97329523D01*
X62281904Y-97281904D01*
X62186666Y-97281904D01*
X62091428Y-97329523D01*
X62043809Y-97377142D01*
X61996190Y-97472380D01*
X61948571Y-97662857D01*
X61900952Y-97758095D01*
X61853333Y-97805714D01*
X61758095Y-97853333D01*
X61662857Y-97853333D01*
X61567619Y-97805714D01*
X61520000Y-97758095D01*
X61472380Y-97662857D01*
X61472380Y-97424761D01*
X61520000Y-97281904D01*
X61472380Y-96948571D02*
X62472380Y-96710476D01*
X61758095Y-96520000D01*
X62472380Y-96329523D01*
X61472380Y-96091428D01*
X62472380Y-95186666D02*
X62472380Y-95758095D01*
X62472380Y-95472380D02*
X61472380Y-95472380D01*
X61615238Y-95567619D01*
X61710476Y-95662857D01*
X61758095Y-95758095D01*
%TO.C,R1*%
X55713333Y-84442380D02*
X55380000Y-83966190D01*
X55141904Y-84442380D02*
X55141904Y-83442380D01*
X55522857Y-83442380D01*
X55618095Y-83490000D01*
X55665714Y-83537619D01*
X55713333Y-83632857D01*
X55713333Y-83775714D01*
X55665714Y-83870952D01*
X55618095Y-83918571D01*
X55522857Y-83966190D01*
X55141904Y-83966190D01*
X56665714Y-84442380D02*
X56094285Y-84442380D01*
X56380000Y-84442380D02*
X56380000Y-83442380D01*
X56284761Y-83585238D01*
X56189523Y-83680476D01*
X56094285Y-83728095D01*
%TO.C,D1*%
X55141904Y-94362380D02*
X55141904Y-93362380D01*
X55380000Y-93362380D01*
X55522857Y-93410000D01*
X55618095Y-93505238D01*
X55665714Y-93600476D01*
X55713333Y-93790952D01*
X55713333Y-93933809D01*
X55665714Y-94124285D01*
X55618095Y-94219523D01*
X55522857Y-94314761D01*
X55380000Y-94362380D01*
X55141904Y-94362380D01*
X56665714Y-94362380D02*
X56094285Y-94362380D01*
X56380000Y-94362380D02*
X56380000Y-93362380D01*
X56284761Y-93505238D01*
X56189523Y-93600476D01*
X56094285Y-93648095D01*
X60698095Y-93992380D02*
X60698095Y-92992380D01*
X61269523Y-93992380D02*
X60840952Y-93420952D01*
X61269523Y-92992380D02*
X60698095Y-93563809D01*
%TO.C,C5*%
X145817142Y-89086666D02*
X145864761Y-89134285D01*
X145912380Y-89277142D01*
X145912380Y-89372380D01*
X145864761Y-89515238D01*
X145769523Y-89610476D01*
X145674285Y-89658095D01*
X145483809Y-89705714D01*
X145340952Y-89705714D01*
X145150476Y-89658095D01*
X145055238Y-89610476D01*
X144960000Y-89515238D01*
X144912380Y-89372380D01*
X144912380Y-89277142D01*
X144960000Y-89134285D01*
X145007619Y-89086666D01*
X144912380Y-88181904D02*
X144912380Y-88658095D01*
X145388571Y-88705714D01*
X145340952Y-88658095D01*
X145293333Y-88562857D01*
X145293333Y-88324761D01*
X145340952Y-88229523D01*
X145388571Y-88181904D01*
X145483809Y-88134285D01*
X145721904Y-88134285D01*
X145817142Y-88181904D01*
X145864761Y-88229523D01*
X145912380Y-88324761D01*
X145912380Y-88562857D01*
X145864761Y-88658095D01*
X145817142Y-88705714D01*
%TO.C,C4*%
X145817142Y-81466666D02*
X145864761Y-81514285D01*
X145912380Y-81657142D01*
X145912380Y-81752380D01*
X145864761Y-81895238D01*
X145769523Y-81990476D01*
X145674285Y-82038095D01*
X145483809Y-82085714D01*
X145340952Y-82085714D01*
X145150476Y-82038095D01*
X145055238Y-81990476D01*
X144960000Y-81895238D01*
X144912380Y-81752380D01*
X144912380Y-81657142D01*
X144960000Y-81514285D01*
X145007619Y-81466666D01*
X145245714Y-80609523D02*
X145912380Y-80609523D01*
X144864761Y-80847619D02*
X145579047Y-81085714D01*
X145579047Y-80466666D01*
%TO.C,C3*%
X139513333Y-89937142D02*
X139465714Y-89984761D01*
X139322857Y-90032380D01*
X139227619Y-90032380D01*
X139084761Y-89984761D01*
X138989523Y-89889523D01*
X138941904Y-89794285D01*
X138894285Y-89603809D01*
X138894285Y-89460952D01*
X138941904Y-89270476D01*
X138989523Y-89175238D01*
X139084761Y-89080000D01*
X139227619Y-89032380D01*
X139322857Y-89032380D01*
X139465714Y-89080000D01*
X139513333Y-89127619D01*
X139846666Y-89032380D02*
X140465714Y-89032380D01*
X140132380Y-89413333D01*
X140275238Y-89413333D01*
X140370476Y-89460952D01*
X140418095Y-89508571D01*
X140465714Y-89603809D01*
X140465714Y-89841904D01*
X140418095Y-89937142D01*
X140370476Y-89984761D01*
X140275238Y-90032380D01*
X139989523Y-90032380D01*
X139894285Y-89984761D01*
X139846666Y-89937142D01*
%TO.C,C2*%
X116607142Y-80196666D02*
X116654761Y-80244285D01*
X116702380Y-80387142D01*
X116702380Y-80482380D01*
X116654761Y-80625238D01*
X116559523Y-80720476D01*
X116464285Y-80768095D01*
X116273809Y-80815714D01*
X116130952Y-80815714D01*
X115940476Y-80768095D01*
X115845238Y-80720476D01*
X115750000Y-80625238D01*
X115702380Y-80482380D01*
X115702380Y-80387142D01*
X115750000Y-80244285D01*
X115797619Y-80196666D01*
X115797619Y-79815714D02*
X115750000Y-79768095D01*
X115702380Y-79672857D01*
X115702380Y-79434761D01*
X115750000Y-79339523D01*
X115797619Y-79291904D01*
X115892857Y-79244285D01*
X115988095Y-79244285D01*
X116130952Y-79291904D01*
X116702380Y-79863333D01*
X116702380Y-79244285D01*
%TO.C,C1*%
X125407142Y-100476666D02*
X125454761Y-100524285D01*
X125502380Y-100667142D01*
X125502380Y-100762380D01*
X125454761Y-100905238D01*
X125359523Y-101000476D01*
X125264285Y-101048095D01*
X125073809Y-101095714D01*
X124930952Y-101095714D01*
X124740476Y-101048095D01*
X124645238Y-101000476D01*
X124550000Y-100905238D01*
X124502380Y-100762380D01*
X124502380Y-100667142D01*
X124550000Y-100524285D01*
X124597619Y-100476666D01*
X125502380Y-99524285D02*
X125502380Y-100095714D01*
X125502380Y-99810000D02*
X124502380Y-99810000D01*
X124645238Y-99905238D01*
X124740476Y-100000476D01*
X124788095Y-100095714D01*
%TD*%
M02*
