M48
; DRILL file {KiCad 5.1.6} date Tue Sep  8 23:32:58 2020
; FORMAT={-:-/ absolute / inch / decimal}
; #@! TF.CreationDate,2020-09-08T23:32:58+02:00
; #@! TF.GenerationSoftware,Kicad,Pcbnew,5.1.6
FMAT,2
INCH
T1C0.0157
T2C0.0300
T3C0.0315
T4C0.0394
T5C0.0433
T6C0.0472
T7C0.1260
%
G90
G05
T1
X3.05Y-3.775
T2
X2.65Y-3.2
X2.65Y-3.6
X2.65Y-3.8
X4.45Y-3.1
X4.45Y-3.5
X4.45Y-3.9
T3
X5.9Y-3.4516
X5.9Y-3.55
X5.8516Y-3.85
X5.95Y-3.85
X3.6Y-3.6
X3.6Y-3.6984
X4.05Y-4.075
X4.45Y-4.075
X3.2Y-3.6
X3.2Y-3.6984
X4.75Y-3.9
X4.75Y-3.9984
X4.75Y-3.1016
X4.75Y-3.2
X2.0Y-3.4
X2.4Y-3.4
X2.0Y-3.95
X2.4Y-3.95
X5.45Y-3.7
X5.5484Y-3.7
X5.9Y-3.1516
X5.9Y-3.25
T4
X10.7Y-3.15
X10.7Y-3.25
X10.7Y-3.35
X10.7Y-3.45
X10.7Y-3.55
X10.7Y-3.65
X10.7Y-3.75
X10.7Y-3.85
X10.8Y-3.15
X10.8Y-3.25
X10.8Y-3.35
X10.8Y-3.45
X10.8Y-3.55
X10.8Y-3.65
X10.8Y-3.75
X10.8Y-3.85
X2.05Y-3.8
X2.15Y-3.8
X2.25Y-3.8
X2.35Y-3.8
X10.2159Y-3.15
X10.2159Y-3.25
X10.2159Y-3.35
X10.2159Y-3.45
X10.2159Y-3.55
X10.2159Y-3.65
X10.2159Y-3.75
X10.2159Y-3.85
X10.3159Y-3.15
X10.3159Y-3.25
X10.3159Y-3.35
X10.3159Y-3.45
X10.3159Y-3.55
X10.3159Y-3.65
X10.3159Y-3.75
X10.3159Y-3.85
X6.25Y-3.15
X6.25Y-3.25
X6.25Y-3.35
X6.25Y-3.45
X6.25Y-3.55
X6.25Y-3.65
X6.25Y-3.75
X6.25Y-3.85
X6.35Y-3.15
X6.35Y-3.25
X6.35Y-3.35
X6.35Y-3.45
X6.35Y-3.55
X6.35Y-3.65
X6.35Y-3.75
X6.35Y-3.85
X8.75Y-3.15
X8.75Y-3.25
X8.75Y-3.35
X8.75Y-3.45
X8.75Y-3.55
X8.75Y-3.65
X8.75Y-3.75
X8.75Y-3.85
X8.85Y-3.15
X8.85Y-3.25
X8.85Y-3.35
X8.85Y-3.45
X8.85Y-3.55
X8.85Y-3.65
X8.85Y-3.75
X8.85Y-3.85
X7.75Y-3.15
X7.75Y-3.25
X7.75Y-3.35
X7.75Y-3.45
X7.75Y-3.55
X7.75Y-3.65
X7.75Y-3.75
X7.75Y-3.85
X7.85Y-3.15
X7.85Y-3.25
X7.85Y-3.35
X7.85Y-3.45
X7.85Y-3.55
X7.85Y-3.65
X7.85Y-3.75
X7.85Y-3.85
X9.25Y-3.15
X9.25Y-3.25
X9.25Y-3.35
X9.25Y-3.45
X9.25Y-3.55
X9.25Y-3.65
X9.25Y-3.75
X9.25Y-3.85
X9.35Y-3.15
X9.35Y-3.25
X9.35Y-3.35
X9.35Y-3.45
X9.35Y-3.55
X9.35Y-3.65
X9.35Y-3.75
X9.35Y-3.85
X6.75Y-3.15
X6.75Y-3.25
X6.75Y-3.35
X6.75Y-3.45
X6.75Y-3.55
X6.75Y-3.65
X6.75Y-3.75
X6.75Y-3.85
X6.85Y-3.15
X6.85Y-3.25
X6.85Y-3.35
X6.85Y-3.45
X6.85Y-3.55
X6.85Y-3.65
X6.85Y-3.75
X6.85Y-3.85
X7.25Y-3.15
X7.25Y-3.25
X7.25Y-3.35
X7.25Y-3.45
X7.25Y-3.55
X7.25Y-3.65
X7.25Y-3.75
X7.25Y-3.85
X7.35Y-3.15
X7.35Y-3.25
X7.35Y-3.35
X7.35Y-3.45
X7.35Y-3.55
X7.35Y-3.65
X7.35Y-3.75
X7.35Y-3.85
X8.25Y-3.15
X8.25Y-3.25
X8.25Y-3.35
X8.25Y-3.45
X8.25Y-3.55
X8.25Y-3.65
X8.25Y-3.75
X8.25Y-3.85
X8.35Y-3.15
X8.35Y-3.25
X8.35Y-3.35
X8.35Y-3.45
X8.35Y-3.55
X8.35Y-3.65
X8.35Y-3.75
X8.35Y-3.85
X9.75Y-3.15
X9.75Y-3.25
X9.75Y-3.35
X9.75Y-3.45
X9.75Y-3.55
X9.75Y-3.65
X9.75Y-3.75
X9.75Y-3.85
X9.85Y-3.15
X9.85Y-3.25
X9.85Y-3.35
X9.85Y-3.45
X9.85Y-3.55
X9.85Y-3.65
X9.85Y-3.75
X9.85Y-3.85
T5
X4.05Y-3.9
X4.45Y-3.9
X5.15Y-3.7
X5.15Y-3.8
X5.15Y-3.9
X5.45Y-3.45
X5.55Y-3.45
X5.65Y-3.45
X3.3Y-3.35
X3.4Y-3.35
X3.5Y-3.35
X4.05Y-3.1
X4.45Y-3.1
X2.0Y-3.6
X2.4Y-3.6
X5.15Y-3.05
X5.15Y-3.15
X5.15Y-3.25
T6
X1.8Y-3.075
X1.8Y-3.2128
X1.8Y-3.8
X1.8Y-3.9378
X2.1622Y-3.1
X2.3Y-3.1
T7
X11.025Y-3.1
X4.775Y-3.55
X11.0Y-4.0
X1.65Y-3.5
T0
M30
