%TF.GenerationSoftware,KiCad,Pcbnew,5.1.6*%
%TF.CreationDate,2020-09-08T23:32:54+02:00*%
%TF.ProjectId,psu,7073752e-6b69-4636-9164-5f7063625858,rev?*%
%TF.SameCoordinates,Original*%
%TF.FileFunction,Soldermask,Top*%
%TF.FilePolarity,Negative*%
%FSLAX46Y46*%
G04 Gerber Fmt 4.6, Leading zero omitted, Abs format (unit mm)*
G04 Created by KiCad (PCBNEW 5.1.6) date 2020-09-08 23:32:54*
%MOMM*%
%LPD*%
G01*
G04 APERTURE LIST*
%ADD10C,3.300000*%
%ADD11O,2.005000X2.100000*%
%ADD12R,2.005000X2.100000*%
%ADD13O,1.700000X1.700000*%
%ADD14C,1.700000*%
%ADD15O,2.300000X2.300000*%
%ADD16R,2.300000X2.300000*%
%ADD17R,1.700000X1.700000*%
%ADD18O,1.900000X3.700000*%
%ADD19O,3.700000X1.900000*%
%ADD20O,2.100000X2.005000*%
%ADD21R,2.100000X2.005000*%
%ADD22O,1.800000X1.800000*%
%ADD23R,1.800000X1.800000*%
%ADD24C,1.624000*%
%ADD25R,1.624000X1.624000*%
G04 APERTURE END LIST*
D10*
%TO.C,H4*%
X41910000Y-88900000D03*
%TD*%
%TO.C,H3*%
X279400000Y-101600000D03*
%TD*%
%TO.C,H2*%
X280035000Y-78740000D03*
%TD*%
%TO.C,H1*%
X121285000Y-90170000D03*
%TD*%
D11*
%TO.C,U5*%
X88900000Y-85090000D03*
X86360000Y-85090000D03*
D12*
X83820000Y-85090000D03*
%TD*%
D13*
%TO.C,R3*%
X113030000Y-103505000D03*
D14*
X102870000Y-103505000D03*
%TD*%
D13*
%TO.C,R2*%
X60960000Y-100330000D03*
D14*
X50800000Y-100330000D03*
%TD*%
D15*
%TO.C,D3*%
X113030000Y-78740000D03*
D16*
X102870000Y-78740000D03*
%TD*%
D15*
%TO.C,D2*%
X102870000Y-99060000D03*
D16*
X113030000Y-99060000D03*
%TD*%
D14*
%TO.C,C8*%
X91440000Y-93940000D03*
D17*
X91440000Y-91440000D03*
%TD*%
D14*
%TO.C,C7*%
X81280000Y-93940000D03*
D17*
X81280000Y-91440000D03*
%TD*%
D18*
%TO.C,J3*%
X54920000Y-78740000D03*
G36*
G01*
X59370000Y-77153889D02*
X59370000Y-80326111D01*
G75*
G02*
X59106111Y-80590000I-263889J0D01*
G01*
X57733889Y-80590000D01*
G75*
G02*
X57470000Y-80326111I0J263889D01*
G01*
X57470000Y-77153889D01*
G75*
G02*
X57733889Y-76890000I263889J0D01*
G01*
X59106111Y-76890000D01*
G75*
G02*
X59370000Y-77153889I0J-263889D01*
G01*
G37*
%TD*%
D19*
%TO.C,J2*%
X45720000Y-81605000D03*
G36*
G01*
X44133889Y-77155000D02*
X47306111Y-77155000D01*
G75*
G02*
X47570000Y-77418889I0J-263889D01*
G01*
X47570000Y-78791111D01*
G75*
G02*
X47306111Y-79055000I-263889J0D01*
G01*
X44133889Y-79055000D01*
G75*
G02*
X43870000Y-78791111I0J263889D01*
G01*
X43870000Y-77418889D01*
G75*
G02*
X44133889Y-77155000I263889J0D01*
G01*
G37*
%TD*%
%TO.C,J1*%
X45720000Y-100020000D03*
G36*
G01*
X44133889Y-95570000D02*
X47306111Y-95570000D01*
G75*
G02*
X47570000Y-95833889I0J-263889D01*
G01*
X47570000Y-97206111D01*
G75*
G02*
X47306111Y-97470000I-263889J0D01*
G01*
X44133889Y-97470000D01*
G75*
G02*
X43870000Y-97206111I0J263889D01*
G01*
X43870000Y-95833889D01*
G75*
G02*
X44133889Y-95570000I263889J0D01*
G01*
G37*
%TD*%
D20*
%TO.C,U3*%
X130810000Y-77470000D03*
X130810000Y-80010000D03*
D21*
X130810000Y-82550000D03*
%TD*%
D20*
%TO.C,U2*%
X130810000Y-93980000D03*
X130810000Y-96520000D03*
D21*
X130810000Y-99060000D03*
%TD*%
D22*
%TO.C,J13*%
X274320000Y-97790000D03*
X271780000Y-97790000D03*
X274320000Y-95250000D03*
X271780000Y-95250000D03*
X274320000Y-92710000D03*
X271780000Y-92710000D03*
X274320000Y-90170000D03*
X271780000Y-90170000D03*
X274320000Y-87630000D03*
X271780000Y-87630000D03*
X274320000Y-85090000D03*
X271780000Y-85090000D03*
X274320000Y-82550000D03*
X271780000Y-82550000D03*
X274320000Y-80010000D03*
D23*
X271780000Y-80010000D03*
%TD*%
D22*
%TO.C,J12*%
X262024759Y-97790000D03*
X259484759Y-97790000D03*
X262024759Y-95250000D03*
X259484759Y-95250000D03*
X262024759Y-92710000D03*
X259484759Y-92710000D03*
X262024759Y-90170000D03*
X259484759Y-90170000D03*
X262024759Y-87630000D03*
X259484759Y-87630000D03*
X262024759Y-85090000D03*
X259484759Y-85090000D03*
X262024759Y-82550000D03*
X259484759Y-82550000D03*
X262024759Y-80010000D03*
D23*
X259484759Y-80010000D03*
%TD*%
D22*
%TO.C,J11*%
X250190000Y-97790000D03*
X247650000Y-97790000D03*
X250190000Y-95250000D03*
X247650000Y-95250000D03*
X250190000Y-92710000D03*
X247650000Y-92710000D03*
X250190000Y-90170000D03*
X247650000Y-90170000D03*
X250190000Y-87630000D03*
X247650000Y-87630000D03*
X250190000Y-85090000D03*
X247650000Y-85090000D03*
X250190000Y-82550000D03*
X247650000Y-82550000D03*
X250190000Y-80010000D03*
D23*
X247650000Y-80010000D03*
%TD*%
D22*
%TO.C,J10*%
X237490000Y-97790000D03*
X234950000Y-97790000D03*
X237490000Y-95250000D03*
X234950000Y-95250000D03*
X237490000Y-92710000D03*
X234950000Y-92710000D03*
X237490000Y-90170000D03*
X234950000Y-90170000D03*
X237490000Y-87630000D03*
X234950000Y-87630000D03*
X237490000Y-85090000D03*
X234950000Y-85090000D03*
X237490000Y-82550000D03*
X234950000Y-82550000D03*
X237490000Y-80010000D03*
D23*
X234950000Y-80010000D03*
%TD*%
D22*
%TO.C,J9*%
X224790000Y-97790000D03*
X222250000Y-97790000D03*
X224790000Y-95250000D03*
X222250000Y-95250000D03*
X224790000Y-92710000D03*
X222250000Y-92710000D03*
X224790000Y-90170000D03*
X222250000Y-90170000D03*
X224790000Y-87630000D03*
X222250000Y-87630000D03*
X224790000Y-85090000D03*
X222250000Y-85090000D03*
X224790000Y-82550000D03*
X222250000Y-82550000D03*
X224790000Y-80010000D03*
D23*
X222250000Y-80010000D03*
%TD*%
D22*
%TO.C,J8*%
X212090000Y-97790000D03*
X209550000Y-97790000D03*
X212090000Y-95250000D03*
X209550000Y-95250000D03*
X212090000Y-92710000D03*
X209550000Y-92710000D03*
X212090000Y-90170000D03*
X209550000Y-90170000D03*
X212090000Y-87630000D03*
X209550000Y-87630000D03*
X212090000Y-85090000D03*
X209550000Y-85090000D03*
X212090000Y-82550000D03*
X209550000Y-82550000D03*
X212090000Y-80010000D03*
D23*
X209550000Y-80010000D03*
%TD*%
D22*
%TO.C,J7*%
X199390000Y-97790000D03*
X196850000Y-97790000D03*
X199390000Y-95250000D03*
X196850000Y-95250000D03*
X199390000Y-92710000D03*
X196850000Y-92710000D03*
X199390000Y-90170000D03*
X196850000Y-90170000D03*
X199390000Y-87630000D03*
X196850000Y-87630000D03*
X199390000Y-85090000D03*
X196850000Y-85090000D03*
X199390000Y-82550000D03*
X196850000Y-82550000D03*
X199390000Y-80010000D03*
D23*
X196850000Y-80010000D03*
%TD*%
D22*
%TO.C,J6*%
X186690000Y-97790000D03*
X184150000Y-97790000D03*
X186690000Y-95250000D03*
X184150000Y-95250000D03*
X186690000Y-92710000D03*
X184150000Y-92710000D03*
X186690000Y-90170000D03*
X184150000Y-90170000D03*
X186690000Y-87630000D03*
X184150000Y-87630000D03*
X186690000Y-85090000D03*
X184150000Y-85090000D03*
X186690000Y-82550000D03*
X184150000Y-82550000D03*
X186690000Y-80010000D03*
D23*
X184150000Y-80010000D03*
%TD*%
D22*
%TO.C,J5*%
X173990000Y-97790000D03*
X171450000Y-97790000D03*
X173990000Y-95250000D03*
X171450000Y-95250000D03*
X173990000Y-92710000D03*
X171450000Y-92710000D03*
X173990000Y-90170000D03*
X171450000Y-90170000D03*
X173990000Y-87630000D03*
X171450000Y-87630000D03*
X173990000Y-85090000D03*
X171450000Y-85090000D03*
X173990000Y-82550000D03*
X171450000Y-82550000D03*
X173990000Y-80010000D03*
D23*
X171450000Y-80010000D03*
%TD*%
D22*
%TO.C,J4*%
X161290000Y-97790000D03*
X158750000Y-97790000D03*
X161290000Y-95250000D03*
X158750000Y-95250000D03*
X161290000Y-92710000D03*
X158750000Y-92710000D03*
X161290000Y-90170000D03*
X158750000Y-90170000D03*
X161290000Y-87630000D03*
X158750000Y-87630000D03*
X161290000Y-85090000D03*
X158750000Y-85090000D03*
X161290000Y-82550000D03*
X158750000Y-82550000D03*
X161290000Y-80010000D03*
D23*
X158750000Y-80010000D03*
%TD*%
D14*
%TO.C,C6*%
X148630000Y-97790000D03*
D17*
X151130000Y-97790000D03*
%TD*%
D11*
%TO.C,U4*%
X143510000Y-87630000D03*
X140970000Y-87630000D03*
D12*
X138430000Y-87630000D03*
%TD*%
D24*
%TO.C,U1*%
X113030000Y-88900000D03*
X113030000Y-78740000D03*
X113030000Y-99060000D03*
X67310000Y-81280000D03*
X67310000Y-91440000D03*
D25*
X67310000Y-96520000D03*
%TD*%
D22*
%TO.C,SW1*%
X52070000Y-96520000D03*
X54610000Y-96520000D03*
X57150000Y-96520000D03*
D23*
X59690000Y-96520000D03*
%TD*%
D13*
%TO.C,R1*%
X60960000Y-86360000D03*
D14*
X50800000Y-86360000D03*
%TD*%
D15*
%TO.C,D1*%
X50800000Y-91440000D03*
D16*
X60960000Y-91440000D03*
%TD*%
D14*
%TO.C,C5*%
X149860000Y-87670000D03*
D17*
X149860000Y-90170000D03*
%TD*%
D14*
%TO.C,C4*%
X149860000Y-80050000D03*
D17*
X149860000Y-82550000D03*
%TD*%
D14*
%TO.C,C3*%
X140930000Y-93980000D03*
D17*
X138430000Y-93980000D03*
%TD*%
D14*
%TO.C,C2*%
X120650000Y-78780000D03*
D17*
X120650000Y-81280000D03*
%TD*%
D14*
%TO.C,C1*%
X120650000Y-101560000D03*
D17*
X120650000Y-99060000D03*
%TD*%
M02*
