  0
SECTION
  2
BLOCKS
  0
ENDSEC
  0
SECTION
  2
ENTITIES
  0
LINE
  8
0
 10
-142.6
 20
4
 11
-130
 21
4
  0
LINE
  8
0
 10
-130
 20
4
 11
-130
 21
0
  0
LINE
  8
0
 10
-130
 20
0
 11
-117.4
 21
0
  0
LINE
  8
0
 10
-117.4
 20
0
 11
-117.4
 21
4
  0
LINE
  8
0
 10
-117.4
 20
4
 11
-104.8
 21
4
  0
LINE
  8
0
 10
-104.8
 20
4
 11
-104.8
 21
0
  0
LINE
  8
0
 10
-104.8
 20
0
 11
-92.2
 21
0
  0
LINE
  8
0
 10
-92.2
 20
0
 11
-92.2
 21
4
  0
LINE
  8
0
 10
-92.2
 20
4
 11
-79.6
 21
4
  0
LINE
  8
0
 10
-79.6
 20
4
 11
-79.6
 21
0
  0
LINE
  8
0
 10
-79.6
 20
0
 11
-67
 21
0
  0
LINE
  8
0
 10
-67
 20
0
 11
-67
 21
4
  0
LINE
  8
0
 10
-67
 20
4
 11
-54.4
 21
4
  0
LINE
  8
0
 10
-54.4
 20
4
 11
-54.4
 21
0
  0
LINE
  8
0
 10
-54.4
 20
0
 11
-41.8
 21
0
  0
LINE
  8
0
 10
-41.8
 20
0
 11
-41.8
 21
4
  0
LINE
  8
0
 10
-41.8
 20
4
 11
-29.2
 21
4
  0
LINE
  8
0
 10
-29.2
 20
4
 11
-29.2
 21
0
  0
LINE
  8
0
 10
-29.2
 20
0
 11
-16.6
 21
0
  0
LINE
  8
0
 10
-16.6
 20
0
 11
-16.6
 21
4
  0
LINE
  8
0
 10
-16.6
 20
4
 11
-4
 21
4
  0
LINE
  8
0
 10
-4
 20
4
 11
-4
 21
12.6
  0
LINE
  8
0
 10
-4
 20
12.6
 11
-8
 21
12.6
  0
LINE
  8
0
 10
-8
 20
12.6
 11
-8
 21
25.2
  0
LINE
  8
0
 10
-8
 20
25.2
 11
-4
 21
25.2
  0
LINE
  8
0
 10
-4
 20
25.2
 11
-4
 21
37.8
  0
LINE
  8
0
 10
-4
 20
37.8
 11
-8
 21
37.8
  0
LINE
  8
0
 10
-8
 20
37.8
 11
-8
 21
50.4
  0
LINE
  8
0
 10
-8
 20
50.4
 11
-4
 21
50.4
  0
LINE
  8
0
 10
-4
 20
50.4
 11
-4
 21
63
  0
LINE
  8
0
 10
-4
 20
63
 11
-8
 21
63
  0
LINE
  8
0
 10
-8
 20
63
 11
-8
 21
75.6
  0
LINE
  8
0
 10
-8
 20
75.6
 11
-4
 21
75.6
  0
LINE
  8
0
 10
-4
 20
75.6
 11
-4
 21
88.2
  0
LINE
  8
0
 10
-4
 20
88.2
 11
-8
 21
88.2
  0
LINE
  8
0
 10
-8
 20
88.2
 11
-8
 21
100.8
  0
LINE
  8
0
 10
-8
 20
100.8
 11
-4
 21
100.8
  0
LINE
  8
0
 10
-4
 20
100.8
 11
-4
 21
113.4
  0
LINE
  8
0
 10
-4
 20
113.4
 11
-8
 21
113.4
  0
LINE
  8
0
 10
-8
 20
113.4
 11
-8
 21
126
  0
LINE
  8
0
 10
-8
 20
126
 11
-4
 21
126
  0
LINE
  8
0
 10
-4
 20
126
 11
-4
 21
138.6
  0
LINE
  8
0
 10
-4
 20
138.6
 11
-8
 21
138.6
  0
LINE
  8
0
 10
-8
 20
138.6
 11
-8
 21
151.2
  0
LINE
  8
0
 10
-8
 20
151.2
 11
-4
 21
151.2
  0
LINE
  8
0
 10
-4
 20
151.2
 11
-4
 21
163.8
  0
LINE
  8
0
 10
-4
 20
163.8
 11
-8
 21
163.8
  0
LINE
  8
0
 10
-8
 20
163.8
 11
-8
 21
176.4
  0
LINE
  8
0
 10
-8
 20
176.4
 11
-4
 21
176.4
  0
LINE
  8
0
 10
-4
 20
176.4
 11
-4
 21
189
  0
LINE
  8
0
 10
-4
 20
189
 11
-8
 21
189
  0
LINE
  8
0
 10
-8
 20
189
 11
-8
 21
201.6
  0
LINE
  8
0
 10
-8
 20
201.6
 11
-4
 21
201.6
  0
LINE
  8
0
 10
-4
 20
201.6
 11
-4
 21
214.2
  0
LINE
  8
0
 10
-4
 20
214.2
 11
-8
 21
214.2
  0
LINE
  8
0
 10
-8
 20
214.2
 11
-8
 21
226.8
  0
LINE
  8
0
 10
-8
 20
226.8
 11
-4
 21
226.8
  0
LINE
  8
0
 10
-4
 20
226.8
 11
-4
 21
239.4
  0
LINE
  8
0
 10
-4
 20
239.4
 11
-8
 21
239.4
  0
LINE
  8
0
 10
-8
 20
239.4
 11
-8
 21
252
  0
LINE
  8
0
 10
-8
 20
252
 11
-4
 21
252
  0
LINE
  8
0
 10
-4
 20
252
 11
-4
 21
264.6
  0
LINE
  8
0
 10
-4
 20
264.6
 11
-8
 21
264.6
  0
LINE
  8
0
 10
-8
 20
264.6
 11
-8
 21
277.2
  0
LINE
  8
0
 10
-8
 20
277.2
 11
-4
 21
277.2
  0
LINE
  8
0
 10
-4
 20
277.2
 11
-4
 21
289.8
  0
LINE
  8
0
 10
-4
 20
289.8
 11
-8
 21
289.8
  0
LINE
  8
0
 10
-8
 20
289.8
 11
-8
 21
302.4
  0
LINE
  8
0
 10
-8
 20
302.4
 11
-4
 21
302.4
  0
LINE
  8
0
 10
-4
 20
302.4
 11
-4
 21
315
  0
LINE
  8
0
 10
-4
 20
315
 11
-8
 21
315
  0
LINE
  8
0
 10
-8
 20
315
 11
-8
 21
327.6
  0
LINE
  8
0
 10
-8
 20
327.6
 11
-4
 21
327.6
  0
LINE
  8
0
 10
-4
 20
327.6
 11
-4
 21
340.2
  0
LINE
  8
0
 10
-4
 20
340.2
 11
-8
 21
340.2
  0
LINE
  8
0
 10
-8
 20
340.2
 11
-8
 21
352.8
  0
LINE
  8
0
 10
-8
 20
352.8
 11
-4
 21
352.8
  0
LINE
  8
0
 10
-4
 20
352.8
 11
-4
 21
365.4
  0
LINE
  8
0
 10
-4
 20
365.4
 11
-8
 21
365.4
  0
LINE
  8
0
 10
-8
 20
365.4
 11
-8
 21
378
  0
LINE
  8
0
 10
-8
 20
378
 11
-4
 21
378
  0
LINE
  8
0
 10
-4
 20
378
 11
-4
 21
390.6
  0
LINE
  8
0
 10
-4
 20
390.6
 11
-8
 21
390.6
  0
LINE
  8
0
 10
-8
 20
390.6
 11
-8
 21
403.2
  0
LINE
  8
0
 10
-8
 20
403.2
 11
-4
 21
403.2
  0
LINE
  8
0
 10
-4
 20
403.2
 11
-4
 21
415.8
  0
LINE
  8
0
 10
-4
 20
415.8
 11
-8
 21
415.8
  0
LINE
  8
0
 10
-8
 20
415.8
 11
-8
 21
428.4
  0
LINE
  8
0
 10
-8
 20
428.4
 11
-4
 21
428.4
  0
LINE
  8
0
 10
-4
 20
428.4
 11
-4
 21
437
  0
LINE
  8
0
 10
-4
 20
437
 11
-16.6
 21
437
  0
LINE
  8
0
 10
-16.6
 20
437
 11
-16.6
 21
441
  0
LINE
  8
0
 10
-16.6
 20
441
 11
-29.2
 21
441
  0
LINE
  8
0
 10
-29.2
 20
441
 11
-29.2
 21
437
  0
LINE
  8
0
 10
-29.2
 20
437
 11
-41.8
 21
437
  0
LINE
  8
0
 10
-41.8
 20
437
 11
-41.8
 21
441
  0
LINE
  8
0
 10
-41.8
 20
441
 11
-54.4
 21
441
  0
LINE
  8
0
 10
-54.4
 20
441
 11
-54.4
 21
437
  0
LINE
  8
0
 10
-54.4
 20
437
 11
-67
 21
437
  0
LINE
  8
0
 10
-67
 20
437
 11
-67
 21
441
  0
LINE
  8
0
 10
-67
 20
441
 11
-79.6
 21
441
  0
LINE
  8
0
 10
-79.6
 20
441
 11
-79.6
 21
437
  0
LINE
  8
0
 10
-79.6
 20
437
 11
-92.2
 21
437
  0
LINE
  8
0
 10
-92.2
 20
437
 11
-92.2
 21
441
  0
LINE
  8
0
 10
-92.2
 20
441
 11
-104.8
 21
441
  0
LINE
  8
0
 10
-104.8
 20
441
 11
-104.8
 21
437
  0
LINE
  8
0
 10
-104.8
 20
437
 11
-117.4
 21
437
  0
LINE
  8
0
 10
-117.4
 20
437
 11
-117.4
 21
441
  0
LINE
  8
0
 10
-117.4
 20
441
 11
-130
 21
441
  0
LINE
  8
0
 10
-130
 20
441
 11
-130
 21
437
  0
LINE
  8
0
 10
-130
 20
437
 11
-142.6
 21
437
  0
LINE
  8
0
 10
-142.6
 20
437
 11
-142.6
 21
441
  0
LINE
  8
0
 10
-142.6
 20
441
 11
-147
 21
441
  0
LINE
  8
0
 10
-147
 20
441
 11
-147
 21
437
  0
LINE
  8
0
 10
-147
 20
437
 11
-159.6
 21
437
  0
LINE
  8
0
 10
-159.6
 20
437
 11
-159.6
 21
4
  0
LINE
  8
0
 10
-159.6
 20
4
 11
-147
 21
4
  0
LINE
  8
0
 10
-147
 20
4
 11
-147
 21
0
  0
LINE
  8
0
 10
-147
 20
0
 11
-142.6
 21
0
  0
LINE
  8
0
 10
-142.6
 20
0
 11
-142.6
 21
4
  0
LINE
  8
0
 10
25.2
 20
4
 11
37.8
 21
4
  0
LINE
  8
0
 10
37.8
 20
4
 11
37.8
 21
0
  0
LINE
  8
0
 10
37.8
 20
0
 11
50.4
 21
0
  0
LINE
  8
0
 10
50.4
 20
0
 11
50.4
 21
4
  0
LINE
  8
0
 10
50.4
 20
4
 11
63
 21
4
  0
LINE
  8
0
 10
63
 20
4
 11
63
 21
0
  0
LINE
  8
0
 10
63
 20
0
 11
75.6
 21
0
  0
LINE
  8
0
 10
75.6
 20
0
 11
75.6
 21
4
  0
LINE
  8
0
 10
75.6
 20
4
 11
88.2
 21
4
  0
LINE
  8
0
 10
88.2
 20
4
 11
88.2
 21
0
  0
LINE
  8
0
 10
88.2
 20
0
 11
100.8
 21
0
  0
LINE
  8
0
 10
100.8
 20
0
 11
100.8
 21
4
  0
LINE
  8
0
 10
100.8
 20
4
 11
113.4
 21
4
  0
LINE
  8
0
 10
113.4
 20
4
 11
113.4
 21
437
  0
LINE
  8
0
 10
113.4
 20
437
 11
100.8
 21
437
  0
LINE
  8
0
 10
100.8
 20
437
 11
100.8
 21
441
  0
LINE
  8
0
 10
100.8
 20
441
 11
88.2
 21
441
  0
LINE
  8
0
 10
88.2
 20
441
 11
88.2
 21
437
  0
LINE
  8
0
 10
88.2
 20
437
 11
75.6
 21
437
  0
LINE
  8
0
 10
75.6
 20
437
 11
75.6
 21
441
  0
LINE
  8
0
 10
75.6
 20
441
 11
63
 21
441
  0
LINE
  8
0
 10
63
 20
441
 11
63
 21
437
  0
LINE
  8
0
 10
63
 20
437
 11
50.4
 21
437
  0
LINE
  8
0
 10
50.4
 20
437
 11
50.4
 21
441
  0
LINE
  8
0
 10
50.4
 20
441
 11
37.8
 21
441
  0
LINE
  8
0
 10
37.8
 20
441
 11
37.8
 21
437
  0
LINE
  8
0
 10
37.8
 20
437
 11
25.2
 21
437
  0
LINE
  8
0
 10
25.2
 20
437
 11
25.2
 21
441
  0
LINE
  8
0
 10
25.2
 20
441
 11
12.6
 21
441
  0
LINE
  8
0
 10
12.6
 20
441
 11
12.6
 21
437
  0
LINE
  8
0
 10
12.6
 20
437
 11
4
 21
437
  0
LINE
  8
0
 10
4
 20
437
 11
4
 21
428.4
  0
LINE
  8
0
 10
4
 20
428.4
 11
0
 21
428.4
  0
LINE
  8
0
 10
0
 20
428.4
 11
0
 21
415.8
  0
LINE
  8
0
 10
0
 20
415.8
 11
4
 21
415.8
  0
LINE
  8
0
 10
4
 20
415.8
 11
4
 21
403.2
  0
LINE
  8
0
 10
4
 20
403.2
 11
0
 21
403.2
  0
LINE
  8
0
 10
0
 20
403.2
 11
0
 21
390.6
  0
LINE
  8
0
 10
0
 20
390.6
 11
4
 21
390.6
  0
LINE
  8
0
 10
4
 20
390.6
 11
4
 21
378
  0
LINE
  8
0
 10
4
 20
378
 11
0
 21
378
  0
LINE
  8
0
 10
0
 20
378
 11
0
 21
365.4
  0
LINE
  8
0
 10
0
 20
365.4
 11
4
 21
365.4
  0
LINE
  8
0
 10
4
 20
365.4
 11
4
 21
352.8
  0
LINE
  8
0
 10
4
 20
352.8
 11
0
 21
352.8
  0
LINE
  8
0
 10
0
 20
352.8
 11
0
 21
340.2
  0
LINE
  8
0
 10
0
 20
340.2
 11
4
 21
340.2
  0
LINE
  8
0
 10
4
 20
340.2
 11
4
 21
327.6
  0
LINE
  8
0
 10
4
 20
327.6
 11
0
 21
327.6
  0
LINE
  8
0
 10
0
 20
327.6
 11
0
 21
315
  0
LINE
  8
0
 10
0
 20
315
 11
4
 21
315
  0
LINE
  8
0
 10
4
 20
315
 11
4
 21
302.4
  0
LINE
  8
0
 10
4
 20
302.4
 11
0
 21
302.4
  0
LINE
  8
0
 10
0
 20
302.4
 11
0
 21
289.8
  0
LINE
  8
0
 10
0
 20
289.8
 11
4
 21
289.8
  0
LINE
  8
0
 10
4
 20
289.8
 11
4
 21
277.2
  0
LINE
  8
0
 10
4
 20
277.2
 11
0
 21
277.2
  0
LINE
  8
0
 10
0
 20
277.2
 11
0
 21
264.6
  0
LINE
  8
0
 10
0
 20
264.6
 11
4
 21
264.6
  0
LINE
  8
0
 10
4
 20
264.6
 11
4
 21
252
  0
LINE
  8
0
 10
4
 20
252
 11
0
 21
252
  0
LINE
  8
0
 10
0
 20
252
 11
0
 21
239.4
  0
LINE
  8
0
 10
0
 20
239.4
 11
4
 21
239.4
  0
LINE
  8
0
 10
4
 20
239.4
 11
4
 21
226.8
  0
LINE
  8
0
 10
4
 20
226.8
 11
0
 21
226.8
  0
LINE
  8
0
 10
0
 20
226.8
 11
0
 21
214.2
  0
LINE
  8
0
 10
0
 20
214.2
 11
4
 21
214.2
  0
LINE
  8
0
 10
4
 20
214.2
 11
4
 21
201.6
  0
LINE
  8
0
 10
4
 20
201.6
 11
0
 21
201.6
  0
LINE
  8
0
 10
0
 20
201.6
 11
0
 21
189
  0
LINE
  8
0
 10
0
 20
189
 11
4
 21
189
  0
LINE
  8
0
 10
4
 20
189
 11
4
 21
176.4
  0
LINE
  8
0
 10
4
 20
176.4
 11
0
 21
176.4
  0
LINE
  8
0
 10
0
 20
176.4
 11
0
 21
163.8
  0
LINE
  8
0
 10
0
 20
163.8
 11
4
 21
163.8
  0
LINE
  8
0
 10
4
 20
163.8
 11
4
 21
151.2
  0
LINE
  8
0
 10
4
 20
151.2
 11
0
 21
151.2
  0
LINE
  8
0
 10
0
 20
151.2
 11
0
 21
138.6
  0
LINE
  8
0
 10
0
 20
138.6
 11
4
 21
138.6
  0
LINE
  8
0
 10
4
 20
138.6
 11
4
 21
126
  0
LINE
  8
0
 10
4
 20
126
 11
0
 21
126
  0
LINE
  8
0
 10
0
 20
126
 11
0
 21
113.4
  0
LINE
  8
0
 10
0
 20
113.4
 11
4
 21
113.4
  0
LINE
  8
0
 10
4
 20
113.4
 11
4
 21
100.8
  0
LINE
  8
0
 10
4
 20
100.8
 11
0
 21
100.8
  0
LINE
  8
0
 10
0
 20
100.8
 11
0
 21
88.2
  0
LINE
  8
0
 10
0
 20
88.2
 11
4
 21
88.2
  0
LINE
  8
0
 10
4
 20
88.2
 11
4
 21
75.6
  0
LINE
  8
0
 10
4
 20
75.6
 11
0
 21
75.6
  0
LINE
  8
0
 10
0
 20
75.6
 11
0
 21
63
  0
LINE
  8
0
 10
0
 20
63
 11
4
 21
63
  0
LINE
  8
0
 10
4
 20
63
 11
4
 21
50.4
  0
LINE
  8
0
 10
4
 20
50.4
 11
0
 21
50.4
  0
LINE
  8
0
 10
0
 20
50.4
 11
0
 21
37.8
  0
LINE
  8
0
 10
0
 20
37.8
 11
4
 21
37.8
  0
LINE
  8
0
 10
4
 20
37.8
 11
4
 21
25.2
  0
LINE
  8
0
 10
4
 20
25.2
 11
0
 21
25.2
  0
LINE
  8
0
 10
0
 20
25.2
 11
0
 21
12.6
  0
LINE
  8
0
 10
0
 20
12.6
 11
4
 21
12.6
  0
LINE
  8
0
 10
4
 20
12.6
 11
4
 21
4
  0
LINE
  8
0
 10
4
 20
4
 11
12.6
 21
4
  0
LINE
  8
0
 10
12.6
 20
4
 11
12.6
 21
0
  0
LINE
  8
0
 10
12.6
 20
0
 11
25.2
 21
0
  0
LINE
  8
0
 10
25.2
 20
0
 11
25.2
 21
4
  0
LINE
  8
0
 10
56.2811
 20
30.0044
 11
55.4442
 21
30.0395
  0
LINE
  8
0
 10
55.4442
 20
30.0395
 11
54.6094
 21
30.1096
  0
LINE
  8
0
 10
54.6094
 20
30.1096
 11
53.7783
 21
30.2146
  0
LINE
  8
0
 10
53.7783
 20
30.2146
 11
52.9524
 21
30.3542
  0
LINE
  8
0
 10
52.9524
 20
30.3542
 11
52.133
 21
30.5284
  0
LINE
  8
0
 10
52.133
 20
30.5284
 11
51.3216
 21
30.7367
  0
LINE
  8
0
 10
51.3216
 20
30.7367
 11
50.5196
 21
30.9789
  0
LINE
  8
0
 10
50.5196
 20
30.9789
 11
49.7285
 21
31.2543
  0
LINE
  8
0
 10
49.7285
 20
31.2543
 11
48.9497
 21
31.5627
  0
LINE
  8
0
 10
48.9497
 20
31.5627
 11
48.1844
 21
31.9035
  0
LINE
  8
0
 10
48.1844
 20
31.9035
 11
47.4341
 21
32.2759
  0
LINE
  8
0
 10
47.4341
 20
32.2759
 11
46.7
 21
32.6795
  0
LINE
  8
0
 10
46.7
 20
32.6795
 11
45.9834
 21
33.1134
  0
LINE
  8
0
 10
45.9834
 20
33.1134
 11
45.2857
 21
33.577
  0
LINE
  8
0
 10
45.2857
 20
33.577
 11
44.608
 21
34.0694
  0
LINE
  8
0
 10
44.608
 20
34.0694
 11
43.9515
 21
34.5897
  0
LINE
  8
0
 10
43.9515
 20
34.5897
 11
43.3174
 21
35.1371
  0
LINE
  8
0
 10
43.3174
 20
35.1371
 11
42.7067
 21
35.7105
  0
LINE
  8
0
 10
42.7067
 20
35.7105
 11
42.1206
 21
36.3091
  0
LINE
  8
0
 10
42.1206
 20
36.3091
 11
41.5601
 21
36.9316
  0
LINE
  8
0
 10
41.5601
 20
36.9316
 11
41.0261
 21
37.577
  0
LINE
  8
0
 10
41.0261
 20
37.577
 11
40.5196
 21
38.2443
  0
LINE
  8
0
 10
40.5196
 20
38.2443
 11
40.0415
 21
38.9322
  0
LINE
  8
0
 10
40.0415
 20
38.9322
 11
39.5927
 21
39.6395
  0
LINE
  8
0
 10
39.5927
 20
39.6395
 11
39.1738
 21
40.3649
  0
LINE
  8
0
 10
39.1738
 20
40.3649
 11
38.7858
 21
41.1073
  0
LINE
  8
0
 10
38.7858
 20
41.1073
 11
38.4291
 21
41.8653
  0
LINE
  8
0
 10
38.4291
 20
41.8653
 11
38.1044
 21
42.6375
  0
LINE
  8
0
 10
38.1044
 20
42.6375
 11
37.8125
 21
43.4227
  0
LINE
  8
0
 10
37.8125
 20
43.4227
 11
37.5536
 21
44.2194
  0
LINE
  8
0
 10
37.5536
 20
44.2194
 11
37.3283
 21
45.0262
  0
LINE
  8
0
 10
37.3283
 20
45.0262
 11
37.137
 21
45.8418
  0
LINE
  8
0
 10
37.137
 20
45.8418
 11
36.9801
 21
46.6646
  0
LINE
  8
0
 10
36.9801
 20
46.6646
 11
36.8577
 21
47.4933
  0
LINE
  8
0
 10
36.8577
 20
47.4933
 11
36.7701
 21
48.3264
  0
LINE
  8
0
 10
36.7701
 20
48.3264
 11
36.7175
 21
49.1625
  0
LINE
  8
0
 10
36.7175
 20
49.1625
 11
36.7
 21
50
  0
LINE
  8
0
 10
36.7
 20
50
 11
36.7175
 21
50.8375
  0
LINE
  8
0
 10
36.7175
 20
50.8375
 11
36.7701
 21
51.6736
  0
LINE
  8
0
 10
36.7701
 20
51.6736
 11
36.8577
 21
52.5067
  0
LINE
  8
0
 10
36.8577
 20
52.5067
 11
36.9801
 21
53.3354
  0
LINE
  8
0
 10
36.9801
 20
53.3354
 11
37.137
 21
54.1582
  0
LINE
  8
0
 10
37.137
 20
54.1582
 11
37.3283
 21
54.9738
  0
LINE
  8
0
 10
37.3283
 20
54.9738
 11
37.5536
 21
55.7806
  0
LINE
  8
0
 10
37.5536
 20
55.7806
 11
37.8125
 21
56.5773
  0
LINE
  8
0
 10
37.8125
 20
56.5773
 11
38.1044
 21
57.3625
  0
LINE
  8
0
 10
38.1044
 20
57.3625
 11
38.4291
 21
58.1347
  0
LINE
  8
0
 10
38.4291
 20
58.1347
 11
38.7858
 21
58.8927
  0
LINE
  8
0
 10
38.7858
 20
58.8927
 11
39.1738
 21
59.6351
  0
LINE
  8
0
 10
39.1738
 20
59.6351
 11
39.5927
 21
60.3605
  0
LINE
  8
0
 10
39.5927
 20
60.3605
 11
40.0415
 21
61.0678
  0
LINE
  8
0
 10
40.0415
 20
61.0678
 11
40.5196
 21
61.7557
  0
LINE
  8
0
 10
40.5196
 20
61.7557
 11
41.0261
 21
62.4229
  0
LINE
  8
0
 10
41.0261
 20
62.4229
 11
41.5601
 21
63.0684
  0
LINE
  8
0
 10
41.5601
 20
63.0684
 11
42.1206
 21
63.6909
  0
LINE
  8
0
 10
42.1206
 20
63.6909
 11
42.7067
 21
64.2894
  0
LINE
  8
0
 10
42.7067
 20
64.2894
 11
43.3174
 21
64.8629
  0
LINE
  8
0
 10
43.3174
 20
64.8629
 11
43.9515
 21
65.4103
  0
LINE
  8
0
 10
43.9515
 20
65.4103
 11
44.608
 21
65.9306
  0
LINE
  8
0
 10
44.608
 20
65.9306
 11
45.2857
 21
66.423
  0
LINE
  8
0
 10
45.2857
 20
66.423
 11
45.9834
 21
66.8866
  0
LINE
  8
0
 10
45.9834
 20
66.8866
 11
46.7
 21
67.3205
  0
LINE
  8
0
 10
46.7
 20
67.3205
 11
47.4341
 21
67.7241
  0
LINE
  8
0
 10
47.4341
 20
67.7241
 11
48.1844
 21
68.0965
  0
LINE
  8
0
 10
48.1844
 20
68.0965
 11
48.9497
 21
68.4373
  0
LINE
  8
0
 10
48.9497
 20
68.4373
 11
49.7285
 21
68.7456
  0
LINE
  8
0
 10
49.7285
 20
68.7456
 11
50.5196
 21
69.0211
  0
LINE
  8
0
 10
50.5196
 20
69.0211
 11
51.3216
 21
69.2632
  0
LINE
  8
0
 10
51.3216
 20
69.2632
 11
52.133
 21
69.4716
  0
LINE
  8
0
 10
52.133
 20
69.4716
 11
52.9524
 21
69.6457
  0
LINE
  8
0
 10
52.9524
 20
69.6457
 11
53.7783
 21
69.7854
  0
LINE
  8
0
 10
53.7783
 20
69.7854
 11
54.6094
 21
69.8904
  0
LINE
  8
0
 10
54.6094
 20
69.8904
 11
55.4442
 21
69.9605
  0
LINE
  8
0
 10
55.4442
 20
69.9605
 11
56.2811
 21
69.9956
  0
LINE
  8
0
 10
56.2811
 20
69.9956
 11
57.1188
 21
69.9956
  0
LINE
  8
0
 10
57.1188
 20
69.9956
 11
57.9558
 21
69.9605
  0
LINE
  8
0
 10
57.9558
 20
69.9605
 11
58.7905
 21
69.8904
  0
LINE
  8
0
 10
58.7905
 20
69.8904
 11
59.6216
 21
69.7854
  0
LINE
  8
0
 10
59.6216
 20
69.7854
 11
60.4476
 21
69.6457
  0
LINE
  8
0
 10
60.4476
 20
69.6457
 11
61.267
 21
69.4716
  0
LINE
  8
0
 10
61.267
 20
69.4716
 11
62.0784
 21
69.2632
  0
LINE
  8
0
 10
62.0784
 20
69.2632
 11
62.8803
 21
69.0211
  0
LINE
  8
0
 10
62.8803
 20
69.0211
 11
63.6714
 21
68.7456
  0
LINE
  8
0
 10
63.6714
 20
68.7456
 11
64.4503
 21
68.4373
  0
LINE
  8
0
 10
64.4503
 20
68.4373
 11
65.2156
 21
68.0965
  0
LINE
  8
0
 10
65.2156
 20
68.0965
 11
65.9659
 21
67.7241
  0
LINE
  8
0
 10
65.9659
 20
67.7241
 11
66.7
 21
67.3205
  0
LINE
  8
0
 10
66.7
 20
67.3205
 11
67.4165
 21
66.8866
  0
LINE
  8
0
 10
67.4165
 20
66.8866
 11
68.1143
 21
66.423
  0
LINE
  8
0
 10
68.1143
 20
66.423
 11
68.792
 21
65.9306
  0
LINE
  8
0
 10
68.792
 20
65.9306
 11
69.4485
 21
65.4103
  0
LINE
  8
0
 10
69.4485
 20
65.4103
 11
70.0826
 21
64.8629
  0
LINE
  8
0
 10
70.0826
 20
64.8629
 11
70.6933
 21
64.2894
  0
LINE
  8
0
 10
70.6933
 20
64.2894
 11
71.2794
 21
63.6909
  0
LINE
  8
0
 10
71.2794
 20
63.6909
 11
71.8399
 21
63.0684
  0
LINE
  8
0
 10
71.8399
 20
63.0684
 11
72.3739
 21
62.4229
  0
LINE
  8
0
 10
72.3739
 20
62.4229
 11
72.8803
 21
61.7557
  0
LINE
  8
0
 10
72.8803
 20
61.7557
 11
73.3584
 21
61.0678
  0
LINE
  8
0
 10
73.3584
 20
61.0678
 11
73.8073
 21
60.3605
  0
LINE
  8
0
 10
73.8073
 20
60.3605
 11
74.2261
 21
59.6351
  0
LINE
  8
0
 10
74.2261
 20
59.6351
 11
74.6142
 21
58.8927
  0
LINE
  8
0
 10
74.6142
 20
58.8927
 11
74.9709
 21
58.1347
  0
LINE
  8
0
 10
74.9709
 20
58.1347
 11
75.2955
 21
57.3625
  0
LINE
  8
0
 10
75.2955
 20
57.3625
 11
75.5875
 21
56.5773
  0
LINE
  8
0
 10
75.5875
 20
56.5773
 11
75.8464
 21
55.7806
  0
LINE
  8
0
 10
75.8464
 20
55.7806
 11
76.0716
 21
54.9738
  0
LINE
  8
0
 10
76.0716
 20
54.9738
 11
76.2629
 21
54.1582
  0
LINE
  8
0
 10
76.2629
 20
54.1582
 11
76.4199
 21
53.3354
  0
LINE
  8
0
 10
76.4199
 20
53.3354
 11
76.5423
 21
52.5067
  0
LINE
  8
0
 10
76.5423
 20
52.5067
 11
76.6298
 21
51.6736
  0
LINE
  8
0
 10
76.6298
 20
51.6736
 11
76.6824
 21
50.8375
  0
LINE
  8
0
 10
76.6824
 20
50.8375
 11
76.7
 21
50
  0
LINE
  8
0
 10
76.7
 20
50
 11
76.6824
 21
49.1625
  0
LINE
  8
0
 10
76.6824
 20
49.1625
 11
76.6298
 21
48.3264
  0
LINE
  8
0
 10
76.6298
 20
48.3264
 11
76.5423
 21
47.4933
  0
LINE
  8
0
 10
76.5423
 20
47.4933
 11
76.4199
 21
46.6646
  0
LINE
  8
0
 10
76.4199
 20
46.6646
 11
76.2629
 21
45.8418
  0
LINE
  8
0
 10
76.2629
 20
45.8418
 11
76.0716
 21
45.0262
  0
LINE
  8
0
 10
76.0716
 20
45.0262
 11
75.8464
 21
44.2194
  0
LINE
  8
0
 10
75.8464
 20
44.2194
 11
75.5875
 21
43.4227
  0
LINE
  8
0
 10
75.5875
 20
43.4227
 11
75.2955
 21
42.6375
  0
LINE
  8
0
 10
75.2955
 20
42.6375
 11
74.9709
 21
41.8653
  0
LINE
  8
0
 10
74.9709
 20
41.8653
 11
74.6142
 21
41.1073
  0
LINE
  8
0
 10
74.6142
 20
41.1073
 11
74.2261
 21
40.3649
  0
LINE
  8
0
 10
74.2261
 20
40.3649
 11
73.8073
 21
39.6395
  0
LINE
  8
0
 10
73.8073
 20
39.6395
 11
73.3584
 21
38.9322
  0
LINE
  8
0
 10
73.3584
 20
38.9322
 11
72.8803
 21
38.2443
  0
LINE
  8
0
 10
72.8803
 20
38.2443
 11
72.3739
 21
37.577
  0
LINE
  8
0
 10
72.3739
 20
37.577
 11
71.8399
 21
36.9316
  0
LINE
  8
0
 10
71.8399
 20
36.9316
 11
71.2794
 21
36.3091
  0
LINE
  8
0
 10
71.2794
 20
36.3091
 11
70.6933
 21
35.7105
  0
LINE
  8
0
 10
70.6933
 20
35.7105
 11
70.0826
 21
35.1371
  0
LINE
  8
0
 10
70.0826
 20
35.1371
 11
69.4485
 21
34.5897
  0
LINE
  8
0
 10
69.4485
 20
34.5897
 11
68.792
 21
34.0694
  0
LINE
  8
0
 10
68.792
 20
34.0694
 11
68.1143
 21
33.577
  0
LINE
  8
0
 10
68.1143
 20
33.577
 11
67.4165
 21
33.1134
  0
LINE
  8
0
 10
67.4165
 20
33.1134
 11
66.7
 21
32.6795
  0
LINE
  8
0
 10
66.7
 20
32.6795
 11
65.9659
 21
32.2759
  0
LINE
  8
0
 10
65.9659
 20
32.2759
 11
65.2156
 21
31.9035
  0
LINE
  8
0
 10
65.2156
 20
31.9035
 11
64.4503
 21
31.5627
  0
LINE
  8
0
 10
64.4503
 20
31.5627
 11
63.6714
 21
31.2543
  0
LINE
  8
0
 10
63.6714
 20
31.2543
 11
62.8803
 21
30.9789
  0
LINE
  8
0
 10
62.8803
 20
30.9789
 11
62.0784
 21
30.7367
  0
LINE
  8
0
 10
62.0784
 20
30.7367
 11
61.267
 21
30.5284
  0
LINE
  8
0
 10
61.267
 20
30.5284
 11
60.4476
 21
30.3542
  0
LINE
  8
0
 10
60.4476
 20
30.3542
 11
59.6216
 21
30.2146
  0
LINE
  8
0
 10
59.6216
 20
30.2146
 11
58.7905
 21
30.1096
  0
LINE
  8
0
 10
58.7905
 20
30.1096
 11
57.9558
 21
30.0395
  0
LINE
  8
0
 10
57.9558
 20
30.0395
 11
57.1188
 21
30.0044
  0
LINE
  8
0
 10
57.1188
 20
30.0044
 11
56.2811
 21
30.0044
  0
LINE
  8
0
 10
-27.5
 20
-159.6
 11
-4
 21
-159.6
  0
LINE
  8
0
 10
-4
 20
-159.6
 11
-4
 21
-4
  0
LINE
  8
0
 10
-4
 20
-4
 11
-27.5
 21
-4
  0
LINE
  8
0
 10
-27.5
 20
-4
 11
-35.5
 21
-16.6
  0
LINE
  8
0
 10
-35.5
 20
-16.6
 11
-41.8
 21
-16.6
  0
LINE
  8
0
 10
-41.8
 20
-16.6
 11
-41.8
 21
-20.6
  0
LINE
  8
0
 10
-41.8
 20
-20.6
 11
-54.4
 21
-20.6
  0
LINE
  8
0
 10
-54.4
 20
-20.6
 11
-54.4
 21
-16.6
  0
LINE
  8
0
 10
-54.4
 20
-16.6
 11
-67
 21
-16.6
  0
LINE
  8
0
 10
-67
 20
-16.6
 11
-67
 21
-20.6
  0
LINE
  8
0
 10
-67
 20
-20.6
 11
-79.6
 21
-20.6
  0
LINE
  8
0
 10
-79.6
 20
-20.6
 11
-79.6
 21
-16.6
  0
LINE
  8
0
 10
-79.6
 20
-16.6
 11
-85.9
 21
-16.6
  0
LINE
  8
0
 10
-85.9
 20
-16.6
 11
-93.9
 21
-4
  0
LINE
  8
0
 10
-93.9
 20
-4
 11
-117.4
 21
-4
  0
LINE
  8
0
 10
-117.4
 20
-4
 11
-117.4
 21
-29.2
  0
LINE
  8
0
 10
-117.4
 20
-29.2
 11
-113.4
 21
-29.2
  0
LINE
  8
0
 10
-113.4
 20
-29.2
 11
-113.4
 21
-41.8
  0
LINE
  8
0
 10
-113.4
 20
-41.8
 11
-117.4
 21
-41.8
  0
LINE
  8
0
 10
-117.4
 20
-41.8
 11
-117.4
 21
-54.4
  0
LINE
  8
0
 10
-117.4
 20
-54.4
 11
-113.4
 21
-54.4
  0
LINE
  8
0
 10
-113.4
 20
-54.4
 11
-113.4
 21
-67
  0
LINE
  8
0
 10
-113.4
 20
-67
 11
-117.4
 21
-67
  0
LINE
  8
0
 10
-117.4
 20
-67
 11
-117.4
 21
-79.6
  0
LINE
  8
0
 10
-117.4
 20
-79.6
 11
-113.4
 21
-79.6
  0
LINE
  8
0
 10
-113.4
 20
-79.6
 11
-113.4
 21
-92.2
  0
LINE
  8
0
 10
-113.4
 20
-92.2
 11
-117.4
 21
-92.2
  0
LINE
  8
0
 10
-117.4
 20
-92.2
 11
-117.4
 21
-104.8
  0
LINE
  8
0
 10
-117.4
 20
-104.8
 11
-113.4
 21
-104.8
  0
LINE
  8
0
 10
-113.4
 20
-104.8
 11
-113.4
 21
-117.4
  0
LINE
  8
0
 10
-113.4
 20
-117.4
 11
-117.4
 21
-117.4
  0
LINE
  8
0
 10
-117.4
 20
-117.4
 11
-117.4
 21
-130
  0
LINE
  8
0
 10
-117.4
 20
-130
 11
-113.4
 21
-130
  0
LINE
  8
0
 10
-113.4
 20
-130
 11
-113.4
 21
-142.6
  0
LINE
  8
0
 10
-113.4
 20
-142.6
 11
-117.4
 21
-142.6
  0
LINE
  8
0
 10
-117.4
 20
-142.6
 11
-117.4
 21
-155.2
  0
LINE
  8
0
 10
-117.4
 20
-155.2
 11
-113.4
 21
-155.2
  0
LINE
  8
0
 10
-113.4
 20
-155.2
 11
-113.4
 21
-159.6
  0
LINE
  8
0
 10
-113.4
 20
-159.6
 11
-93.9
 21
-159.6
  0
LINE
  8
0
 10
-93.9
 20
-159.6
 11
-85.9
 21
-172.2
  0
LINE
  8
0
 10
-85.9
 20
-172.2
 11
-35.5
 21
-172.2
  0
LINE
  8
0
 10
-35.5
 20
-172.2
 11
-27.5
 21
-159.6
  0
LINE
  8
0
 10
-104.8
 20
-20.6
 11
-104.8
 21
-16.6
  0
LINE
  8
0
 10
-104.8
 20
-16.6
 11
-92.2
 21
-16.6
  0
LINE
  8
0
 10
-92.2
 20
-16.6
 11
-92.2
 21
-20.6
  0
LINE
  8
0
 10
-92.2
 20
-20.6
 11
-104.8
 21
-20.6
  0
LINE
  8
0
 10
-29.2
 20
-20.6
 11
-29.2
 21
-16.6
  0
LINE
  8
0
 10
-29.2
 20
-16.6
 11
-16.6
 21
-16.6
  0
LINE
  8
0
 10
-16.6
 20
-16.6
 11
-16.6
 21
-20.6
  0
LINE
  8
0
 10
-16.6
 20
-20.6
 11
-29.2
 21
-20.6
  0
LINE
  8
0
 10
-15.0524
 20
-30.0994
 11
-15.157
 21
-30.0951
  0
LINE
  8
0
 10
-15.157
 20
-30.0951
 11
-15.2613
 21
-30.0863
  0
LINE
  8
0
 10
-15.2613
 20
-30.0863
 11
-15.3652
 21
-30.0732
  0
LINE
  8
0
 10
-15.3652
 20
-30.0732
 11
-15.4684
 21
-30.0557
  0
LINE
  8
0
 10
-15.4684
 20
-30.0557
 11
-15.5709
 21
-30.0339
  0
LINE
  8
0
 10
-15.5709
 20
-30.0339
 11
-15.6723
 21
-30.0079
  0
LINE
  8
0
 10
-15.6723
 20
-30.0079
 11
-15.7725
 21
-29.9776
  0
LINE
  8
0
 10
-15.7725
 20
-29.9776
 11
-15.8714
 21
-29.9432
  0
LINE
  8
0
 10
-15.8714
 20
-29.9432
 11
-15.9688
 21
-29.9046
  0
LINE
  8
0
 10
-15.9688
 20
-29.9046
 11
-16.0644
 21
-29.8621
  0
LINE
  8
0
 10
-16.0644
 20
-29.8621
 11
-16.1582
 21
-29.8155
  0
LINE
  8
0
 10
-16.1582
 20
-29.8155
 11
-16.25
 21
-29.7651
  0
LINE
  8
0
 10
-16.25
 20
-29.7651
 11
-16.3396
 21
-29.7108
  0
LINE
  8
0
 10
-16.3396
 20
-29.7108
 11
-16.4268
 21
-29.6529
  0
LINE
  8
0
 10
-16.4268
 20
-29.6529
 11
-16.5115
 21
-29.5913
  0
LINE
  8
0
 10
-16.5115
 20
-29.5913
 11
-16.5936
 21
-29.5263
  0
LINE
  8
0
 10
-16.5936
 20
-29.5263
 11
-16.6728
 21
-29.4579
  0
LINE
  8
0
 10
-16.6728
 20
-29.4579
 11
-16.7491
 21
-29.3862
  0
LINE
  8
0
 10
-16.7491
 20
-29.3862
 11
-16.8224
 21
-29.3114
  0
LINE
  8
0
 10
-16.8224
 20
-29.3114
 11
-16.8925
 21
-29.2335
  0
LINE
  8
0
 10
-16.8925
 20
-29.2335
 11
-16.9592
 21
-29.1529
  0
LINE
  8
0
 10
-16.9592
 20
-29.1529
 11
-17.0225
 21
-29.0695
  0
LINE
  8
0
 10
-17.0225
 20
-29.0695
 11
-17.0823
 21
-28.9835
  0
LINE
  8
0
 10
-17.0823
 20
-28.9835
 11
-17.1384
 21
-28.8951
  0
LINE
  8
0
 10
-17.1384
 20
-28.8951
 11
-17.1908
 21
-28.8044
  0
LINE
  8
0
 10
-17.1908
 20
-28.8044
 11
-17.2393
 21
-28.7116
  0
LINE
  8
0
 10
-17.2393
 20
-28.7116
 11
-17.2839
 21
-28.6168
  0
LINE
  8
0
 10
-17.2839
 20
-28.6168
 11
-17.3244
 21
-28.5203
  0
LINE
  8
0
 10
-17.3244
 20
-28.5203
 11
-17.3609
 21
-28.4221
  0
LINE
  8
0
 10
-17.3609
 20
-28.4221
 11
-17.3933
 21
-28.3226
  0
LINE
  8
0
 10
-17.3933
 20
-28.3226
 11
-17.4214
 21
-28.2217
  0
LINE
  8
0
 10
-17.4214
 20
-28.2217
 11
-17.4454
 21
-28.1198
  0
LINE
  8
0
 10
-17.4454
 20
-28.1198
 11
-17.465
 21
-28.0169
  0
LINE
  8
0
 10
-17.465
 20
-28.0169
 11
-17.4803
 21
-27.9133
  0
LINE
  8
0
 10
-17.4803
 20
-27.9133
 11
-17.4912
 21
-27.8092
  0
LINE
  8
0
 10
-17.4912
 20
-27.8092
 11
-17.4978
 21
-27.7047
  0
LINE
  8
0
 10
-17.4978
 20
-27.7047
 11
-17.5
 21
-27.6
  0
LINE
  8
0
 10
-17.5
 20
-27.6
 11
-17.4978
 21
-27.4953
  0
LINE
  8
0
 10
-17.4978
 20
-27.4953
 11
-17.4912
 21
-27.3908
  0
LINE
  8
0
 10
-17.4912
 20
-27.3908
 11
-17.4803
 21
-27.2867
  0
LINE
  8
0
 10
-17.4803
 20
-27.2867
 11
-17.465
 21
-27.1831
  0
LINE
  8
0
 10
-17.465
 20
-27.1831
 11
-17.4454
 21
-27.0802
  0
LINE
  8
0
 10
-17.4454
 20
-27.0802
 11
-17.4214
 21
-26.9783
  0
LINE
  8
0
 10
-17.4214
 20
-26.9783
 11
-17.3933
 21
-26.8774
  0
LINE
  8
0
 10
-17.3933
 20
-26.8774
 11
-17.3609
 21
-26.7778
  0
LINE
  8
0
 10
-17.3609
 20
-26.7778
 11
-17.3244
 21
-26.6797
  0
LINE
  8
0
 10
-17.3244
 20
-26.6797
 11
-17.2839
 21
-26.5831
  0
LINE
  8
0
 10
-17.2839
 20
-26.5831
 11
-17.2393
 21
-26.4884
  0
LINE
  8
0
 10
-17.2393
 20
-26.4884
 11
-17.1908
 21
-26.3956
  0
LINE
  8
0
 10
-17.1908
 20
-26.3956
 11
-17.1384
 21
-26.3049
  0
LINE
  8
0
 10
-17.1384
 20
-26.3049
 11
-17.0823
 21
-26.2165
  0
LINE
  8
0
 10
-17.0823
 20
-26.2165
 11
-17.0225
 21
-26.1305
  0
LINE
  8
0
 10
-17.0225
 20
-26.1305
 11
-16.9592
 21
-26.0471
  0
LINE
  8
0
 10
-16.9592
 20
-26.0471
 11
-16.8925
 21
-25.9664
  0
LINE
  8
0
 10
-16.8925
 20
-25.9664
 11
-16.8224
 21
-25.8886
  0
LINE
  8
0
 10
-16.8224
 20
-25.8886
 11
-16.7491
 21
-25.8138
  0
LINE
  8
0
 10
-16.7491
 20
-25.8138
 11
-16.6728
 21
-25.7421
  0
LINE
  8
0
 10
-16.6728
 20
-25.7421
 11
-16.5936
 21
-25.6737
  0
LINE
  8
0
 10
-16.5936
 20
-25.6737
 11
-16.5115
 21
-25.6087
  0
LINE
  8
0
 10
-16.5115
 20
-25.6087
 11
-16.4268
 21
-25.5471
  0
LINE
  8
0
 10
-16.4268
 20
-25.5471
 11
-16.3396
 21
-25.4892
  0
LINE
  8
0
 10
-16.3396
 20
-25.4892
 11
-16.25
 21
-25.4349
  0
LINE
  8
0
 10
-16.25
 20
-25.4349
 11
-16.1582
 21
-25.3845
  0
LINE
  8
0
 10
-16.1582
 20
-25.3845
 11
-16.0644
 21
-25.3379
  0
LINE
  8
0
 10
-16.0644
 20
-25.3379
 11
-15.9688
 21
-25.2953
  0
LINE
  8
0
 10
-15.9688
 20
-25.2953
 11
-15.8714
 21
-25.2568
  0
LINE
  8
0
 10
-15.8714
 20
-25.2568
 11
-15.7725
 21
-25.2224
  0
LINE
  8
0
 10
-15.7725
 20
-25.2224
 11
-15.6723
 21
-25.1921
  0
LINE
  8
0
 10
-15.6723
 20
-25.1921
 11
-15.5709
 21
-25.166
  0
LINE
  8
0
 10
-15.5709
 20
-25.166
 11
-15.4684
 21
-25.1443
  0
LINE
  8
0
 10
-15.4684
 20
-25.1443
 11
-15.3652
 21
-25.1268
  0
LINE
  8
0
 10
-15.3652
 20
-25.1268
 11
-15.2613
 21
-25.1137
  0
LINE
  8
0
 10
-15.2613
 20
-25.1137
 11
-15.157
 21
-25.1049
  0
LINE
  8
0
 10
-15.157
 20
-25.1049
 11
-15.0524
 21
-25.1005
  0
LINE
  8
0
 10
-15.0524
 20
-25.1005
 11
-14.9476
 21
-25.1005
  0
LINE
  8
0
 10
-14.9476
 20
-25.1005
 11
-14.843
 21
-25.1049
  0
LINE
  8
0
 10
-14.843
 20
-25.1049
 11
-14.7387
 21
-25.1137
  0
LINE
  8
0
 10
-14.7387
 20
-25.1137
 11
-14.6348
 21
-25.1268
  0
LINE
  8
0
 10
-14.6348
 20
-25.1268
 11
-14.5315
 21
-25.1443
  0
LINE
  8
0
 10
-14.5315
 20
-25.1443
 11
-14.4291
 21
-25.166
  0
LINE
  8
0
 10
-14.4291
 20
-25.166
 11
-14.3277
 21
-25.1921
  0
LINE
  8
0
 10
-14.3277
 20
-25.1921
 11
-14.2274
 21
-25.2224
  0
LINE
  8
0
 10
-14.2274
 20
-25.2224
 11
-14.1286
 21
-25.2568
  0
LINE
  8
0
 10
-14.1286
 20
-25.2568
 11
-14.0312
 21
-25.2953
  0
LINE
  8
0
 10
-14.0312
 20
-25.2953
 11
-13.9355
 21
-25.3379
  0
LINE
  8
0
 10
-13.9355
 20
-25.3379
 11
-13.8418
 21
-25.3845
  0
LINE
  8
0
 10
-13.8418
 20
-25.3845
 11
-13.75
 21
-25.4349
  0
LINE
  8
0
 10
-13.75
 20
-25.4349
 11
-13.6604
 21
-25.4892
  0
LINE
  8
0
 10
-13.6604
 20
-25.4892
 11
-13.5732
 21
-25.5471
  0
LINE
  8
0
 10
-13.5732
 20
-25.5471
 11
-13.4885
 21
-25.6087
  0
LINE
  8
0
 10
-13.4885
 20
-25.6087
 11
-13.4064
 21
-25.6737
  0
LINE
  8
0
 10
-13.4064
 20
-25.6737
 11
-13.3272
 21
-25.7421
  0
LINE
  8
0
 10
-13.3272
 20
-25.7421
 11
-13.2508
 21
-25.8138
  0
LINE
  8
0
 10
-13.2508
 20
-25.8138
 11
-13.1776
 21
-25.8886
  0
LINE
  8
0
 10
-13.1776
 20
-25.8886
 11
-13.1075
 21
-25.9664
  0
LINE
  8
0
 10
-13.1075
 20
-25.9664
 11
-13.0408
 21
-26.0471
  0
LINE
  8
0
 10
-13.0408
 20
-26.0471
 11
-12.9774
 21
-26.1305
  0
LINE
  8
0
 10
-12.9774
 20
-26.1305
 11
-12.9177
 21
-26.2165
  0
LINE
  8
0
 10
-12.9177
 20
-26.2165
 11
-12.8616
 21
-26.3049
  0
LINE
  8
0
 10
-12.8616
 20
-26.3049
 11
-12.8092
 21
-26.3956
  0
LINE
  8
0
 10
-12.8092
 20
-26.3956
 11
-12.7607
 21
-26.4884
  0
LINE
  8
0
 10
-12.7607
 20
-26.4884
 11
-12.7161
 21
-26.5831
  0
LINE
  8
0
 10
-12.7161
 20
-26.5831
 11
-12.6756
 21
-26.6797
  0
LINE
  8
0
 10
-12.6756
 20
-26.6797
 11
-12.6391
 21
-26.7778
  0
LINE
  8
0
 10
-12.6391
 20
-26.7778
 11
-12.6067
 21
-26.8774
  0
LINE
  8
0
 10
-12.6067
 20
-26.8774
 11
-12.5785
 21
-26.9783
  0
LINE
  8
0
 10
-12.5785
 20
-26.9783
 11
-12.5546
 21
-27.0802
  0
LINE
  8
0
 10
-12.5546
 20
-27.0802
 11
-12.535
 21
-27.1831
  0
LINE
  8
0
 10
-12.535
 20
-27.1831
 11
-12.5197
 21
-27.2867
  0
LINE
  8
0
 10
-12.5197
 20
-27.2867
 11
-12.5088
 21
-27.3908
  0
LINE
  8
0
 10
-12.5088
 20
-27.3908
 11
-12.5022
 21
-27.4953
  0
LINE
  8
0
 10
-12.5022
 20
-27.4953
 11
-12.5
 21
-27.6
  0
LINE
  8
0
 10
-12.5
 20
-27.6
 11
-12.5022
 21
-27.7047
  0
LINE
  8
0
 10
-12.5022
 20
-27.7047
 11
-12.5088
 21
-27.8092
  0
LINE
  8
0
 10
-12.5088
 20
-27.8092
 11
-12.5197
 21
-27.9133
  0
LINE
  8
0
 10
-12.5197
 20
-27.9133
 11
-12.535
 21
-28.0169
  0
LINE
  8
0
 10
-12.535
 20
-28.0169
 11
-12.5546
 21
-28.1198
  0
LINE
  8
0
 10
-12.5546
 20
-28.1198
 11
-12.5785
 21
-28.2217
  0
LINE
  8
0
 10
-12.5785
 20
-28.2217
 11
-12.6067
 21
-28.3226
  0
LINE
  8
0
 10
-12.6067
 20
-28.3226
 11
-12.6391
 21
-28.4221
  0
LINE
  8
0
 10
-12.6391
 20
-28.4221
 11
-12.6756
 21
-28.5203
  0
LINE
  8
0
 10
-12.6756
 20
-28.5203
 11
-12.7161
 21
-28.6168
  0
LINE
  8
0
 10
-12.7161
 20
-28.6168
 11
-12.7607
 21
-28.7116
  0
LINE
  8
0
 10
-12.7607
 20
-28.7116
 11
-12.8092
 21
-28.8044
  0
LINE
  8
0
 10
-12.8092
 20
-28.8044
 11
-12.8616
 21
-28.8951
  0
LINE
  8
0
 10
-12.8616
 20
-28.8951
 11
-12.9177
 21
-28.9835
  0
LINE
  8
0
 10
-12.9177
 20
-28.9835
 11
-12.9774
 21
-29.0695
  0
LINE
  8
0
 10
-12.9774
 20
-29.0695
 11
-13.0408
 21
-29.1529
  0
LINE
  8
0
 10
-13.0408
 20
-29.1529
 11
-13.1075
 21
-29.2335
  0
LINE
  8
0
 10
-13.1075
 20
-29.2335
 11
-13.1776
 21
-29.3114
  0
LINE
  8
0
 10
-13.1776
 20
-29.3114
 11
-13.2508
 21
-29.3862
  0
LINE
  8
0
 10
-13.2508
 20
-29.3862
 11
-13.3272
 21
-29.4579
  0
LINE
  8
0
 10
-13.3272
 20
-29.4579
 11
-13.4064
 21
-29.5263
  0
LINE
  8
0
 10
-13.4064
 20
-29.5263
 11
-13.4885
 21
-29.5913
  0
LINE
  8
0
 10
-13.4885
 20
-29.5913
 11
-13.5732
 21
-29.6529
  0
LINE
  8
0
 10
-13.5732
 20
-29.6529
 11
-13.6604
 21
-29.7108
  0
LINE
  8
0
 10
-13.6604
 20
-29.7108
 11
-13.75
 21
-29.7651
  0
LINE
  8
0
 10
-13.75
 20
-29.7651
 11
-13.8418
 21
-29.8155
  0
LINE
  8
0
 10
-13.8418
 20
-29.8155
 11
-13.9355
 21
-29.8621
  0
LINE
  8
0
 10
-13.9355
 20
-29.8621
 11
-14.0312
 21
-29.9046
  0
LINE
  8
0
 10
-14.0312
 20
-29.9046
 11
-14.1286
 21
-29.9432
  0
LINE
  8
0
 10
-14.1286
 20
-29.9432
 11
-14.2274
 21
-29.9776
  0
LINE
  8
0
 10
-14.2274
 20
-29.9776
 11
-14.3277
 21
-30.0079
  0
LINE
  8
0
 10
-14.3277
 20
-30.0079
 11
-14.4291
 21
-30.0339
  0
LINE
  8
0
 10
-14.4291
 20
-30.0339
 11
-14.5315
 21
-30.0557
  0
LINE
  8
0
 10
-14.5315
 20
-30.0557
 11
-14.6348
 21
-30.0732
  0
LINE
  8
0
 10
-14.6348
 20
-30.0732
 11
-14.7387
 21
-30.0863
  0
LINE
  8
0
 10
-14.7387
 20
-30.0863
 11
-14.843
 21
-30.0951
  0
LINE
  8
0
 10
-14.843
 20
-30.0951
 11
-14.9476
 21
-30.0994
  0
LINE
  8
0
 10
-14.9476
 20
-30.0994
 11
-15.0524
 21
-30.0994
  0
LINE
  8
0
 10
-15.0524
 20
-151.599
 11
-15.157
 21
-151.595
  0
LINE
  8
0
 10
-15.157
 20
-151.595
 11
-15.2613
 21
-151.586
  0
LINE
  8
0
 10
-15.2613
 20
-151.586
 11
-15.3652
 21
-151.573
  0
LINE
  8
0
 10
-15.3652
 20
-151.573
 11
-15.4684
 21
-151.556
  0
LINE
  8
0
 10
-15.4684
 20
-151.556
 11
-15.5709
 21
-151.534
  0
LINE
  8
0
 10
-15.5709
 20
-151.534
 11
-15.6723
 21
-151.508
  0
LINE
  8
0
 10
-15.6723
 20
-151.508
 11
-15.7725
 21
-151.478
  0
LINE
  8
0
 10
-15.7725
 20
-151.478
 11
-15.8714
 21
-151.443
  0
LINE
  8
0
 10
-15.8714
 20
-151.443
 11
-15.9688
 21
-151.405
  0
LINE
  8
0
 10
-15.9688
 20
-151.405
 11
-16.0644
 21
-151.362
  0
LINE
  8
0
 10
-16.0644
 20
-151.362
 11
-16.1582
 21
-151.316
  0
LINE
  8
0
 10
-16.1582
 20
-151.316
 11
-16.25
 21
-151.265
  0
LINE
  8
0
 10
-16.25
 20
-151.265
 11
-16.3396
 21
-151.211
  0
LINE
  8
0
 10
-16.3396
 20
-151.211
 11
-16.4268
 21
-151.153
  0
LINE
  8
0
 10
-16.4268
 20
-151.153
 11
-16.5115
 21
-151.091
  0
LINE
  8
0
 10
-16.5115
 20
-151.091
 11
-16.5936
 21
-151.026
  0
LINE
  8
0
 10
-16.5936
 20
-151.026
 11
-16.6728
 21
-150.958
  0
LINE
  8
0
 10
-16.6728
 20
-150.958
 11
-16.7491
 21
-150.886
  0
LINE
  8
0
 10
-16.7491
 20
-150.886
 11
-16.8224
 21
-150.811
  0
LINE
  8
0
 10
-16.8224
 20
-150.811
 11
-16.8925
 21
-150.734
  0
LINE
  8
0
 10
-16.8925
 20
-150.734
 11
-16.9592
 21
-150.653
  0
LINE
  8
0
 10
-16.9592
 20
-150.653
 11
-17.0225
 21
-150.569
  0
LINE
  8
0
 10
-17.0225
 20
-150.569
 11
-17.0823
 21
-150.483
  0
LINE
  8
0
 10
-17.0823
 20
-150.483
 11
-17.1384
 21
-150.395
  0
LINE
  8
0
 10
-17.1384
 20
-150.395
 11
-17.1908
 21
-150.304
  0
LINE
  8
0
 10
-17.1908
 20
-150.304
 11
-17.2393
 21
-150.212
  0
LINE
  8
0
 10
-17.2393
 20
-150.212
 11
-17.2839
 21
-150.117
  0
LINE
  8
0
 10
-17.2839
 20
-150.117
 11
-17.3244
 21
-150.02
  0
LINE
  8
0
 10
-17.3244
 20
-150.02
 11
-17.3609
 21
-149.922
  0
LINE
  8
0
 10
-17.3609
 20
-149.922
 11
-17.3933
 21
-149.823
  0
LINE
  8
0
 10
-17.3933
 20
-149.823
 11
-17.4214
 21
-149.722
  0
LINE
  8
0
 10
-17.4214
 20
-149.722
 11
-17.4454
 21
-149.62
  0
LINE
  8
0
 10
-17.4454
 20
-149.62
 11
-17.465
 21
-149.517
  0
LINE
  8
0
 10
-17.465
 20
-149.517
 11
-17.4803
 21
-149.413
  0
LINE
  8
0
 10
-17.4803
 20
-149.413
 11
-17.4912
 21
-149.309
  0
LINE
  8
0
 10
-17.4912
 20
-149.309
 11
-17.4978
 21
-149.205
  0
LINE
  8
0
 10
-17.4978
 20
-149.205
 11
-17.5
 21
-149.1
  0
LINE
  8
0
 10
-17.5
 20
-149.1
 11
-17.4978
 21
-148.995
  0
LINE
  8
0
 10
-17.4978
 20
-148.995
 11
-17.4912
 21
-148.891
  0
LINE
  8
0
 10
-17.4912
 20
-148.891
 11
-17.4803
 21
-148.787
  0
LINE
  8
0
 10
-17.4803
 20
-148.787
 11
-17.465
 21
-148.683
  0
LINE
  8
0
 10
-17.465
 20
-148.683
 11
-17.4454
 21
-148.58
  0
LINE
  8
0
 10
-17.4454
 20
-148.58
 11
-17.4214
 21
-148.478
  0
LINE
  8
0
 10
-17.4214
 20
-148.478
 11
-17.3933
 21
-148.377
  0
LINE
  8
0
 10
-17.3933
 20
-148.377
 11
-17.3609
 21
-148.278
  0
LINE
  8
0
 10
-17.3609
 20
-148.278
 11
-17.3244
 21
-148.18
  0
LINE
  8
0
 10
-17.3244
 20
-148.18
 11
-17.2839
 21
-148.083
  0
LINE
  8
0
 10
-17.2839
 20
-148.083
 11
-17.2393
 21
-147.988
  0
LINE
  8
0
 10
-17.2393
 20
-147.988
 11
-17.1908
 21
-147.896
  0
LINE
  8
0
 10
-17.1908
 20
-147.896
 11
-17.1384
 21
-147.805
  0
LINE
  8
0
 10
-17.1384
 20
-147.805
 11
-17.0823
 21
-147.717
  0
LINE
  8
0
 10
-17.0823
 20
-147.717
 11
-17.0225
 21
-147.631
  0
LINE
  8
0
 10
-17.0225
 20
-147.631
 11
-16.9592
 21
-147.547
  0
LINE
  8
0
 10
-16.9592
 20
-147.547
 11
-16.8925
 21
-147.466
  0
LINE
  8
0
 10
-16.8925
 20
-147.466
 11
-16.8224
 21
-147.389
  0
LINE
  8
0
 10
-16.8224
 20
-147.389
 11
-16.7491
 21
-147.314
  0
LINE
  8
0
 10
-16.7491
 20
-147.314
 11
-16.6728
 21
-147.242
  0
LINE
  8
0
 10
-16.6728
 20
-147.242
 11
-16.5936
 21
-147.174
  0
LINE
  8
0
 10
-16.5936
 20
-147.174
 11
-16.5115
 21
-147.109
  0
LINE
  8
0
 10
-16.5115
 20
-147.109
 11
-16.4268
 21
-147.047
  0
LINE
  8
0
 10
-16.4268
 20
-147.047
 11
-16.3396
 21
-146.989
  0
LINE
  8
0
 10
-16.3396
 20
-146.989
 11
-16.25
 21
-146.935
  0
LINE
  8
0
 10
-16.25
 20
-146.935
 11
-16.1582
 21
-146.884
  0
LINE
  8
0
 10
-16.1582
 20
-146.884
 11
-16.0644
 21
-146.838
  0
LINE
  8
0
 10
-16.0644
 20
-146.838
 11
-15.9688
 21
-146.795
  0
LINE
  8
0
 10
-15.9688
 20
-146.795
 11
-15.8714
 21
-146.757
  0
LINE
  8
0
 10
-15.8714
 20
-146.757
 11
-15.7725
 21
-146.722
  0
LINE
  8
0
 10
-15.7725
 20
-146.722
 11
-15.6723
 21
-146.692
  0
LINE
  8
0
 10
-15.6723
 20
-146.692
 11
-15.5709
 21
-146.666
  0
LINE
  8
0
 10
-15.5709
 20
-146.666
 11
-15.4684
 21
-146.644
  0
LINE
  8
0
 10
-15.4684
 20
-146.644
 11
-15.3652
 21
-146.627
  0
LINE
  8
0
 10
-15.3652
 20
-146.627
 11
-15.2613
 21
-146.614
  0
LINE
  8
0
 10
-15.2613
 20
-146.614
 11
-15.157
 21
-146.605
  0
LINE
  8
0
 10
-15.157
 20
-146.605
 11
-15.0524
 21
-146.601
  0
LINE
  8
0
 10
-15.0524
 20
-146.601
 11
-14.9476
 21
-146.601
  0
LINE
  8
0
 10
-14.9476
 20
-146.601
 11
-14.843
 21
-146.605
  0
LINE
  8
0
 10
-14.843
 20
-146.605
 11
-14.7387
 21
-146.614
  0
LINE
  8
0
 10
-14.7387
 20
-146.614
 11
-14.6348
 21
-146.627
  0
LINE
  8
0
 10
-14.6348
 20
-146.627
 11
-14.5315
 21
-146.644
  0
LINE
  8
0
 10
-14.5315
 20
-146.644
 11
-14.4291
 21
-146.666
  0
LINE
  8
0
 10
-14.4291
 20
-146.666
 11
-14.3277
 21
-146.692
  0
LINE
  8
0
 10
-14.3277
 20
-146.692
 11
-14.2274
 21
-146.722
  0
LINE
  8
0
 10
-14.2274
 20
-146.722
 11
-14.1286
 21
-146.757
  0
LINE
  8
0
 10
-14.1286
 20
-146.757
 11
-14.0312
 21
-146.795
  0
LINE
  8
0
 10
-14.0312
 20
-146.795
 11
-13.9355
 21
-146.838
  0
LINE
  8
0
 10
-13.9355
 20
-146.838
 11
-13.8418
 21
-146.884
  0
LINE
  8
0
 10
-13.8418
 20
-146.884
 11
-13.75
 21
-146.935
  0
LINE
  8
0
 10
-13.75
 20
-146.935
 11
-13.6604
 21
-146.989
  0
LINE
  8
0
 10
-13.6604
 20
-146.989
 11
-13.5732
 21
-147.047
  0
LINE
  8
0
 10
-13.5732
 20
-147.047
 11
-13.4885
 21
-147.109
  0
LINE
  8
0
 10
-13.4885
 20
-147.109
 11
-13.4064
 21
-147.174
  0
LINE
  8
0
 10
-13.4064
 20
-147.174
 11
-13.3272
 21
-147.242
  0
LINE
  8
0
 10
-13.3272
 20
-147.242
 11
-13.2508
 21
-147.314
  0
LINE
  8
0
 10
-13.2508
 20
-147.314
 11
-13.1776
 21
-147.389
  0
LINE
  8
0
 10
-13.1776
 20
-147.389
 11
-13.1075
 21
-147.466
  0
LINE
  8
0
 10
-13.1075
 20
-147.466
 11
-13.0408
 21
-147.547
  0
LINE
  8
0
 10
-13.0408
 20
-147.547
 11
-12.9774
 21
-147.631
  0
LINE
  8
0
 10
-12.9774
 20
-147.631
 11
-12.9177
 21
-147.717
  0
LINE
  8
0
 10
-12.9177
 20
-147.717
 11
-12.8616
 21
-147.805
  0
LINE
  8
0
 10
-12.8616
 20
-147.805
 11
-12.8092
 21
-147.896
  0
LINE
  8
0
 10
-12.8092
 20
-147.896
 11
-12.7607
 21
-147.988
  0
LINE
  8
0
 10
-12.7607
 20
-147.988
 11
-12.7161
 21
-148.083
  0
LINE
  8
0
 10
-12.7161
 20
-148.083
 11
-12.6756
 21
-148.18
  0
LINE
  8
0
 10
-12.6756
 20
-148.18
 11
-12.6391
 21
-148.278
  0
LINE
  8
0
 10
-12.6391
 20
-148.278
 11
-12.6067
 21
-148.377
  0
LINE
  8
0
 10
-12.6067
 20
-148.377
 11
-12.5785
 21
-148.478
  0
LINE
  8
0
 10
-12.5785
 20
-148.478
 11
-12.5546
 21
-148.58
  0
LINE
  8
0
 10
-12.5546
 20
-148.58
 11
-12.535
 21
-148.683
  0
LINE
  8
0
 10
-12.535
 20
-148.683
 11
-12.5197
 21
-148.787
  0
LINE
  8
0
 10
-12.5197
 20
-148.787
 11
-12.5088
 21
-148.891
  0
LINE
  8
0
 10
-12.5088
 20
-148.891
 11
-12.5022
 21
-148.995
  0
LINE
  8
0
 10
-12.5022
 20
-148.995
 11
-12.5
 21
-149.1
  0
LINE
  8
0
 10
-12.5
 20
-149.1
 11
-12.5022
 21
-149.205
  0
LINE
  8
0
 10
-12.5022
 20
-149.205
 11
-12.5088
 21
-149.309
  0
LINE
  8
0
 10
-12.5088
 20
-149.309
 11
-12.5197
 21
-149.413
  0
LINE
  8
0
 10
-12.5197
 20
-149.413
 11
-12.535
 21
-149.517
  0
LINE
  8
0
 10
-12.535
 20
-149.517
 11
-12.5546
 21
-149.62
  0
LINE
  8
0
 10
-12.5546
 20
-149.62
 11
-12.5785
 21
-149.722
  0
LINE
  8
0
 10
-12.5785
 20
-149.722
 11
-12.6067
 21
-149.823
  0
LINE
  8
0
 10
-12.6067
 20
-149.823
 11
-12.6391
 21
-149.922
  0
LINE
  8
0
 10
-12.6391
 20
-149.922
 11
-12.6756
 21
-150.02
  0
LINE
  8
0
 10
-12.6756
 20
-150.02
 11
-12.7161
 21
-150.117
  0
LINE
  8
0
 10
-12.7161
 20
-150.117
 11
-12.7607
 21
-150.212
  0
LINE
  8
0
 10
-12.7607
 20
-150.212
 11
-12.8092
 21
-150.304
  0
LINE
  8
0
 10
-12.8092
 20
-150.304
 11
-12.8616
 21
-150.395
  0
LINE
  8
0
 10
-12.8616
 20
-150.395
 11
-12.9177
 21
-150.483
  0
LINE
  8
0
 10
-12.9177
 20
-150.483
 11
-12.9774
 21
-150.569
  0
LINE
  8
0
 10
-12.9774
 20
-150.569
 11
-13.0408
 21
-150.653
  0
LINE
  8
0
 10
-13.0408
 20
-150.653
 11
-13.1075
 21
-150.734
  0
LINE
  8
0
 10
-13.1075
 20
-150.734
 11
-13.1776
 21
-150.811
  0
LINE
  8
0
 10
-13.1776
 20
-150.811
 11
-13.2508
 21
-150.886
  0
LINE
  8
0
 10
-13.2508
 20
-150.886
 11
-13.3272
 21
-150.958
  0
LINE
  8
0
 10
-13.3272
 20
-150.958
 11
-13.4064
 21
-151.026
  0
LINE
  8
0
 10
-13.4064
 20
-151.026
 11
-13.4885
 21
-151.091
  0
LINE
  8
0
 10
-13.4885
 20
-151.091
 11
-13.5732
 21
-151.153
  0
LINE
  8
0
 10
-13.5732
 20
-151.153
 11
-13.6604
 21
-151.211
  0
LINE
  8
0
 10
-13.6604
 20
-151.211
 11
-13.75
 21
-151.265
  0
LINE
  8
0
 10
-13.75
 20
-151.265
 11
-13.8418
 21
-151.316
  0
LINE
  8
0
 10
-13.8418
 20
-151.316
 11
-13.9355
 21
-151.362
  0
LINE
  8
0
 10
-13.9355
 20
-151.362
 11
-14.0312
 21
-151.405
  0
LINE
  8
0
 10
-14.0312
 20
-151.405
 11
-14.1286
 21
-151.443
  0
LINE
  8
0
 10
-14.1286
 20
-151.443
 11
-14.2274
 21
-151.478
  0
LINE
  8
0
 10
-14.2274
 20
-151.478
 11
-14.3277
 21
-151.508
  0
LINE
  8
0
 10
-14.3277
 20
-151.508
 11
-14.4291
 21
-151.534
  0
LINE
  8
0
 10
-14.4291
 20
-151.534
 11
-14.5315
 21
-151.556
  0
LINE
  8
0
 10
-14.5315
 20
-151.556
 11
-14.6348
 21
-151.573
  0
LINE
  8
0
 10
-14.6348
 20
-151.573
 11
-14.7387
 21
-151.586
  0
LINE
  8
0
 10
-14.7387
 20
-151.586
 11
-14.843
 21
-151.595
  0
LINE
  8
0
 10
-14.843
 20
-151.595
 11
-14.9476
 21
-151.599
  0
LINE
  8
0
 10
-14.9476
 20
-151.599
 11
-15.0524
 21
-151.599
  0
LINE
  8
0
 10
89.9
 20
-159.6
 11
113.4
 21
-159.6
  0
LINE
  8
0
 10
113.4
 20
-159.6
 11
113.4
 21
-4
  0
LINE
  8
0
 10
113.4
 20
-4
 11
89.9
 21
-4
  0
LINE
  8
0
 10
89.9
 20
-4
 11
81.9
 21
-16.6
  0
LINE
  8
0
 10
81.9
 20
-16.6
 11
75.6
 21
-16.6
  0
LINE
  8
0
 10
75.6
 20
-16.6
 11
75.6
 21
-20.6
  0
LINE
  8
0
 10
75.6
 20
-20.6
 11
63
 21
-20.6
  0
LINE
  8
0
 10
63
 20
-20.6
 11
63
 21
-16.6
  0
LINE
  8
0
 10
63
 20
-16.6
 11
50.4
 21
-16.6
  0
LINE
  8
0
 10
50.4
 20
-16.6
 11
50.4
 21
-20.6
  0
LINE
  8
0
 10
50.4
 20
-20.6
 11
37.8
 21
-20.6
  0
LINE
  8
0
 10
37.8
 20
-20.6
 11
37.8
 21
-16.6
  0
LINE
  8
0
 10
37.8
 20
-16.6
 11
31.5
 21
-16.6
  0
LINE
  8
0
 10
31.5
 20
-16.6
 11
23.5
 21
-4
  0
LINE
  8
0
 10
23.5
 20
-4
 11
0
 21
-4
  0
LINE
  8
0
 10
0
 20
-4
 11
0
 21
-29.2
  0
LINE
  8
0
 10
0
 20
-29.2
 11
4
 21
-29.2
  0
LINE
  8
0
 10
4
 20
-29.2
 11
4
 21
-41.8
  0
LINE
  8
0
 10
4
 20
-41.8
 11
0
 21
-41.8
  0
LINE
  8
0
 10
0
 20
-41.8
 11
0
 21
-54.4
  0
LINE
  8
0
 10
0
 20
-54.4
 11
4
 21
-54.4
  0
LINE
  8
0
 10
4
 20
-54.4
 11
4
 21
-67
  0
LINE
  8
0
 10
4
 20
-67
 11
0
 21
-67
  0
LINE
  8
0
 10
0
 20
-67
 11
0
 21
-79.6
  0
LINE
  8
0
 10
0
 20
-79.6
 11
4
 21
-79.6
  0
LINE
  8
0
 10
4
 20
-79.6
 11
4
 21
-92.2
  0
LINE
  8
0
 10
4
 20
-92.2
 11
0
 21
-92.2
  0
LINE
  8
0
 10
0
 20
-92.2
 11
0
 21
-104.8
  0
LINE
  8
0
 10
0
 20
-104.8
 11
4
 21
-104.8
  0
LINE
  8
0
 10
4
 20
-104.8
 11
4
 21
-117.4
  0
LINE
  8
0
 10
4
 20
-117.4
 11
0
 21
-117.4
  0
LINE
  8
0
 10
0
 20
-117.4
 11
0
 21
-130
  0
LINE
  8
0
 10
0
 20
-130
 11
4
 21
-130
  0
LINE
  8
0
 10
4
 20
-130
 11
4
 21
-142.6
  0
LINE
  8
0
 10
4
 20
-142.6
 11
0
 21
-142.6
  0
LINE
  8
0
 10
0
 20
-142.6
 11
0
 21
-155.2
  0
LINE
  8
0
 10
0
 20
-155.2
 11
4
 21
-155.2
  0
LINE
  8
0
 10
4
 20
-155.2
 11
4
 21
-159.6
  0
LINE
  8
0
 10
4
 20
-159.6
 11
23.5
 21
-159.6
  0
LINE
  8
0
 10
23.5
 20
-159.6
 11
31.5
 21
-172.2
  0
LINE
  8
0
 10
31.5
 20
-172.2
 11
81.9
 21
-172.2
  0
LINE
  8
0
 10
81.9
 20
-172.2
 11
89.9
 21
-159.6
  0
LINE
  8
0
 10
12.6
 20
-20.6
 11
12.6
 21
-16.6
  0
LINE
  8
0
 10
12.6
 20
-16.6
 11
25.2
 21
-16.6
  0
LINE
  8
0
 10
25.2
 20
-16.6
 11
25.2
 21
-20.6
  0
LINE
  8
0
 10
25.2
 20
-20.6
 11
12.6
 21
-20.6
  0
LINE
  8
0
 10
88.2
 20
-20.6
 11
88.2
 21
-16.6
  0
LINE
  8
0
 10
88.2
 20
-16.6
 11
100.8
 21
-16.6
  0
LINE
  8
0
 10
100.8
 20
-16.6
 11
100.8
 21
-20.6
  0
LINE
  8
0
 10
100.8
 20
-20.6
 11
88.2
 21
-20.6
  0
LINE
  8
0
 10
102.348
 20
-30.0994
 11
102.243
 21
-30.0951
  0
LINE
  8
0
 10
102.243
 20
-30.0951
 11
102.139
 21
-30.0863
  0
LINE
  8
0
 10
102.139
 20
-30.0863
 11
102.035
 21
-30.0732
  0
LINE
  8
0
 10
102.035
 20
-30.0732
 11
101.932
 21
-30.0557
  0
LINE
  8
0
 10
101.932
 20
-30.0557
 11
101.829
 21
-30.0339
  0
LINE
  8
0
 10
101.829
 20
-30.0339
 11
101.728
 21
-30.0079
  0
LINE
  8
0
 10
101.728
 20
-30.0079
 11
101.627
 21
-29.9776
  0
LINE
  8
0
 10
101.627
 20
-29.9776
 11
101.529
 21
-29.9432
  0
LINE
  8
0
 10
101.529
 20
-29.9432
 11
101.431
 21
-29.9046
  0
LINE
  8
0
 10
101.431
 20
-29.9046
 11
101.336
 21
-29.8621
  0
LINE
  8
0
 10
101.336
 20
-29.8621
 11
101.242
 21
-29.8155
  0
LINE
  8
0
 10
101.242
 20
-29.8155
 11
101.15
 21
-29.7651
  0
LINE
  8
0
 10
101.15
 20
-29.7651
 11
101.06
 21
-29.7108
  0
LINE
  8
0
 10
101.06
 20
-29.7108
 11
100.973
 21
-29.6529
  0
LINE
  8
0
 10
100.973
 20
-29.6529
 11
100.888
 21
-29.5913
  0
LINE
  8
0
 10
100.888
 20
-29.5913
 11
100.806
 21
-29.5263
  0
LINE
  8
0
 10
100.806
 20
-29.5263
 11
100.727
 21
-29.4579
  0
LINE
  8
0
 10
100.727
 20
-29.4579
 11
100.651
 21
-29.3862
  0
LINE
  8
0
 10
100.651
 20
-29.3862
 11
100.578
 21
-29.3114
  0
LINE
  8
0
 10
100.578
 20
-29.3114
 11
100.507
 21
-29.2335
  0
LINE
  8
0
 10
100.507
 20
-29.2335
 11
100.441
 21
-29.1529
  0
LINE
  8
0
 10
100.441
 20
-29.1529
 11
100.377
 21
-29.0695
  0
LINE
  8
0
 10
100.377
 20
-29.0695
 11
100.318
 21
-28.9835
  0
LINE
  8
0
 10
100.318
 20
-28.9835
 11
100.262
 21
-28.8951
  0
LINE
  8
0
 10
100.262
 20
-28.8951
 11
100.209
 21
-28.8044
  0
LINE
  8
0
 10
100.209
 20
-28.8044
 11
100.161
 21
-28.7116
  0
LINE
  8
0
 10
100.161
 20
-28.7116
 11
100.116
 21
-28.6168
  0
LINE
  8
0
 10
100.116
 20
-28.6168
 11
100.076
 21
-28.5203
  0
LINE
  8
0
 10
100.076
 20
-28.5203
 11
100.039
 21
-28.4221
  0
LINE
  8
0
 10
100.039
 20
-28.4221
 11
100.007
 21
-28.3226
  0
LINE
  8
0
 10
100.007
 20
-28.3226
 11
99.9785
 21
-28.2217
  0
LINE
  8
0
 10
99.9785
 20
-28.2217
 11
99.9546
 21
-28.1198
  0
LINE
  8
0
 10
99.9546
 20
-28.1198
 11
99.935
 21
-28.0169
  0
LINE
  8
0
 10
99.935
 20
-28.0169
 11
99.9197
 21
-27.9133
  0
LINE
  8
0
 10
99.9197
 20
-27.9133
 11
99.9087
 21
-27.8092
  0
LINE
  8
0
 10
99.9087
 20
-27.8092
 11
99.9022
 21
-27.7047
  0
LINE
  8
0
 10
99.9022
 20
-27.7047
 11
99.9
 21
-27.6
  0
LINE
  8
0
 10
99.9
 20
-27.6
 11
99.9022
 21
-27.4953
  0
LINE
  8
0
 10
99.9022
 20
-27.4953
 11
99.9087
 21
-27.3908
  0
LINE
  8
0
 10
99.9087
 20
-27.3908
 11
99.9197
 21
-27.2867
  0
LINE
  8
0
 10
99.9197
 20
-27.2867
 11
99.935
 21
-27.1831
  0
LINE
  8
0
 10
99.935
 20
-27.1831
 11
99.9546
 21
-27.0802
  0
LINE
  8
0
 10
99.9546
 20
-27.0802
 11
99.9785
 21
-26.9783
  0
LINE
  8
0
 10
99.9785
 20
-26.9783
 11
100.007
 21
-26.8774
  0
LINE
  8
0
 10
100.007
 20
-26.8774
 11
100.039
 21
-26.7778
  0
LINE
  8
0
 10
100.039
 20
-26.7778
 11
100.076
 21
-26.6797
  0
LINE
  8
0
 10
100.076
 20
-26.6797
 11
100.116
 21
-26.5831
  0
LINE
  8
0
 10
100.116
 20
-26.5831
 11
100.161
 21
-26.4884
  0
LINE
  8
0
 10
100.161
 20
-26.4884
 11
100.209
 21
-26.3956
  0
LINE
  8
0
 10
100.209
 20
-26.3956
 11
100.262
 21
-26.3049
  0
LINE
  8
0
 10
100.262
 20
-26.3049
 11
100.318
 21
-26.2165
  0
LINE
  8
0
 10
100.318
 20
-26.2165
 11
100.377
 21
-26.1305
  0
LINE
  8
0
 10
100.377
 20
-26.1305
 11
100.441
 21
-26.0471
  0
LINE
  8
0
 10
100.441
 20
-26.0471
 11
100.507
 21
-25.9664
  0
LINE
  8
0
 10
100.507
 20
-25.9664
 11
100.578
 21
-25.8886
  0
LINE
  8
0
 10
100.578
 20
-25.8886
 11
100.651
 21
-25.8138
  0
LINE
  8
0
 10
100.651
 20
-25.8138
 11
100.727
 21
-25.7421
  0
LINE
  8
0
 10
100.727
 20
-25.7421
 11
100.806
 21
-25.6737
  0
LINE
  8
0
 10
100.806
 20
-25.6737
 11
100.888
 21
-25.6087
  0
LINE
  8
0
 10
100.888
 20
-25.6087
 11
100.973
 21
-25.5471
  0
LINE
  8
0
 10
100.973
 20
-25.5471
 11
101.06
 21
-25.4892
  0
LINE
  8
0
 10
101.06
 20
-25.4892
 11
101.15
 21
-25.4349
  0
LINE
  8
0
 10
101.15
 20
-25.4349
 11
101.242
 21
-25.3845
  0
LINE
  8
0
 10
101.242
 20
-25.3845
 11
101.336
 21
-25.3379
  0
LINE
  8
0
 10
101.336
 20
-25.3379
 11
101.431
 21
-25.2953
  0
LINE
  8
0
 10
101.431
 20
-25.2953
 11
101.529
 21
-25.2568
  0
LINE
  8
0
 10
101.529
 20
-25.2568
 11
101.627
 21
-25.2224
  0
LINE
  8
0
 10
101.627
 20
-25.2224
 11
101.728
 21
-25.1921
  0
LINE
  8
0
 10
101.728
 20
-25.1921
 11
101.829
 21
-25.166
  0
LINE
  8
0
 10
101.829
 20
-25.166
 11
101.932
 21
-25.1443
  0
LINE
  8
0
 10
101.932
 20
-25.1443
 11
102.035
 21
-25.1268
  0
LINE
  8
0
 10
102.035
 20
-25.1268
 11
102.139
 21
-25.1137
  0
LINE
  8
0
 10
102.139
 20
-25.1137
 11
102.243
 21
-25.1049
  0
LINE
  8
0
 10
102.243
 20
-25.1049
 11
102.348
 21
-25.1005
  0
LINE
  8
0
 10
102.348
 20
-25.1005
 11
102.452
 21
-25.1005
  0
LINE
  8
0
 10
102.452
 20
-25.1005
 11
102.557
 21
-25.1049
  0
LINE
  8
0
 10
102.557
 20
-25.1049
 11
102.661
 21
-25.1137
  0
LINE
  8
0
 10
102.661
 20
-25.1137
 11
102.765
 21
-25.1268
  0
LINE
  8
0
 10
102.765
 20
-25.1268
 11
102.868
 21
-25.1443
  0
LINE
  8
0
 10
102.868
 20
-25.1443
 11
102.971
 21
-25.166
  0
LINE
  8
0
 10
102.971
 20
-25.166
 11
103.072
 21
-25.1921
  0
LINE
  8
0
 10
103.072
 20
-25.1921
 11
103.173
 21
-25.2224
  0
LINE
  8
0
 10
103.173
 20
-25.2224
 11
103.271
 21
-25.2568
  0
LINE
  8
0
 10
103.271
 20
-25.2568
 11
103.369
 21
-25.2953
  0
LINE
  8
0
 10
103.369
 20
-25.2953
 11
103.464
 21
-25.3379
  0
LINE
  8
0
 10
103.464
 20
-25.3379
 11
103.558
 21
-25.3845
  0
LINE
  8
0
 10
103.558
 20
-25.3845
 11
103.65
 21
-25.4349
  0
LINE
  8
0
 10
103.65
 20
-25.4349
 11
103.74
 21
-25.4892
  0
LINE
  8
0
 10
103.74
 20
-25.4892
 11
103.827
 21
-25.5471
  0
LINE
  8
0
 10
103.827
 20
-25.5471
 11
103.911
 21
-25.6087
  0
LINE
  8
0
 10
103.911
 20
-25.6087
 11
103.994
 21
-25.6737
  0
LINE
  8
0
 10
103.994
 20
-25.6737
 11
104.073
 21
-25.7421
  0
LINE
  8
0
 10
104.073
 20
-25.7421
 11
104.149
 21
-25.8138
  0
LINE
  8
0
 10
104.149
 20
-25.8138
 11
104.222
 21
-25.8886
  0
LINE
  8
0
 10
104.222
 20
-25.8886
 11
104.292
 21
-25.9664
  0
LINE
  8
0
 10
104.292
 20
-25.9664
 11
104.359
 21
-26.0471
  0
LINE
  8
0
 10
104.359
 20
-26.0471
 11
104.423
 21
-26.1305
  0
LINE
  8
0
 10
104.423
 20
-26.1305
 11
104.482
 21
-26.2165
  0
LINE
  8
0
 10
104.482
 20
-26.2165
 11
104.538
 21
-26.3049
  0
LINE
  8
0
 10
104.538
 20
-26.3049
 11
104.591
 21
-26.3956
  0
LINE
  8
0
 10
104.591
 20
-26.3956
 11
104.639
 21
-26.4884
  0
LINE
  8
0
 10
104.639
 20
-26.4884
 11
104.684
 21
-26.5831
  0
LINE
  8
0
 10
104.684
 20
-26.5831
 11
104.724
 21
-26.6797
  0
LINE
  8
0
 10
104.724
 20
-26.6797
 11
104.761
 21
-26.7778
  0
LINE
  8
0
 10
104.761
 20
-26.7778
 11
104.793
 21
-26.8774
  0
LINE
  8
0
 10
104.793
 20
-26.8774
 11
104.821
 21
-26.9783
  0
LINE
  8
0
 10
104.821
 20
-26.9783
 11
104.845
 21
-27.0802
  0
LINE
  8
0
 10
104.845
 20
-27.0802
 11
104.865
 21
-27.1831
  0
LINE
  8
0
 10
104.865
 20
-27.1831
 11
104.88
 21
-27.2867
  0
LINE
  8
0
 10
104.88
 20
-27.2867
 11
104.891
 21
-27.3908
  0
LINE
  8
0
 10
104.891
 20
-27.3908
 11
104.898
 21
-27.4953
  0
LINE
  8
0
 10
104.898
 20
-27.4953
 11
104.9
 21
-27.6
  0
LINE
  8
0
 10
104.9
 20
-27.6
 11
104.898
 21
-27.7047
  0
LINE
  8
0
 10
104.898
 20
-27.7047
 11
104.891
 21
-27.8092
  0
LINE
  8
0
 10
104.891
 20
-27.8092
 11
104.88
 21
-27.9133
  0
LINE
  8
0
 10
104.88
 20
-27.9133
 11
104.865
 21
-28.0169
  0
LINE
  8
0
 10
104.865
 20
-28.0169
 11
104.845
 21
-28.1198
  0
LINE
  8
0
 10
104.845
 20
-28.1198
 11
104.821
 21
-28.2217
  0
LINE
  8
0
 10
104.821
 20
-28.2217
 11
104.793
 21
-28.3226
  0
LINE
  8
0
 10
104.793
 20
-28.3226
 11
104.761
 21
-28.4221
  0
LINE
  8
0
 10
104.761
 20
-28.4221
 11
104.724
 21
-28.5203
  0
LINE
  8
0
 10
104.724
 20
-28.5203
 11
104.684
 21
-28.6168
  0
LINE
  8
0
 10
104.684
 20
-28.6168
 11
104.639
 21
-28.7116
  0
LINE
  8
0
 10
104.639
 20
-28.7116
 11
104.591
 21
-28.8044
  0
LINE
  8
0
 10
104.591
 20
-28.8044
 11
104.538
 21
-28.8951
  0
LINE
  8
0
 10
104.538
 20
-28.8951
 11
104.482
 21
-28.9835
  0
LINE
  8
0
 10
104.482
 20
-28.9835
 11
104.423
 21
-29.0695
  0
LINE
  8
0
 10
104.423
 20
-29.0695
 11
104.359
 21
-29.1529
  0
LINE
  8
0
 10
104.359
 20
-29.1529
 11
104.292
 21
-29.2335
  0
LINE
  8
0
 10
104.292
 20
-29.2335
 11
104.222
 21
-29.3114
  0
LINE
  8
0
 10
104.222
 20
-29.3114
 11
104.149
 21
-29.3862
  0
LINE
  8
0
 10
104.149
 20
-29.3862
 11
104.073
 21
-29.4579
  0
LINE
  8
0
 10
104.073
 20
-29.4579
 11
103.994
 21
-29.5263
  0
LINE
  8
0
 10
103.994
 20
-29.5263
 11
103.911
 21
-29.5913
  0
LINE
  8
0
 10
103.911
 20
-29.5913
 11
103.827
 21
-29.6529
  0
LINE
  8
0
 10
103.827
 20
-29.6529
 11
103.74
 21
-29.7108
  0
LINE
  8
0
 10
103.74
 20
-29.7108
 11
103.65
 21
-29.7651
  0
LINE
  8
0
 10
103.65
 20
-29.7651
 11
103.558
 21
-29.8155
  0
LINE
  8
0
 10
103.558
 20
-29.8155
 11
103.464
 21
-29.8621
  0
LINE
  8
0
 10
103.464
 20
-29.8621
 11
103.369
 21
-29.9046
  0
LINE
  8
0
 10
103.369
 20
-29.9046
 11
103.271
 21
-29.9432
  0
LINE
  8
0
 10
103.271
 20
-29.9432
 11
103.173
 21
-29.9776
  0
LINE
  8
0
 10
103.173
 20
-29.9776
 11
103.072
 21
-30.0079
  0
LINE
  8
0
 10
103.072
 20
-30.0079
 11
102.971
 21
-30.0339
  0
LINE
  8
0
 10
102.971
 20
-30.0339
 11
102.868
 21
-30.0557
  0
LINE
  8
0
 10
102.868
 20
-30.0557
 11
102.765
 21
-30.0732
  0
LINE
  8
0
 10
102.765
 20
-30.0732
 11
102.661
 21
-30.0863
  0
LINE
  8
0
 10
102.661
 20
-30.0863
 11
102.557
 21
-30.0951
  0
LINE
  8
0
 10
102.557
 20
-30.0951
 11
102.452
 21
-30.0994
  0
LINE
  8
0
 10
102.452
 20
-30.0994
 11
102.348
 21
-30.0994
  0
LINE
  8
0
 10
102.348
 20
-151.599
 11
102.243
 21
-151.595
  0
LINE
  8
0
 10
102.243
 20
-151.595
 11
102.139
 21
-151.586
  0
LINE
  8
0
 10
102.139
 20
-151.586
 11
102.035
 21
-151.573
  0
LINE
  8
0
 10
102.035
 20
-151.573
 11
101.932
 21
-151.556
  0
LINE
  8
0
 10
101.932
 20
-151.556
 11
101.829
 21
-151.534
  0
LINE
  8
0
 10
101.829
 20
-151.534
 11
101.728
 21
-151.508
  0
LINE
  8
0
 10
101.728
 20
-151.508
 11
101.627
 21
-151.478
  0
LINE
  8
0
 10
101.627
 20
-151.478
 11
101.529
 21
-151.443
  0
LINE
  8
0
 10
101.529
 20
-151.443
 11
101.431
 21
-151.405
  0
LINE
  8
0
 10
101.431
 20
-151.405
 11
101.336
 21
-151.362
  0
LINE
  8
0
 10
101.336
 20
-151.362
 11
101.242
 21
-151.316
  0
LINE
  8
0
 10
101.242
 20
-151.316
 11
101.15
 21
-151.265
  0
LINE
  8
0
 10
101.15
 20
-151.265
 11
101.06
 21
-151.211
  0
LINE
  8
0
 10
101.06
 20
-151.211
 11
100.973
 21
-151.153
  0
LINE
  8
0
 10
100.973
 20
-151.153
 11
100.888
 21
-151.091
  0
LINE
  8
0
 10
100.888
 20
-151.091
 11
100.806
 21
-151.026
  0
LINE
  8
0
 10
100.806
 20
-151.026
 11
100.727
 21
-150.958
  0
LINE
  8
0
 10
100.727
 20
-150.958
 11
100.651
 21
-150.886
  0
LINE
  8
0
 10
100.651
 20
-150.886
 11
100.578
 21
-150.811
  0
LINE
  8
0
 10
100.578
 20
-150.811
 11
100.507
 21
-150.734
  0
LINE
  8
0
 10
100.507
 20
-150.734
 11
100.441
 21
-150.653
  0
LINE
  8
0
 10
100.441
 20
-150.653
 11
100.377
 21
-150.569
  0
LINE
  8
0
 10
100.377
 20
-150.569
 11
100.318
 21
-150.483
  0
LINE
  8
0
 10
100.318
 20
-150.483
 11
100.262
 21
-150.395
  0
LINE
  8
0
 10
100.262
 20
-150.395
 11
100.209
 21
-150.304
  0
LINE
  8
0
 10
100.209
 20
-150.304
 11
100.161
 21
-150.212
  0
LINE
  8
0
 10
100.161
 20
-150.212
 11
100.116
 21
-150.117
  0
LINE
  8
0
 10
100.116
 20
-150.117
 11
100.076
 21
-150.02
  0
LINE
  8
0
 10
100.076
 20
-150.02
 11
100.039
 21
-149.922
  0
LINE
  8
0
 10
100.039
 20
-149.922
 11
100.007
 21
-149.823
  0
LINE
  8
0
 10
100.007
 20
-149.823
 11
99.9785
 21
-149.722
  0
LINE
  8
0
 10
99.9785
 20
-149.722
 11
99.9546
 21
-149.62
  0
LINE
  8
0
 10
99.9546
 20
-149.62
 11
99.935
 21
-149.517
  0
LINE
  8
0
 10
99.935
 20
-149.517
 11
99.9197
 21
-149.413
  0
LINE
  8
0
 10
99.9197
 20
-149.413
 11
99.9087
 21
-149.309
  0
LINE
  8
0
 10
99.9087
 20
-149.309
 11
99.9022
 21
-149.205
  0
LINE
  8
0
 10
99.9022
 20
-149.205
 11
99.9
 21
-149.1
  0
LINE
  8
0
 10
99.9
 20
-149.1
 11
99.9022
 21
-148.995
  0
LINE
  8
0
 10
99.9022
 20
-148.995
 11
99.9087
 21
-148.891
  0
LINE
  8
0
 10
99.9087
 20
-148.891
 11
99.9197
 21
-148.787
  0
LINE
  8
0
 10
99.9197
 20
-148.787
 11
99.935
 21
-148.683
  0
LINE
  8
0
 10
99.935
 20
-148.683
 11
99.9546
 21
-148.58
  0
LINE
  8
0
 10
99.9546
 20
-148.58
 11
99.9785
 21
-148.478
  0
LINE
  8
0
 10
99.9785
 20
-148.478
 11
100.007
 21
-148.377
  0
LINE
  8
0
 10
100.007
 20
-148.377
 11
100.039
 21
-148.278
  0
LINE
  8
0
 10
100.039
 20
-148.278
 11
100.076
 21
-148.18
  0
LINE
  8
0
 10
100.076
 20
-148.18
 11
100.116
 21
-148.083
  0
LINE
  8
0
 10
100.116
 20
-148.083
 11
100.161
 21
-147.988
  0
LINE
  8
0
 10
100.161
 20
-147.988
 11
100.209
 21
-147.896
  0
LINE
  8
0
 10
100.209
 20
-147.896
 11
100.262
 21
-147.805
  0
LINE
  8
0
 10
100.262
 20
-147.805
 11
100.318
 21
-147.717
  0
LINE
  8
0
 10
100.318
 20
-147.717
 11
100.377
 21
-147.631
  0
LINE
  8
0
 10
100.377
 20
-147.631
 11
100.441
 21
-147.547
  0
LINE
  8
0
 10
100.441
 20
-147.547
 11
100.507
 21
-147.466
  0
LINE
  8
0
 10
100.507
 20
-147.466
 11
100.578
 21
-147.389
  0
LINE
  8
0
 10
100.578
 20
-147.389
 11
100.651
 21
-147.314
  0
LINE
  8
0
 10
100.651
 20
-147.314
 11
100.727
 21
-147.242
  0
LINE
  8
0
 10
100.727
 20
-147.242
 11
100.806
 21
-147.174
  0
LINE
  8
0
 10
100.806
 20
-147.174
 11
100.888
 21
-147.109
  0
LINE
  8
0
 10
100.888
 20
-147.109
 11
100.973
 21
-147.047
  0
LINE
  8
0
 10
100.973
 20
-147.047
 11
101.06
 21
-146.989
  0
LINE
  8
0
 10
101.06
 20
-146.989
 11
101.15
 21
-146.935
  0
LINE
  8
0
 10
101.15
 20
-146.935
 11
101.242
 21
-146.884
  0
LINE
  8
0
 10
101.242
 20
-146.884
 11
101.336
 21
-146.838
  0
LINE
  8
0
 10
101.336
 20
-146.838
 11
101.431
 21
-146.795
  0
LINE
  8
0
 10
101.431
 20
-146.795
 11
101.529
 21
-146.757
  0
LINE
  8
0
 10
101.529
 20
-146.757
 11
101.627
 21
-146.722
  0
LINE
  8
0
 10
101.627
 20
-146.722
 11
101.728
 21
-146.692
  0
LINE
  8
0
 10
101.728
 20
-146.692
 11
101.829
 21
-146.666
  0
LINE
  8
0
 10
101.829
 20
-146.666
 11
101.932
 21
-146.644
  0
LINE
  8
0
 10
101.932
 20
-146.644
 11
102.035
 21
-146.627
  0
LINE
  8
0
 10
102.035
 20
-146.627
 11
102.139
 21
-146.614
  0
LINE
  8
0
 10
102.139
 20
-146.614
 11
102.243
 21
-146.605
  0
LINE
  8
0
 10
102.243
 20
-146.605
 11
102.348
 21
-146.601
  0
LINE
  8
0
 10
102.348
 20
-146.601
 11
102.452
 21
-146.601
  0
LINE
  8
0
 10
102.452
 20
-146.601
 11
102.557
 21
-146.605
  0
LINE
  8
0
 10
102.557
 20
-146.605
 11
102.661
 21
-146.614
  0
LINE
  8
0
 10
102.661
 20
-146.614
 11
102.765
 21
-146.627
  0
LINE
  8
0
 10
102.765
 20
-146.627
 11
102.868
 21
-146.644
  0
LINE
  8
0
 10
102.868
 20
-146.644
 11
102.971
 21
-146.666
  0
LINE
  8
0
 10
102.971
 20
-146.666
 11
103.072
 21
-146.692
  0
LINE
  8
0
 10
103.072
 20
-146.692
 11
103.173
 21
-146.722
  0
LINE
  8
0
 10
103.173
 20
-146.722
 11
103.271
 21
-146.757
  0
LINE
  8
0
 10
103.271
 20
-146.757
 11
103.369
 21
-146.795
  0
LINE
  8
0
 10
103.369
 20
-146.795
 11
103.464
 21
-146.838
  0
LINE
  8
0
 10
103.464
 20
-146.838
 11
103.558
 21
-146.884
  0
LINE
  8
0
 10
103.558
 20
-146.884
 11
103.65
 21
-146.935
  0
LINE
  8
0
 10
103.65
 20
-146.935
 11
103.74
 21
-146.989
  0
LINE
  8
0
 10
103.74
 20
-146.989
 11
103.827
 21
-147.047
  0
LINE
  8
0
 10
103.827
 20
-147.047
 11
103.911
 21
-147.109
  0
LINE
  8
0
 10
103.911
 20
-147.109
 11
103.994
 21
-147.174
  0
LINE
  8
0
 10
103.994
 20
-147.174
 11
104.073
 21
-147.242
  0
LINE
  8
0
 10
104.073
 20
-147.242
 11
104.149
 21
-147.314
  0
LINE
  8
0
 10
104.149
 20
-147.314
 11
104.222
 21
-147.389
  0
LINE
  8
0
 10
104.222
 20
-147.389
 11
104.292
 21
-147.466
  0
LINE
  8
0
 10
104.292
 20
-147.466
 11
104.359
 21
-147.547
  0
LINE
  8
0
 10
104.359
 20
-147.547
 11
104.423
 21
-147.631
  0
LINE
  8
0
 10
104.423
 20
-147.631
 11
104.482
 21
-147.717
  0
LINE
  8
0
 10
104.482
 20
-147.717
 11
104.538
 21
-147.805
  0
LINE
  8
0
 10
104.538
 20
-147.805
 11
104.591
 21
-147.896
  0
LINE
  8
0
 10
104.591
 20
-147.896
 11
104.639
 21
-147.988
  0
LINE
  8
0
 10
104.639
 20
-147.988
 11
104.684
 21
-148.083
  0
LINE
  8
0
 10
104.684
 20
-148.083
 11
104.724
 21
-148.18
  0
LINE
  8
0
 10
104.724
 20
-148.18
 11
104.761
 21
-148.278
  0
LINE
  8
0
 10
104.761
 20
-148.278
 11
104.793
 21
-148.377
  0
LINE
  8
0
 10
104.793
 20
-148.377
 11
104.821
 21
-148.478
  0
LINE
  8
0
 10
104.821
 20
-148.478
 11
104.845
 21
-148.58
  0
LINE
  8
0
 10
104.845
 20
-148.58
 11
104.865
 21
-148.683
  0
LINE
  8
0
 10
104.865
 20
-148.683
 11
104.88
 21
-148.787
  0
LINE
  8
0
 10
104.88
 20
-148.787
 11
104.891
 21
-148.891
  0
LINE
  8
0
 10
104.891
 20
-148.891
 11
104.898
 21
-148.995
  0
LINE
  8
0
 10
104.898
 20
-148.995
 11
104.9
 21
-149.1
  0
LINE
  8
0
 10
104.9
 20
-149.1
 11
104.898
 21
-149.205
  0
LINE
  8
0
 10
104.898
 20
-149.205
 11
104.891
 21
-149.309
  0
LINE
  8
0
 10
104.891
 20
-149.309
 11
104.88
 21
-149.413
  0
LINE
  8
0
 10
104.88
 20
-149.413
 11
104.865
 21
-149.517
  0
LINE
  8
0
 10
104.865
 20
-149.517
 11
104.845
 21
-149.62
  0
LINE
  8
0
 10
104.845
 20
-149.62
 11
104.821
 21
-149.722
  0
LINE
  8
0
 10
104.821
 20
-149.722
 11
104.793
 21
-149.823
  0
LINE
  8
0
 10
104.793
 20
-149.823
 11
104.761
 21
-149.922
  0
LINE
  8
0
 10
104.761
 20
-149.922
 11
104.724
 21
-150.02
  0
LINE
  8
0
 10
104.724
 20
-150.02
 11
104.684
 21
-150.117
  0
LINE
  8
0
 10
104.684
 20
-150.117
 11
104.639
 21
-150.212
  0
LINE
  8
0
 10
104.639
 20
-150.212
 11
104.591
 21
-150.304
  0
LINE
  8
0
 10
104.591
 20
-150.304
 11
104.538
 21
-150.395
  0
LINE
  8
0
 10
104.538
 20
-150.395
 11
104.482
 21
-150.483
  0
LINE
  8
0
 10
104.482
 20
-150.483
 11
104.423
 21
-150.569
  0
LINE
  8
0
 10
104.423
 20
-150.569
 11
104.359
 21
-150.653
  0
LINE
  8
0
 10
104.359
 20
-150.653
 11
104.292
 21
-150.734
  0
LINE
  8
0
 10
104.292
 20
-150.734
 11
104.222
 21
-150.811
  0
LINE
  8
0
 10
104.222
 20
-150.811
 11
104.149
 21
-150.886
  0
LINE
  8
0
 10
104.149
 20
-150.886
 11
104.073
 21
-150.958
  0
LINE
  8
0
 10
104.073
 20
-150.958
 11
103.994
 21
-151.026
  0
LINE
  8
0
 10
103.994
 20
-151.026
 11
103.911
 21
-151.091
  0
LINE
  8
0
 10
103.911
 20
-151.091
 11
103.827
 21
-151.153
  0
LINE
  8
0
 10
103.827
 20
-151.153
 11
103.74
 21
-151.211
  0
LINE
  8
0
 10
103.74
 20
-151.211
 11
103.65
 21
-151.265
  0
LINE
  8
0
 10
103.65
 20
-151.265
 11
103.558
 21
-151.316
  0
LINE
  8
0
 10
103.558
 20
-151.316
 11
103.464
 21
-151.362
  0
LINE
  8
0
 10
103.464
 20
-151.362
 11
103.369
 21
-151.405
  0
LINE
  8
0
 10
103.369
 20
-151.405
 11
103.271
 21
-151.443
  0
LINE
  8
0
 10
103.271
 20
-151.443
 11
103.173
 21
-151.478
  0
LINE
  8
0
 10
103.173
 20
-151.478
 11
103.072
 21
-151.508
  0
LINE
  8
0
 10
103.072
 20
-151.508
 11
102.971
 21
-151.534
  0
LINE
  8
0
 10
102.971
 20
-151.534
 11
102.868
 21
-151.556
  0
LINE
  8
0
 10
102.868
 20
-151.556
 11
102.765
 21
-151.573
  0
LINE
  8
0
 10
102.765
 20
-151.573
 11
102.661
 21
-151.586
  0
LINE
  8
0
 10
102.661
 20
-151.586
 11
102.557
 21
-151.595
  0
LINE
  8
0
 10
102.557
 20
-151.595
 11
102.452
 21
-151.599
  0
LINE
  8
0
 10
102.452
 20
-151.599
 11
102.348
 21
-151.599
  0
ENDSEC
  0
SECTION
  2
OBJECTS
  0
DICTIONARY
  0
ENDSEC
  0
EOF
